<?xml version="1.0" encoding="UTF-8"?>
<svg width="1702px" height="326px" viewBox="0 0 1702 326" version="1.1" xmlns="http://www.w3.org/2000/svg" xmlns:xlink="http://www.w3.org/1999/xlink">
    <!-- Generator: Sketch 59.1 (86144) - https://sketch.com -->
    <title>Combined-Shape</title>
    <desc>Created with Sketch.</desc>
    <g id="Page-1" stroke="none" stroke-width="1" fill="none" fill-rule="evenodd">
        <path d="M851,290.758317 C1053.48522,290.758317 1231.53437,283.036279 1385.14743,267.592205 C1388.67513,255.862463 1394.40372,243.988716 1402.3332,231.970967 C1418.89642,238.053714 1435.03077,245.849991 1450.73624,255.359795 C1448.30552,231.18842 1451.9516,204.448951 1461.67444,175.141388 C1489.52254,175.253132 1519.80572,181.907017 1552.52399,195.103039 C1541.88141,165.076247 1538.14227,135.71078 1541.30658,107.006637 C1553.64189,107.006637 1578.12749,109.853077 1614.76337,115.545957 C1600.92584,67.3535551 1597.6597,28.8382352 1604.96497,0 C1629.13583,5.28963031 1655.14145,14.0711388 1682.98183,26.3445255 C1689.22884,29.0985092 1695.56823,32.0283067 1702,35.1339181 L1702,326 L0,326 L0,35.1339181 C35.0955462,18.1878586 67.4405541,6.47655256 97.0350237,0 C104.340301,28.8382352 101.074168,67.3535551 87.2366227,115.545957 C123.872503,109.853077 148.358104,107.006637 160.693424,107.006637 C163.85773,135.71078 160.118594,165.076247 149.476013,195.103039 C182.194285,181.907017 212.477465,175.253132 240.325551,175.141388 C250.048402,204.448951 253.694472,231.18842 251.263759,255.359795 C266.96923,245.849991 283.10358,238.053714 299.666807,231.970967 C307.596286,243.988716 313.324876,255.862463 316.852579,267.592206 C470.465632,283.036279 648.514777,290.758317 851,290.758317 Z" id="Combined-Shape" fill="#168B67" fill-rule="nonzero"></path>
    </g>
</svg>