<?xml version="1.0" encoding="UTF-8"?>
<svg width="1703px" height="518px" viewBox="0 0 1703 518" version="1.1" xmlns="http://www.w3.org/2000/svg" xmlns:xlink="http://www.w3.org/1999/xlink">
    <!-- Generator: Sketch 59.1 (86144) - https://sketch.com -->
    <title>Group</title>
    <desc>Created with Sketch.</desc>
    <defs>
        <linearGradient x1="50%" y1="-6.33938544%" x2="50%" y2="81.7531645%" id="linearGradient-1">
            <stop stop-color="#9BE77A" offset="0%"></stop>
            <stop stop-color="#2CBE65" offset="100%"></stop>
        </linearGradient>
    </defs>
    <g id="Page-1" stroke="none" stroke-width="1" fill="none" fill-rule="evenodd">
        <g id="Group" transform="translate(-11.000000, 0.000000)" fill-rule="nonzero">
            <path d="M1665.24626,181.137898 C1567.58226,170.341599 1516.51831,156.980924 1512.0544,141.055872 C1505.47316,117.577232 1554.95311,80.2456449 1560.22458,77.9920384 C1565.98382,91.2005675 1568.88451,101.657669 1568.92665,109.363341 C1576.86282,103.074055 1583.39145,98.6515799 1588.5125,96.0959122 C1596.89677,106.943281 1603.09075,117.576568 1607.09448,127.995772 C1616.34553,112.614405 1625.74656,100.715611 1635.29757,92.299391 C1641.5247,98.4891873 1646.46605,108.637011 1650.12166,122.742862 C1658.76177,116.021142 1664.68043,111.769453 1667.87762,109.987796 C1673.0113,116.742007 1676.45506,124.659463 1678.20891,133.74016 C1684.7061,125.699291 1691.55526,119.653697 1698.75639,115.603375 C1705.68066,121.561896 1710.64396,127.752944 1713.64632,134.176521 C1716.28791,129.518979 1719.29818,125.229975 1722.67709,121.309511 C1728.0464,123.915284 1754.10463,211.576793 1757.1841,215.272046 L1665.24626,181.137898 Z" id="Path" fill="#3E6CAA"></path>
            <path d="M143.913543,204.289645 C52.5235742,193.800183 4.74001717,180.819224 0.562871486,165.346771 C-5.59558267,142.535404 40.7057354,106.264797 45.6385645,104.07524 C51.0278173,116.908377 53.7421616,127.068282 53.7815977,134.554956 C61.2079476,128.444414 67.3171625,124.147627 72.1092422,121.664594 C79.9548851,132.203676 85.7509654,142.53476 89.497483,152.657844 C98.1542376,137.713622 106.951337,126.152998 115.888782,117.97597 C121.715874,123.989849 126.339798,133.849268 129.760553,147.554223 C137.845629,141.023537 143.384064,136.892685 146.375856,135.161663 C151.179747,141.723917 154.402281,149.416354 156.043461,158.238975 C162.123262,150.42663 168.532424,144.552854 175.270949,140.617644 C181.750396,146.406821 186.394856,152.421917 189.204332,158.662933 C191.676233,154.137759 194.493112,149.970652 197.654969,146.161608 C202.67934,148.693325 214.020774,178.093898 216.902412,181.684131 L143.913543,204.289645 Z" id="Path" fill="#1A5D7B" opacity="0.522530692" transform="translate(108.451206, 154.182443) scale(-1, 1) translate(-108.451206, -154.182443) "></path>
            <path d="M592.122224,106.847651 C537.17256,100.525235 508.441939,92.701097 505.930364,83.3752337 C502.227496,69.6259161 530.066897,47.764182 533.032838,46.4444475 C536.273212,54.1794895 537.905254,60.3032679 537.928965,64.8157839 C542.394176,61.1327178 546.067438,58.5428728 548.948752,57.0462503 C553.666069,63.3985737 557.151054,69.6255276 559.403707,75.7271132 C564.608717,66.7196379 569.898113,59.7515889 575.271892,54.8229703 C578.775524,58.4477748 581.555731,64.3904369 583.612515,72.6509593 C588.473795,68.7146555 591.803866,66.2248259 593.602728,65.1814704 C596.491144,69.1368012 598.428744,73.7733387 599.415529,79.091083 C603.071105,74.382273 606.924715,70.8419136 610.97636,68.4700075 C614.87223,71.9593742 617.664785,75.5849118 619.354028,79.3466187 C620.840297,76.6191176 622.53399,74.1074357 624.435107,71.8115744 C627.456088,73.3375406 634.275306,91.0584333 636.007936,93.2224096 L592.122224,106.847651 Z" id="Path-Copy-3" fill="#2CBE65" transform="translate(570.799933, 76.646049) scale(-1, 1) rotate(-3.000000) translate(-570.799933, -76.646049) "></path>
            <path d="M1530.71597,158.987243 C1475.76631,152.664827 1447.03569,144.840688 1444.52411,135.514824 C1440.82125,121.765508 1468.66064,99.9037727 1471.62659,98.5840396 C1474.86696,106.31908 1476.499,112.44286 1476.52271,116.955375 C1480.98792,113.272308 1484.66119,110.682465 1487.54251,109.185841 C1492.25982,115.538164 1495.74481,121.76512 1497.99745,127.866705 C1503.20246,118.859229 1508.49186,111.891181 1513.86565,106.962562 C1517.36928,110.587365 1520.14947,116.530029 1522.20626,124.79055 C1527.06755,120.854246 1530.39762,118.364418 1532.19648,117.321062 C1535.08489,121.276393 1537.02249,125.912929 1538.00927,131.230674 C1541.66485,126.521864 1545.51846,122.981506 1549.5701,120.609598 C1553.46597,124.098965 1556.25854,127.724502 1557.94778,131.486211 C1559.43404,128.75871 1561.12774,126.247028 1563.02886,123.951166 C1566.04984,125.477133 1572.86906,143.198025 1574.60169,145.362002 L1530.71597,158.987243 Z" id="Path-Copy-4" fill="#2CBE65" transform="translate(1509.393683, 128.785641) rotate(2.000000) translate(-1509.393683, -128.785641) "></path>
            <path d="M10.9824006,178.049942 C287.027124,106.768672 568.549197,71.128038 855.548618,71.128038 C1142.54804,71.128038 1428.45,106.768672 1713.25449,178.049942 L1713.25449,716.344073 L10.9824006,716.344073 L10.9824006,178.049942 Z" id="Rectangle" fill="url(#linearGradient-1)"></path>
        </g>
    </g>
</svg>