<?xml version="1.0" encoding="UTF-8"?>
<svg width="1240px" height="898px" viewBox="0 0 1240 898" version="1.1" xmlns="http://www.w3.org/2000/svg" xmlns:xlink="http://www.w3.org/1999/xlink">
    <!-- Generator: Sketch 55.2 (78181) - https://sketchapp.com -->
    <title>Artboard</title>
    <desc>Created with Sketch.</desc>
    <defs>
        <radialGradient cx="48.6077431%" cy="61.827074%" fx="48.6077431%" fy="61.827074%" r="79.2014659%" gradientTransform="translate(0.486077,0.618271),scale(0.650806,1.000000),scale(1.000000,0.645145),translate(-0.486077,-0.618271)" id="radialGradient-1">
            <stop stop-color="#8EE4F8" offset="0%"></stop>
            <stop stop-color="#86E0F9" offset="29.6546112%"></stop>
            <stop stop-color="#5CCBFB" offset="71.9025401%"></stop>
            <stop stop-color="#00A0FF" offset="100%"></stop>
        </radialGradient>
        <linearGradient x1="38.6356613%" y1="0%" x2="38.6356613%" y2="100%" id="linearGradient-2">
            <stop stop-color="#FFFFFF" offset="0%"></stop>
            <stop stop-color="#FFFFFF" stop-opacity="0" offset="100%"></stop>
        </linearGradient>
        <linearGradient x1="38.6356613%" y1="0%" x2="38.6356613%" y2="100%" id="linearGradient-3">
            <stop stop-color="#FFFFFF" offset="0%"></stop>
            <stop stop-color="#FFFFFF" stop-opacity="0" offset="100%"></stop>
        </linearGradient>
        <linearGradient x1="38.6356613%" y1="0%" x2="38.6356613%" y2="100%" id="linearGradient-4">
            <stop stop-color="#FFFFFF" offset="0%"></stop>
            <stop stop-color="#FFFFFF" stop-opacity="0" offset="100%"></stop>
        </linearGradient>
        <linearGradient x1="38.6356613%" y1="0%" x2="38.6356613%" y2="100%" id="linearGradient-5">
            <stop stop-color="#FFFFFF" offset="0%"></stop>
            <stop stop-color="#FFFFFF" stop-opacity="0" offset="100%"></stop>
        </linearGradient>
        <linearGradient x1="46.6660469%" y1="41.9893481%" x2="17.6308298%" y2="55.3480293%" id="linearGradient-6">
            <stop stop-color="#6AA9EB" offset="0%"></stop>
            <stop stop-color="#687FDD" offset="100%"></stop>
        </linearGradient>
        <linearGradient x1="65.1216592%" y1="40.5395309%" x2="31.3842455%" y2="63.8434104%" id="linearGradient-7">
            <stop stop-color="#8394DF" offset="0%"></stop>
            <stop stop-color="#687FDD" offset="100%"></stop>
        </linearGradient>
        <linearGradient x1="65.1216592%" y1="39.2064705%" x2="31.3842455%" y2="65.7940644%" id="linearGradient-8">
            <stop stop-color="#8394DF" offset="0%"></stop>
            <stop stop-color="#687FDD" offset="100%"></stop>
        </linearGradient>
        <linearGradient x1="50%" y1="-6.33938544%" x2="50%" y2="81.7531645%" id="linearGradient-9">
            <stop stop-color="#9BE77A" offset="0%"></stop>
            <stop stop-color="#2CBE65" offset="100%"></stop>
        </linearGradient>
    </defs>
    <g id="Artboard" stroke="none" stroke-width="1" fill="none" fill-rule="evenodd">
        <rect fill="#FFFFFF" x="0" y="0" width="1240" height="898"></rect>
        <rect id="Rectangle" fill="url(#radialGradient-1)" x="0" y="-75" width="1240" height="807"></rect>
        <g id="Group-14" transform="translate(91.000000, 21.000000)">
            <g id="Group-12">
                <g id="Group-10">
                    <path d="M282.929871,160.266999 C283.335236,159.852149 283.841985,159.562793 284.450118,159.398931 C285.371798,159.150582 286.332602,158.946461 287.305387,158.759106 C288.237409,158.508705 289.18784,158.296515 290.155295,158.124535 C290.829753,158.004639 291.503066,157.905961 292.174563,157.828025 C295.998749,156.977151 299.263413,155.637732 300.120719,151.940456 C300.430953,150.602516 301.097263,149.236941 302.119648,147.843733 C307.51064,126.1963 325.000884,108.675729 348.165455,104.557868 C373.627414,100.03161 398.140677,113.085713 409.508354,135.086675 C411.649385,137.633776 414.23132,139.606261 416.58979,140.399293 C430.23032,139.367284 442.785642,148.139978 446.680198,161.35506 C448.499371,164.688901 450.769718,165.715681 453.176518,165.616496 C454.938879,164.923085 456.794474,164.393839 458.728576,164.050023 C474.579041,161.232357 489.699875,171.935558 492.501903,187.956291 C492.50636,187.981777 492.510784,188.007262 492.515174,188.032744 C493.97349,196.370652 488.397452,204.312232 480.060744,205.770758 C479.188843,205.923299 478.305368,206 477.420228,206 L235.204852,206 C239.280815,198.32181 246.675117,192.542734 255.827314,190.915789 C258.039722,190.522499 260.237915,190.392631 262.390377,190.503876 C262.786856,177.249992 270.868367,165.388009 282.929871,160.266999 L282.929871,160.266999 Z" id="Path" fill="url(#linearGradient-2)" opacity="0.313778832"></path>
                    <path d="M61.1856588,71.9088485 C61.7271507,71.2814541 62.4271004,70.8513995 63.2855079,70.6186847 C71.2292988,68.465118 81.4529072,68.9044475 83.262533,61.0523795 C83.599395,59.5907167 84.2655781,58.1033395 85.2610825,56.590248 C92.031575,28.8723889 114.406402,6.40085185 144.082402,1.136993 C174.439514,-4.24767993 203.739369,9.91700635 219.276603,34.6572517 C219.466544,34.7945567 219.606146,34.9417394 219.69541,35.0988 C223.090438,41.0723818 228.804162,45.9777591 233.388042,46.6561932 C248.540214,46.3491675 262.337568,55.4365606 268.260809,69.3137932 C268.549979,69.7698838 268.779204,70.2060709 268.941637,70.6186847 C271.500422,77.1185398 275.01062,78.8645887 278.753427,78.5708983 C280.782526,77.8234926 282.904768,77.244871 285.106791,76.8542813 C305.324221,73.2681612 324.610999,86.890417 328.185014,107.280441 C328.190699,107.312878 328.196342,107.345313 328.201941,107.377745 C330.061338,117.985631 322.970524,128.092577 312.364165,129.952242 C311.252512,130.147153 310.126036,130.245161 308.997429,130.245161 L-5.68434189e-14,130.245161 C5.1989332,120.47292 14.6304408,113.117731 26.3041612,111.047074 C29.1261101,110.546524 31.9299276,110.381237 34.6754154,110.522821 C35.1845373,93.5404952 45.6286392,78.3536515 61.1856588,71.9088485 L61.1856588,71.9088485 Z" id="Path" fill="url(#linearGradient-3)" opacity="0.591773624"></path>
                </g>
            </g>
            <g id="Group-12-Copy" transform="translate(826.500000, 194.000000) scale(-1, 1) translate(-826.500000, -194.000000) translate(583.000000, 108.000000)">
                <g id="Group-10">
                    <path d="M327.320683,136.477838 C327.629182,136.16164 328.014839,135.941093 328.477653,135.816197 C329.179089,135.626906 329.9103,135.471325 330.650629,135.328523 C331.359936,135.137668 332.083252,134.975937 332.819525,134.844854 C333.332815,134.75347 333.845233,134.678257 334.35627,134.618854 C337.266631,133.970319 339.751173,132.949416 340.403618,130.131355 C340.639719,129.111579 341.146808,128.070739 341.924885,127.008837 C346.027649,110.509186 359.338437,97.1550252 376.967618,94.0163956 C396.345206,90.5664866 415.000797,100.51631 423.652062,117.285421 C425.281474,119.226818 427.246432,120.730245 429.041323,121.334693 C439.422322,120.548097 448.977433,127.234635 451.941349,137.307157 C453.325813,139.848207 455.05364,140.630817 456.885313,140.555219 C458.226541,140.026702 459.638725,139.623311 461.110655,139.361255 C473.173504,137.213633 484.681074,145.371601 486.813532,157.582588 C486.816924,157.602013 486.820291,157.621437 486.823631,157.64086 C487.93347,163.996005 483.689878,170.049069 477.345303,171.160756 C476.681752,171.277023 476.009391,171.335484 475.335763,171.335484 L291,171.335484 C294.101974,165.483176 299.729339,161.078369 306.694534,159.838314 C308.378266,159.538549 310.05118,159.439563 311.689292,159.524354 C311.991028,149.422257 318.141387,140.381066 327.320683,136.477838 L327.320683,136.477838 Z" id="Path" fill="url(#linearGradient-4)" opacity="0.313778832"></path>
                    <path d="M61.6876028,71.9088485 C62.2290947,71.2814541 62.9290445,70.8513995 63.787452,70.6186847 C71.7312428,68.465118 81.9548513,68.9044475 83.7644771,61.0523795 C84.101339,59.5907167 84.7675222,58.1033395 85.7630266,56.590248 C92.5335191,28.8723889 114.908346,6.40085185 144.584346,1.136993 C174.941458,-4.24767993 204.241313,9.91700635 219.778547,34.6572517 C219.968488,34.7945567 220.10809,34.9417394 220.197354,35.0988 C223.592382,41.0723818 229.306106,45.9777591 233.889986,46.6561932 C249.042158,46.3491675 262.839512,55.4365606 268.762753,69.3137932 C269.051923,69.7698838 269.281148,70.2060709 269.443581,70.6186847 C272.002366,77.1185398 275.512564,78.8645887 279.255371,78.5708983 C281.28447,77.8234926 283.406712,77.244871 285.608735,76.8542813 C305.826165,73.2681612 325.112943,86.890417 328.686958,107.280441 C328.692644,107.312878 328.698286,107.345313 328.703885,107.377745 C330.563282,117.985631 323.472468,128.092577 312.866109,129.952242 C311.754456,130.147153 310.62798,130.245161 309.499373,130.245161 L0.501944047,130.245161 C5.70087725,120.47292 15.1323849,113.117731 26.8061052,111.047074 C29.6280542,110.546524 32.4318716,110.381237 35.1773594,110.522821 C35.6864814,93.5404952 46.1305832,78.3536515 61.6876028,71.9088485 L61.6876028,71.9088485 Z" id="Path" fill="url(#linearGradient-3)" opacity="0.591773624"></path>
                </g>
                <g id="Group-10-Copy-2" transform="translate(287.500000, 28.500000) scale(-1, 1) translate(-287.500000, -28.500000) translate(216.000000, 0.000000)" fill="url(#linearGradient-5)" opacity="0.313778832">
                    <path d="M26.4992737,31.5271047 C26.7243524,31.2960371 27.0057243,31.1348682 27.3433895,31.0435981 C27.8551514,30.9052701 28.3886371,30.791576 28.9287749,30.687221 C29.4462796,30.5477498 29.9740055,30.4295618 30.5111838,30.3337704 C30.8856759,30.2669897 31.2595323,30.2120266 31.6323806,30.1686168 C33.7557566,29.6946871 35.5684581,28.9486424 36.0444763,26.8892904 C36.2167338,26.1440692 36.5867018,25.3834558 37.1543802,24.6074504 C40.1477234,12.5500132 49.8591655,2.79120331 62.7212724,0.497589317 C76.859002,-2.02349799 90.4699691,5.24752696 96.7818614,17.5018771 C97.9706669,18.9205906 99.4042843,20.0192484 100.713822,20.4609604 C108.287715,19.8861402 115.259045,24.7724568 117.421494,32.1331454 C118.431588,33.990067 119.692196,34.5619745 121.02857,34.5067293 C122.007119,34.1205056 123.037437,33.82572 124.111345,33.6342171 C132.912302,32.0648011 141.308131,38.0263936 142.863954,46.9498067 C142.866429,46.9640023 142.868886,46.9781968 142.871323,46.9923902 C143.681052,51.6365347 140.584962,56.0599274 135.956012,56.8723143 C135.47189,56.9572784 134.981341,57 134.489868,57 L0,57 C2.26317511,52.7233132 6.36885457,49.5044163 11.4506035,48.5982218 C12.6790411,48.3791627 13.8995857,48.3068271 15.0947385,48.3687896 C15.3148826,40.9864882 19.8021344,34.3794641 26.4992737,31.5271047 L26.4992737,31.5271047 Z" id="Path" transform="translate(71.500000, 28.500000) scale(-1, 1) translate(-71.500000, -28.500000) "></path>
                </g>
            </g>
        </g>
        <g id="Group-65" transform="translate(0.000000, 273.000000)">
            <g id="Group-22">
                <path d="M35.9846547,188.640465 L281.317019,34.5433419 C287.64144,30.5708732 295.695571,30.6263269 301.964693,34.6855037 L854.250729,392.283666 L152.549962,407 L35.9846547,188.640465 Z" id="Path-17-Copy" fill="url(#linearGradient-6)"></path>
                <path d="M272.283887,170.583701 L469.295107,35.5815533 C475.918811,31.0426535 484.667433,31.1049425 491.225836,35.7376973 L938,351.332104 L367.117837,364.393939 L272.283887,170.583701 Z" id="Path-17-Copy-2" fill="url(#linearGradient-7)"></path>
                <path d="M0,77.9369274 L109.63777,7.33043443 C115.981059,3.24537003 124.128902,3.25408782 130.463434,7.35271686 L605.483189,314.704494 L0,327.393939 L0,77.9369274 Z" id="Path-17" fill="url(#linearGradient-8)"></path>
            </g>
            <g id="Group-22" transform="translate(771.000000, 203.500000) scale(-1, 1) translate(-771.000000, -203.500000) translate(302.000000, 0.000000)">
                <path d="M35.9846547,188.640465 L281.317019,34.5433419 C287.64144,30.5708732 295.695571,30.6263269 301.964693,34.6855037 L854.250729,392.283666 L152.549962,407 L35.9846547,188.640465 Z" id="Path-17-Copy" fill="url(#linearGradient-6)"></path>
                <path d="M272.283887,170.583701 L469.295107,35.5815533 C475.918811,31.0426535 484.667433,31.1049425 491.225836,35.7376973 L938,351.332104 L367.117837,364.393939 L272.283887,170.583701 Z" id="Path-17-Copy-2" fill="url(#linearGradient-7)"></path>
                <path d="M0,77.9369274 L109.63777,7.33043443 C115.981059,3.24537003 124.128902,3.25408782 130.463434,7.35271686 L605.483189,314.704494 L0,327.393939 L0,77.9369274 Z" id="Path-17" fill="url(#linearGradient-8)"></path>
            </g>
        </g>
        <path d="M1205.02897,515.135383 C1133.88678,507.270947 1096.68985,497.538521 1093.43817,485.938105 C1088.64414,468.835367 1124.68723,441.641613 1128.52717,440 C1132.72242,449.621597 1134.83539,457.238949 1134.86609,462.852055 C1140.6471,458.270699 1145.4028,455.049199 1149.13317,453.187553 C1155.24059,461.089191 1159.75252,468.834883 1162.66899,476.424629 C1169.40781,465.220254 1176.25588,456.552718 1183.2132,450.422022 C1187.74928,454.930906 1191.34875,462.322968 1194.01163,472.598209 C1200.30542,467.701851 1204.6168,464.604759 1206.94575,463.306932 C1210.68532,468.226957 1213.19389,473.994334 1214.47146,480.609061 C1219.20426,474.751785 1224.19345,470.347943 1229.43903,467.397534 C1234.48293,471.737948 1238.09839,476.247744 1240.28542,480.926923 C1242.20966,477.534191 1244.40245,474.409917 1246.86378,471.554101 C1250.77499,473.452246 1269.7568,537.308237 1272,540 L1205.02897,515.135383 Z" id="Path" fill="#3E6CAA"></path>
        <path d="M96.8321203,532 C30.2601773,524.359075 -4.54719047,514.903249 -7.58998291,503.632523 C-12.0760361,487.015852 21.6516122,460.594957 25.2448733,459 C29.1706108,468.348147 31.1478429,475.74901 31.1765696,481.202589 C36.5862065,476.751437 41.0363919,473.621493 44.5271258,471.812757 C50.2421917,479.489827 54.4642779,487.015383 57.1933844,494.389424 C63.4992951,483.503482 69.9074384,475.082282 76.4178142,469.125823 C80.6624911,473.506562 84.0307337,480.688539 86.522542,490.671752 C92.4120205,485.914551 96.4464278,482.90548 98.6257638,481.644538 C102.125101,486.424734 104.472518,492.028199 105.668016,498.454933 C110.096775,492.764123 114.765454,488.48544 119.674053,485.618883 C124.393929,489.83594 127.777131,494.217566 129.823661,498.76376 C131.624288,495.467451 133.67621,492.431971 135.979428,489.657318 C139.639371,491.501517 147.900905,512.918017 150,515.53328 L96.8321203,532 Z" id="Path" fill="#1A5D7B" opacity="0.522530692" transform="translate(71.000000, 495.500000) scale(-1, 1) translate(-71.000000, -495.500000) "></path>
        <path d="M423.32444,461.01953 C383.297006,456.414041 362.368525,450.71464 360.538998,443.921325 C357.841687,433.905797 378.12097,417.980875 380.281475,417.01953 C382.641887,422.65403 383.830729,427.114824 383.848001,430.401913 C387.100631,427.719027 389.776375,425.832485 391.875234,424.742288 C395.311508,429.369563 397.850104,433.905514 399.491023,438.350142 C403.282551,431.788753 407.135549,426.71296 411.050015,423.122766 C413.602194,425.763212 415.627403,430.092074 417.125643,436.109354 C420.666785,433.242 423.092536,431.428313 424.402896,430.668293 C426.506928,433.549507 427.91835,436.926938 428.637162,440.800586 C431.300023,437.370509 434.10714,434.791576 437.058513,433.063789 C439.896413,435.605577 441.930617,438.246557 443.161126,440.986728 C444.243781,438.999912 445.477532,437.170307 446.862378,435.497914 C449.062976,436.609486 454.030355,449.518061 455.292469,451.094384 L423.32444,461.01953 Z" id="Path-Copy-3" fill="#2CBE65" transform="translate(407.792469, 439.019530) scale(-1, 1) rotate(-3.000000) translate(-407.792469, -439.019530) "></path>
        <path d="M1107.03197,499 C1067.00454,494.394511 1046.07606,488.695109 1044.24653,481.901794 C1041.54922,471.886267 1061.8285,455.961344 1063.98901,455 C1066.34942,460.634499 1067.53826,465.095294 1067.55553,468.382382 C1070.80816,465.699496 1073.48391,463.812955 1075.58277,462.722757 C1079.01904,467.350032 1081.55764,471.885984 1083.19855,476.330612 C1086.99008,469.769222 1090.84308,464.69343 1094.75755,461.103236 C1097.30973,463.743681 1099.33493,468.072544 1100.83317,474.089823 C1104.37432,471.222469 1106.80007,469.408783 1108.11043,468.648763 C1110.21446,471.529977 1111.62588,474.907407 1112.34469,478.781055 C1115.00755,475.350978 1117.81467,472.772046 1120.76604,471.044258 C1123.60394,473.586046 1125.63815,476.227026 1126.86866,478.967198 C1127.95131,476.980382 1129.18506,475.150777 1130.56991,473.478384 C1132.77051,474.589956 1137.73789,487.498531 1139,489.074854 L1107.03197,499 Z" id="Path-Copy-4" fill="#2CBE65" transform="translate(1091.500000, 477.000000) rotate(2.000000) translate(-1091.500000, -477.000000) "></path>
        <path d="M0,512.885998 C201.081518,460.961999 406.152947,435 615.214286,435 C824.275625,435 1032.53753,460.961999 1240,512.885998 L1240,905 L0,905 L0,512.885998 Z" id="Rectangle" fill="url(#linearGradient-9)"></path>
        <path d="M230.844407,816.904581 C342.75992,828.153492 472.478451,833.777948 620,833.777948 C767.521549,833.777948 897.24008,828.153492 1009.15559,816.904581 C1011.72571,808.361057 1015.8993,799.712645 1021.67636,790.959347 C1033.74357,795.389802 1045.49833,801.068331 1056.94062,807.994932 C1055.16971,790.389368 1057.82608,770.913296 1064.9097,749.566716 C1085.19856,749.648107 1107.26151,754.494558 1131.09856,764.106068 C1123.34486,742.235628 1120.62069,720.846873 1122.92606,699.939803 C1131.91301,699.939803 1149.75211,702.013048 1176.44335,706.159538 C1166.36195,671.057918 1163.98239,643.004738 1169.30468,622 C1190.86587,626.717289 1214.43098,635.247385 1240,647.590288 L1240,859.446728 L1240,952.621422 L0,953 L0,859.446728 L5.68434189e-14,647.590288 C25.5690231,635.247385 49.1341287,626.717289 70.6953169,622 C76.0176109,643.004738 73.6380541,671.057918 63.5566464,706.159538 C90.2478872,702.013048 108.086985,699.939803 117.07394,699.939803 C119.37931,720.846873 116.655145,742.235628 108.901443,764.106068 C132.738492,754.494558 154.801443,749.648107 175.090296,749.566716 C182.173924,770.913296 184.830285,790.389368 183.059378,807.994932 C194.501672,801.068331 206.256427,795.389802 218.323643,790.959347 C224.100702,799.712645 228.274293,808.361057 230.844417,816.904582 Z" id="Combined-Shape" fill="#168B67"></path>
    </g>
</svg>