<?xml version="1.0" encoding="UTF-8"?>
<svg width="42px" height="45px" viewBox="0 0 42 45" version="1.1" xmlns="http://www.w3.org/2000/svg" xmlns:xlink="http://www.w3.org/1999/xlink">
    <!-- Generator: Sketch 59.1 (86144) - https://sketch.com -->
    <title>Group 5</title>
    <desc>Created with Sketch.</desc>
    <g id="Page-1" stroke="none" stroke-width="1" fill="none" fill-rule="evenodd">
        <g id="Artboard" transform="translate(-453.000000, -3083.000000)">
            <g id="Group-5" transform="translate(474.117107, 3105.329609) rotate(159.000000) translate(-474.117107, -3105.329609) translate(457.617107, 3086.329609)">
                <path d="M20.0677263,35.2798414 L20.0577682,35.4241556 L13.7493629,35.4241556 C5.24610999,35.4241556 -1.47563743,27.056266 -1.47563743,16.8991552 C-1.47563743,6.74204452 5.24610999,-1.62584513 13.7493629,-1.62584513 C13.8565053,-1.62584513 13.8565053,-1.62584513 14.0243629,-1.62584513 L18.424363,-1.62584513 L18.4688174,-1.62528041 C26.8346256,-1.41269884 33.3743632,6.88466412 33.3743632,16.8991552 C33.3743632,26.2663889 27.6528298,34.1307336 20.0677263,35.2798414 Z" id="Path" stroke="#5A0F1C" stroke-width="3.5" fill="#5A0F1C" opacity="0.5" stroke-linejoin="round"></path>
                <path d="M20.8597833,38.7973186 L20.8498252,38.9416328 L14.5414199,38.9416328 C6.038167,38.9416328 -0.683580426,30.5737431 -0.683580426,20.4166324 C-0.683580426,10.2595217 6.038167,1.89163205 14.5414199,1.89163205 C14.6485623,1.89163205 14.6485623,1.89163205 14.8164199,1.89163205 L19.21642,1.89163205 L19.2608745,1.89219677 C27.6266826,2.10477834 34.1664203,10.4021413 34.1664203,20.4166324 C34.1664203,29.7838661 28.4448868,37.6482108 20.8597833,38.7973186 Z" id="Path" stroke="#5A0F1C" stroke-width="3.5" fill="#F2BA1D" stroke-linejoin="round"></path>
                <path d="M15.4750003,4 C22.9170375,4 28.9500006,11.5104235 28.9500006,20.7750004 C28.9500006,30.0395772 22.9170375,37.5500007 15.4750003,37.5500007 C8.03296313,37.5500007 2,30.0395772 2,20.7750004 C2,11.5104235 8.03296313,4 15.4750003,4 Z" id="Path" fill="#F7DB45" fill-rule="nonzero"></path>
                <path d="M15.4750003,6.20000005 C9.3670629,6.20000005 4.20000005,12.632466 4.20000005,20.7750004 C4.20000005,28.9175347 9.3670629,35.3500007 15.4750003,35.3500007 C21.5829377,35.3500007 26.7500005,28.9175347 26.7500005,20.7750004 C26.7500005,12.632466 21.5829377,6.20000005 15.4750003,6.20000005 Z" id="Path" fill="#F3C830" fill-rule="nonzero"></path>
                <path d="M14.6500002,10.6000001 C15.4355354,10.6000001 15.8746609,11.0084657 15.7500003,11.7000002 L15.7500003,12.8000002 C18.0334151,13.0138453 19.7410141,14.2986123 20.1500002,16.1000001 C20.1616092,16.2567943 20.2341904,16.3233286 20.1500002,16.6500003 L20.1500002,16.6500003 C20.3694657,16.4897539 20.4360274,16.5802129 20.7000004,16.6500003 L20.7000004,16.6500003 L20.7000004,16.6500003 L20.7000004,16.6500003 L20.7000004,17.2000003 C20.356614,17.5575885 19.9429075,17.9708387 19.6000004,18.3000003 L19.0500004,18.3000003 L19.0500004,18.3000003 C18.5270235,17.9814434 18.1645729,17.6167006 17.9500003,17.2000003 C17.5464384,15.921767 16.8526044,15.2917967 15.7500003,15.0000002 L15.7500003,19.4000003 L15.7500003,19.4000003 L16.3000003,19.4000003 C19.2143721,20.4979609 20.6418245,21.8329087 20.7000004,24.3500004 C20.6418245,26.8089028 18.6636355,28.5221481 15.7500003,28.7500005 L15.7500003,29.8500006 C15.8746609,30.541535 15.4355354,30.9500006 14.6500002,30.9500006 C14.3675201,30.9500006 13.9320918,30.5433978 14.1000003,29.8500006 L14.1000003,28.7500005 C11.6279204,28.5261901 9.74719059,27.2501723 9.15000015,25.4500005 L9.15000015,24.9000005 L9.15000015,24.9000005 C9.15981257,25.0490101 9.1599802,25.0336722 9.15000015,24.9000005 L9.15000015,24.9000005 C9.15000015,24.0135371 9.60769827,23.5563439 10.2500002,23.2500004 L10.8000002,23.2500004 L10.8000002,23.2500004 L10.8000002,23.2500004 C11.2074908,23.7814158 11.3783352,24.0780351 11.3500002,24.3500004 C11.9928028,25.6791242 12.7683894,26.2855042 14.1000003,26.5500005 L14.1000003,21.6000001 L13.5500003,21.6000001 L13.5500003,21.6000001 C10.9177522,20.9138371 9.45539936,19.5225789 9.70000017,17.2000003 C9.46493958,14.8445599 11.2317775,13.0780341 14.1000003,12.8000002 L14.1000003,11.7000002 L14.1000003,11.1500002 C13.9718682,10.9704791 14.3915379,10.6000001 14.6500002,10.6000001 Z M15.7500003,22.1500004 L15.7500003,26.5500005 C17.217954,26.352238 17.9500003,25.6061187 17.9500003,24.3500004 C17.9500003,23.2896553 17.4498949,22.6627175 15.7500003,22.1500004 Z M14.1000003,15.0000002 L14.1000003,15.0000002 C12.6968439,15.3334955 11.9000002,16.1404021 11.9000002,17.2000003 C11.9000002,18.1519168 12.4746923,18.8885502 14.1000003,19.4000003 L14.1000003,19.4000003 L14.1000003,15.0000002 Z" id="$" fill="#FFE55B" fill-rule="nonzero"></path>
            </g>
        </g>
    </g>
</svg>