<?xml version="1.0" encoding="UTF-8"?>
<svg width="650px" height="160px" viewBox="0 0 650 160" version="1.1" xmlns="http://www.w3.org/2000/svg" xmlns:xlink="http://www.w3.org/1999/xlink">
    <!-- Generator: Sketch 55.2 (78181) - https://sketchapp.com -->
    <title>Group 29</title>
    <desc>Created with Sketch.</desc>
    <g id="Page-1" stroke="none" stroke-width="1" fill="none" fill-rule="evenodd">
        <g id="Group-29" transform="translate(0.596119, 0.442043)">
            <path d="M3.49027759,133.3749 L-6.39488462e-14,131.720891 L1.53082525,128.174857 C10.9854959,106.27387 27.2874379,96.1030367 49.6513144,98.2909342 L54.7847313,98.7931454 L53.0206172,103.640009 C42.290533,133.120673 25.3098392,143.714982 3.49027759,133.3749 Z M61.567098,152.103329 C49.7756793,164.044901 36.0099467,161.120168 22.2955067,144.775935 L18.9790232,140.823504 L23.6332136,138.596558 C37.4887399,131.96694 50.4714791,134.725315 61.6297346,146.547258 L64.2803477,149.355528 L61.567098,152.103329 Z M645.098629,35.3749003 C623.279067,45.7149816 606.298373,35.1206731 595.568289,5.64000899 L593.804175,0.793145431 L598.937592,0.290934207 C621.301468,-1.89696327 637.60341,8.2738698 647.058081,30.1748571 L648.588906,33.7208912 L645.098629,35.3749003 Z M587.022115,54.1033287 L584.308866,51.3555281 L586.959479,48.5472578 C598.117734,36.7253145 611.100473,33.96694 624.956,40.5965581 L629.61019,42.8235038 L626.293707,46.775935 C612.579267,63.1201681 598.813534,66.0449011 587.022115,54.1033287 Z M60.9347908,10.8354447 L60.6220659,6.98577111 L64.4584341,6.53848762 C88.1525808,3.7759789 105.111752,12.8084582 114.398915,33.2700922 L116.530696,37.9668672 L111.451132,38.8625314 C80.5550857,44.3103379 62.8897985,34.90178 60.9347908,10.8354447 Z" id="leaves_outline" fill="#18002D" fill-rule="nonzero"></path>
            <path d="M5.40739014,129.757646 C14.1882037,109.417594 28.8744087,100.254825 49.4660051,102.269337 C39.4563308,129.770691 24.7701258,138.933461 5.40739014,129.757646 Z M58.5420293,149.357932 C48.6621225,159.363651 37.5417396,157.000962 25.1808809,142.269864 C37.4297301,136.409012 48.5501129,138.771701 58.5420293,149.357932 Z M643.400372,31.7576459 C624.037636,40.9334609 609.351431,31.7706912 599.341757,4.26933695 C619.933353,2.25482477 634.619558,11.4175944 643.400372,31.7576459 Z M590.265732,51.3579319 C600.257649,40.7717009 611.378032,38.4090115 623.626881,44.2698637 C611.266022,59.0009616 600.145639,61.363651 590.265732,51.3579319 Z M65.5809323,10.8811306 C87.5863404,8.31551254 102.864634,16.4527543 111.415814,35.292856 C82.5941051,40.3749008 67.3158113,32.2376591 65.5809323,10.8811306 Z" id="leaves_inner" fill="#168B67"></path>
        </g>
    </g>
</svg>