<?xml version="1.0" encoding="UTF-8"?>
<svg width="730px" height="364px" viewBox="0 0 730 364" version="1.1" xmlns="http://www.w3.org/2000/svg" xmlns:xlink="http://www.w3.org/1999/xlink">
    <!-- Generator: Sketch 55.2 (78181) - https://sketchapp.com -->
    <title>Path</title>
    <desc>Created with Sketch.</desc>
    <g id="Page-1" stroke="none" stroke-width="1" fill="none" fill-rule="evenodd">
        <path d="M0,363.177441 L0,17.3911106 C6.61951106,12.5179609 13.9887339,8.05647593 22.1076684,4.00665567 C24.7183296,24.6322315 26.0157255,40.9691947 25.9998562,53.0175452 C31.3582259,46.4860153 37.8336518,40.6456631 45.4261339,35.4964885 C49.4939581,50.3936478 50.7558196,66.9612639 49.2117182,85.1993367 C62.3234306,79.9768696 72.5277429,76.8688605 79.824655,75.8753095 C79.0742067,109.587133 71.3992527,134.456003 56.799793,150.48192 C69.773438,150.119042 80.3680021,150.375935 88.5834856,151.252598 C85.9254522,172.295991 81.7622956,187.77105 76.0940159,197.677774 C90.6127015,195.285052 101.998571,194.279725 110.251623,194.661793 C112.604406,214.553749 112.397774,232.606894 109.631729,248.821228 C132.532142,235.71403 153.033281,227.177691 171.135146,223.21221 C174.268432,235.593653 172.867564,252.129866 166.932542,272.82085 C182.645934,270.376662 193.147983,269.154568 198.438691,269.154568 C199.795884,281.478439 198.192142,294.086244 193.627462,306.977983 C207.660564,301.312387 220.649236,298.4556 232.59348,298.407624 C236.763681,310.990568 238.327507,322.470924 237.284956,332.848691 C244.021146,328.76574 250.941284,325.418477 258.045371,322.806903 C262.774729,329.981871 265.678722,337.037286 266.757349,343.973147 L479.313574,343.973147 C479.550042,338.742157 480.278851,332.717847 481.5,325.900217 C487.302082,327.414787 492.774673,329.715111 497.917772,332.80119 C497.224192,320.134779 496.987897,312.364888 497.208886,309.491518 C511.454255,310.221635 523.537505,313.499306 533.458638,319.324533 C536.988281,289.949792 540.230518,272.945589 543.18535,268.311925 C556.095127,270.775304 564.567961,273.284914 568.603851,275.840756 C564.940837,263.51863 562.466893,254.696612 561.182021,249.374703 C576.609885,249.673902 591.040752,253.194074 604.474622,259.935217 C603.448978,234.25816 604.389152,218.038156 607.295143,211.275205 C618.942589,208.321593 633.784841,209.758273 651.821898,215.585245 C641.008493,196.764475 635.60179,181.437707 635.60179,169.604942 C649.270468,166.809217 661.026865,166.172437 670.870981,167.694602 C651.669273,148.312943 643.180472,123.898542 645.404579,94.451399 C658.732316,94.9800135 668.845053,96.5990044 675.74279,99.3083719 C675.029911,79.4966678 676.27064,62.5993219 679.464976,48.6163342 C687.790805,52.5471832 694.72895,57.5721177 700.279413,63.6911376 C698.325192,52.0136116 699.29626,30.7832323 703.192616,0 C713.287437,5.03541608 722.223232,10.7072507 730,17.015504 L730,363.177441 L0,363.177441 Z" id="Path" fill="#168B67"></path>
    </g>
</svg>