<?xml version="1.0" encoding="UTF-8"?>
<svg width="42px" height="36px" viewBox="0 0 42 36" version="1.1" xmlns="http://www.w3.org/2000/svg" xmlns:xlink="http://www.w3.org/1999/xlink">
    <!-- Generator: Sketch 55.2 (78181) - https://sketchapp.com -->
    <title>Group 67</title>
    <desc>Created with Sketch.</desc>
    <g id="Page-1" stroke="none" stroke-width="1" fill="none" fill-rule="evenodd">
        <g id="Artboard" transform="translate(-444.000000, -2183.000000)">
            <g id="Group-67" transform="translate(444.000000, 2183.000000)">
                <ellipse id="Oval" fill="#000000" cx="19.5" cy="32" rx="18.5" ry="4"></ellipse>
                <g id="Group-66" fill-rule="nonzero">
                    <path d="M7,27.0266124 C3.13400675,27.0266124 -2.84217094e-14,23.8926057 -2.84217094e-14,20.0266124 L-2.84217094e-14,12.0266124 C-2.84217094e-14,8.16061916 3.13400675,5.0266124 7,5.0266124 C7.32831667,5.0266124 7.65390816,5.04935925 7.97491335,5.09420415 C10.1696705,2.01588355 13.1244881,0.287956358 16.7338133,0.0316362154 C21.0098289,-0.272029671 24.0605585,1.61750781 25.5152602,5.39339875 L31.3234575,5.39339875 C34.5451681,5.39339875 36.5213921,5.5402061 38.0776576,5.99487333 C40.3781766,6.66697623 41.7730694,8.1522088 41.7730694,10.4137855 C41.7730694,14.4575515 39.139156,16.0136873 31.2636027,16.3958007 C31.2908016,16.6076092 31.3045811,16.8178094 31.3045811,17.0266119 C31.3045811,18.6832263 30.6420855,20.0170604 29.4457311,20.9795481 C29.6733508,21.5474268 29.7912918,22.187536 29.7912918,22.884311 C29.7912918,24.082618 29.3833999,25.0582411 28.6578412,25.775748 C28.8276037,26.2152698 28.9169851,26.6933477 28.9169851,27.2060852 C28.9169851,30.4913208 25.136914,32.0974704 18.3411811,32.0974704 C13.8365112,32.0974704 9.9673531,30.2181801 7.58279321,27.0025882 C7.38969931,27.018564 7.1953054,27.0266124 7,27.0266124 Z" id="Combined-Shape" fill="#000000"></path>
                    <path d="M8.52326242,24.790342 C10.3563265,28.0032975 13.8666717,30.0974704 18.3411811,30.0974704 C25.0281752,30.0974704 26.9169851,28.5424483 26.9169851,27.2060852 C26.9169851,26.3151764 26.3840852,25.6266618 25.3182854,25.1405412 C26.9669564,24.9375247 27.7912918,24.185448 27.7912918,22.884311 C27.7912918,21.583174 27.2122709,20.7600187 26.054229,20.4148451 C28.2211304,19.8541673 29.3045811,18.7247562 29.3045811,17.0266119 C29.3045811,16.3022807 29.0094238,15.4539397 28.4191093,14.4815889 C38.5742798,14.3269412 39.7730694,12.9005886 39.7730694,10.4137855 C39.7730694,7.77653266 36.5728822,7.39339875 31.3234575,7.39339875 L24.0476915,7.39339875 C23.1004266,3.54325074 20.7096923,1.7543218 16.8754886,2.02661193 C13.4755023,2.26806564 10.8084103,4.05577566 8.87421277,7.38974197 C8.29540669,7.15556241 7.66276229,7.0266124 7,7.0266124 C4.23857625,7.0266124 2,9.26518866 2,12.0266124 L2,20.0266124 C2,22.7880362 4.23857625,25.0266124 7,25.0266124 C7.53116976,25.0266124 8.04299422,24.9437853 8.52326242,24.790342 Z" id="Path" fill="#FFFFFF"></path>
                    <path d="M27.3868008,6.89339875 L31.3234575,6.89339875 C37.8145636,6.89339875 40.2730694,7.61165794 40.2730694,10.4137855 C40.2730694,13.6393921 37.9107322,14.7708701 29.2547366,14.9659785 C29.6191828,15.71448 29.8045811,16.4001187 29.8045811,17.0266119 C29.8045811,18.6373559 28.9487067,19.8102084 27.3160623,20.5153039 C27.9597516,21.0522076 28.2912918,21.8540532 28.2912918,22.884311 C28.2912918,24.0882607 27.6915373,24.9216245 26.5737215,25.3523207 C27.1272124,25.8517555 27.4169851,26.4734368 27.4169851,27.2060852 C27.4169851,29.311842 24.3912602,30.5974704 18.3411811,30.5974704 C16.4194788,30.5974704 14.6373832,30.221305 13.0710432,29.5215412 C12.9383175,29.5405622 12.7983464,29.5064678 12.6858151,29.4155693 C12.6044495,29.3498453 12.5238695,29.2840489 12.4440756,29.2181803 C10.7280853,28.3217928 9.30556724,27.0146862 8.28911802,25.3745883 C7.87040952,25.4751898 7.43849756,25.5266124 7,25.5266124 C3.96243388,25.5266124 1.5,23.0641785 1.5,20.0266124 L1.5,12.0266124 C1.5,8.98904628 3.96243388,6.5266124 7,6.5266124 C7.55763404,6.5266124 8.10421589,6.60979122 8.62588774,6.77102164 C9.02353156,6.08274393 9.51262433,5.39400222 10.0925223,4.70472218 C10.1688846,4.61395618 10.2706425,4.5571627 10.3786365,4.53599297 C12.1380587,2.71650779 14.2964814,1.70850369 16.8400698,1.527868 C20.7893324,1.24740683 23.3599708,3.067407 24.4318239,6.88841533 C25.4643584,6.82741733 26.1393433,6.83535824 27.3868008,6.89339875 Z M23.411505,6.96004655 C22.4405038,3.73101771 20.3112046,2.28388007 16.9109075,2.52535586 C13.68259,2.75461832 11.1606221,4.44505395 9.30670037,7.64064927 C9.28820502,7.67252961 9.26665456,7.70167653 9.24261011,7.72789763 C8.88579448,8.42287367 8.63485891,9.111278 8.48892316,9.79300896 C8.43111989,10.0630338 8.16536274,10.2350733 7.89533794,10.1772701 C7.62531313,10.1194668 7.45327358,9.85370964 7.51107684,9.58368483 C7.64711378,8.94819567 7.86211652,8.31239634 8.15557586,7.67622806 C7.78238983,7.5773871 7.39491291,7.5266124 7,7.5266124 C4.51471863,7.5266124 2.5,9.54133103 2.5,12.0266124 L2.5,20.0266124 C2.5,22.5118938 4.51471863,24.5266124 7,24.5266124 C7.3711181,24.5266124 7.73580597,24.4817861 8.08853935,24.3941883 C7.23434304,22.9910209 6.70544545,21.5579127 6.50464214,20.0945869 C6.46710062,19.8210083 6.65844646,19.5687956 6.93202505,19.5312541 C7.20560364,19.4937125 7.45781633,19.6850584 7.49535786,19.958637 C7.89082681,22.8405613 9.71618165,25.6485086 12.9994699,28.3797018 C14.5479918,29.1689447 16.3592029,29.5974704 18.3411811,29.5974704 C23.8941577,29.5974704 26.4169851,28.5255227 26.4169851,27.2060852 C26.4169851,26.5302017 26.0114603,26.0062575 25.1107948,25.5954562 C24.6518048,25.3861069 24.7564803,24.705945 25.2571773,24.6442895 C26.6747276,24.469733 27.2912918,23.9072149 27.2912918,22.884311 C27.2912918,21.798929 26.85196,21.1743605 25.9114052,20.8940125 C25.4260416,20.7493418 25.4386623,20.0576545 25.9289805,19.9307864 C27.8928785,19.422635 28.8045811,18.4722576 28.8045811,17.0266119 C28.8045811,16.4064739 28.5385192,15.6417587 27.9917075,14.7410646 C27.7911782,14.410758 28.0251285,13.9875306 28.411496,13.9816468 C37.2530903,13.8470029 39.2730694,12.9628875 39.2730694,10.4137855 C39.2730694,8.49321692 37.2199715,7.89339875 31.3234575,7.89339875 L27.3787423,7.89339875 C27.3766193,7.89341213 27.3744935,7.89341216 27.372365,7.89339875 L24.3748503,7.89339875 C23.6382956,7.93928811 22.7044386,8.02025473 21.2339336,8.14331073 C20.9587531,8.16633861 20.7170074,7.9619285 20.6939795,7.68674796 C20.6709516,7.41156743 20.8753617,7.16982174 21.1505422,7.14679385 C22.0897375,7.06819935 22.8148247,7.00652893 23.411505,6.96004655 Z" id="Combined-Shape" fill="#000000"></path>
                </g>
            </g>
        </g>
    </g>
</svg>