<?xml version="1.0" encoding="UTF-8"?>
<svg width="107px" height="79px" viewBox="0 0 107 79" version="1.1" xmlns="http://www.w3.org/2000/svg" xmlns:xlink="http://www.w3.org/1999/xlink">
    <!-- Generator: Sketch 55.2 (78181) - https://sketchapp.com -->
    <title>Group 26</title>
    <desc>Created with Sketch.</desc>
    <g id="Page-1" stroke="none" stroke-width="1" fill="none" fill-rule="evenodd">
        <g id="Group-26" transform="translate(-0.953152, 0.000000)">
            <path d="M41.3295488,78.9506326 C44.9852681,78.9506326 67.8733682,79.0617092 71.6666662,78.9506326 C98.246042,78.1723264 107,74.6349102 107,70.5980163 C107,66.7387105 94.8236247,63.0810597 68.7315136,62.0863409 C63.6357628,61.8920738 43.3708635,62.0863409 38.5882916,62.0863409 C9.31719989,62.0863409 0.953152143,67.969919 0.953152143,72.5829415 C0.953152143,77.1959641 12.058457,78.9506326 41.3295488,78.9506326 Z" id="Oval" fill="#826359"></path>
            <path d="M106.800004,29.200001 L106.800004,54.3999999 C106.800004,64.2797335 99.3559169,72.3999999 90,72.3999999 L19.2000005,72.3999999 C9.84408632,72.3999999 2.39999986,64.2797328 2.39999986,54.3999999 L2.39999986,18.3999999 C2.39999986,8.52026948 9.84408654,0.399999857 19.2000005,0.399999857 L27.6000009,0.399999857 C28.6684083,0.399999857 29.6816198,0.874562712 30.3655976,1.69533607 L30.6121392,1.99118604 C31.2587363,1.03134448 32.3556395,0.399999857 33.6000011,0.399999857 L90,0.399999857 C99.3559167,0.399999857 106.800004,8.52026879 106.800004,18.3999999 L106.800004,20.8000007 C106.800004,21.0451042 106.775217,21.2857336 106.727706,21.5191167 C106.775802,22.0756763 106.800004,22.6364058 106.800004,23.2000008 L106.800004,25.6000009 C106.800004,26.248441 106.626518,26.8655667 106.317741,27.400044 C106.627241,27.9359654 106.800004,28.5536889 106.800004,29.200001 Z" id="Path" fill="#18002D" fill-rule="nonzero"></path>
            <path d="M98.0571465,27.1428581 L103.200004,25.6000009 L103.200004,23.2000008 C103.200004,22.4004498 103.140393,21.6162103 103.025754,20.8522758 L103.200004,20.8000007 L103.200004,18.4000006 C103.200004,10.4414962 97.2939998,4 90,4 L33.6000011,4 L33.6000011,11.2000003 L27.6000009,4 L19.2000005,4 C11.9060041,4 6,10.4414962 6,18.4000006 L6,54.400002 C6,62.3585064 11.9060041,68.8000002 19.2000005,68.8000002 L90,68.8000002 C97.2939998,68.8000002 103.200004,62.3585064 103.200004,54.400002 L103.200004,29.200001 L98.0571465,27.1428581 Z" id="Path" fill="#826359" fill-rule="nonzero"></path>
            <path d="M95.1361489,23.946204 L103.200004,28.7845672 L103.200004,49.6125179 C103.200004,57.5585062 97.2939998,64 90.0085746,64 L19.1914293,64 C11.9060041,64 6,57.5585062 6,49.6125179 L6,39.5343298 L11.7348189,36.0413727 L6,36.0413727 L6,18.3874845 C6,10.4414962 11.9060041,4 19.1914293,4 L28.1329565,4 L33.6194394,11.611028 L33.6194394,4 L90.0085746,4 C97.2939998,4 103.200004,10.4414962 103.200004,18.3874845 L103.200004,21.3261529 L95.1361489,23.946204 Z" id="Path-Copy" fill="#E1C7A7"></path>
        </g>
    </g>
</svg>