<?xml version="1.0" encoding="UTF-8"?>
<svg width="703px" height="69px" viewBox="0 0 703 69" version="1.1" xmlns="http://www.w3.org/2000/svg" xmlns:xlink="http://www.w3.org/1999/xlink">
    <!-- Generator: Sketch 55.2 (78181) - https://sketchapp.com -->
    <title>Group 8</title>
    <desc>Created with Sketch.</desc>
    <g id="Page-1" stroke="none" stroke-width="1" fill="none" fill-rule="evenodd">
        <g id="Group-8">
            <path d="M51.1030651,0.0742516496 C53.3414528,-0.0640284338 56.3497793,-0.00285886711 63,0.205330032 L63,0.369696345 C159.104835,2.68683789 274.957409,3.84537141 352,3.84537141 C430.65987,3.83513926 549.166439,2.62768785 646,0.222877479 L646,0.0379467519 C648.757843,-0.0208794077 650.481355,-0.0131981462 651.896935,0.0742516496 C652.78997,0.051408623 653.681018,0.0284618177 654.570028,0.00541123371 L654.778728,2.84217094e-14 L654.986165,0.0235476853 C659.44225,0.52938937 662.115198,1.96343539 664.459431,5.09526121 C664.943194,5.57429928 665.417582,6.09346944 665.88658,6.65521697 L666.171587,6.99658746 L666.345308,7.40595757 C666.593471,7.99074875 666.833495,8.57563873 667.065375,9.16062557 C670.045866,8.02475019 673.231903,7.43121201 676.5,7.43121201 C691.135546,7.43121201 703,19.2956661 703,33.931212 C703,34.0218348 702.999545,34.1123513 702.998637,34.2027594 C702.999545,34.2931675 703,34.383684 703,34.4743067 C703,49.1098526 691.135546,60.9743067 676.5,60.9743067 C673.231903,60.9743067 670.045866,60.3807685 667.065375,59.2448931 C666.833495,59.82988 666.593471,60.41477 666.345308,60.9995611 L666.171587,61.4089312 L665.88658,61.7503017 C665.417582,62.3120493 664.943194,62.8312194 664.459431,63.3102575 C662.115198,66.4420833 659.44225,67.8761293 654.986165,68.381971 L654.778728,68.4055187 L654.570028,68.4001075 C653.681018,68.3770569 652.78997,68.3541101 651.896935,68.3312671 C650.481355,68.4187169 648.757843,68.4263981 646,68.367572 L646,68.1826412 C549.166439,65.7778309 430.65987,64.5703794 352,64.5601473 C274.957409,64.5601473 159.104835,65.7186808 62.9999166,68.0358244 L63,68.2001887 C56.3497793,68.4083776 53.3414528,68.4695471 51.1030651,68.3312671 C50.2100302,68.3541101 49.3189825,68.3770569 48.4299716,68.4001075 L48.2212721,68.4055187 L48.0138347,68.381971 C43.5577499,67.8761293 40.8848021,66.4420833 38.540569,63.3102575 C38.0568063,62.8312194 37.5824183,62.3120493 37.1134203,61.7503017 L36.8284132,61.4089312 L36.6546922,60.9995611 C36.4065292,60.41477 36.166505,59.82988 35.9346249,59.2448931 C32.9541336,60.3807685 29.7680972,60.9743067 26.5,60.9743067 C11.8644541,60.9743067 0,49.1098526 0,34.4743067 C0,34.383684 0.000454887869,34.2931675 0.00136250482,34.2027594 C0.000454887869,34.1123513 0,34.0218348 0,33.931212 C0,19.2956661 11.8644541,7.43121201 26.5,7.43121201 C29.7680972,7.43121201 32.9541336,8.02475019 35.9346249,9.16062557 C36.166505,8.57563873 36.4065292,7.99074875 36.6546922,7.40595757 L36.8284132,6.99658746 L37.1134203,6.65521697 C37.5824183,6.09346944 38.0568063,5.57429928 38.540569,5.09526121 C40.8848021,1.96343539 43.5577499,0.52938937 48.0138347,0.0235476853 L48.2212721,2.84217094e-14 L48.4299716,0.00541123371 C49.3189825,0.0284618177 50.2100302,0.051408623 51.1030651,0.0742516496 Z" id="Combined-Shape" fill="#18002D" fill-rule="nonzero"></path>
            <g id="Group-6" transform="translate(3.000000, 3.000000)">
                <g id="Group-3" transform="translate(0.000000, 7.969903)">
                    <circle id="Oval" fill="#FFE370" cx="23.5" cy="23.5" r="23.5"></circle>
                    <path d="M6.18886406,28.5745573 C8.38080623,29.8646841 10.9353842,30.6046512 13.6627907,30.6046512 C21.8122017,30.6046512 28.4186047,23.9982482 28.4186047,15.8488372 C28.4186047,11.8055801 26.7923995,8.14214361 24.1583718,5.47691016 C33.8137815,5.82338363 41.5348837,13.7600118 41.5348837,23.5 C41.5348837,33.4603912 33.4603912,41.5348837 23.5,41.5348837 C15.3015606,41.5348837 8.38081839,36.0644114 6.18886406,28.5745573 Z" id="Combined-Shape" fill="#FFC770"></path>
                    <circle id="Oval" fill="#FFFFFF" cx="11.4767442" cy="14.755814" r="6.01162791"></circle>
                </g>
                <g id="Group-3" transform="translate(673.500000, 31.469903) scale(-1, 1) translate(-673.500000, -31.469903) translate(650.000000, 7.969903)">
                    <circle id="Oval" fill="#FFE370" cx="23.5" cy="23.5" r="23.5"></circle>
                    <path d="M6.18886406,28.5745573 C8.38080623,29.8646841 10.9353842,30.6046512 13.6627907,30.6046512 C21.8122017,30.6046512 28.4186047,23.9982482 28.4186047,15.8488372 C28.4186047,11.8055801 26.7923995,8.14214361 24.1583718,5.47691016 C33.8137815,5.82338363 41.5348837,13.7600118 41.5348837,23.5 C41.5348837,33.4603912 33.4603912,41.5348837 23.5,41.5348837 C15.3015606,41.5348837 8.38081839,36.0644114 6.18886406,28.5745573 Z" id="Combined-Shape" fill="#FFC770"></path>
                    <circle id="Oval" fill="#FFFFFF" cx="11.4767442" cy="14.755814" r="6.01162791"></circle>
                </g>
                <path d="M651.647787,-7.10542736e-15 C657.151012,0.624709988 658.98616,3.10140043 661.310477,7.63283755 C664.436826,15.5484302 666,23.4511404 666,31.3409681 C666,39.820176 664.19456,48.314263 660.583681,56.8232291 C654.019724,64.685282 647.309528,61.9257062 622.33729,61.905923 C540.177781,59.8712501 426.686847,58.8496167 348.993355,58.8410228 C271.276497,58.8409681 157.170712,59.8626197 74.6627104,61.905923 C49.6904716,61.9257062 42.9802759,64.685282 36.4163191,56.8232291 C32.8054397,48.314263 31,39.820176 31,31.3409681 C31,23.4511404 32.5631745,15.5484302 35.6895234,7.63283755 C38.0138402,3.10140043 39.8489875,0.624709988 45.3522127,-7.10542736e-15 C144.110734,2.56064539 267.986685,3.84096809 348.993355,3.84096809 C430.016678,3.83057253 553.28939,2.55027085 651.647787,-7.10542736e-15 Z" id="Path" fill="#F8E7D2"></path>
            </g>
        </g>
    </g>
</svg>