<?xml version="1.0" encoding="UTF-8"?>
<svg width="1126px" height="90px" viewBox="0 0 1126 90" version="1.1" xmlns="http://www.w3.org/2000/svg" xmlns:xlink="http://www.w3.org/1999/xlink">
    <!-- Generator: Sketch 59.1 (86144) - https://sketch.com -->
    <title>Group 8 Copy</title>
    <desc>Created with Sketch.</desc>
    <g id="Page-1" stroke="none" stroke-width="1" fill="none" fill-rule="evenodd">
        <g id="Group-8-Copy" transform="translate(563.500000, 44.500000) scale(1, -1) translate(-563.500000, -44.500000) translate(31.000000, 3.000000)">
            <g id="Group-6">
                <g id="Group-3" transform="translate(31.500000, 41.100002) scale(1, -1) translate(-31.500000, -41.100002) translate(0.000000, 9.600002)">
                    <circle id="Oval" stroke="#18002D"  vector-effect="non-scaling-stroke"  stroke-width="3" fill="#FFE370" cx="31.0200019" cy="31.0200019" r="32.6700019"></circle>
                    <path d="M31.8888499,7.22951458 C44.6340862,7.68675571 54.8260499,18.1631485 54.8260499,31.0200019 C54.8260499,44.1677192 44.1677192,54.8260499 31.0200019,54.8260499 C20.1980831,54.8260499 11.0627179,47.6050552 8.16931861,37.718478 C11.0621631,39.4212401 14.4344401,40.398142 18.0348848,40.398142 C28.792108,40.398142 37.5125604,31.6776896 37.5125604,20.9204664 C37.5125604,15.6562933 35.4242312,10.8798757 32.0308322,7.37447306 Z" id="Combined-Shape" fill="#FFC770"></path>
                    <circle id="Oval" fill="#FFFFFF" cx="15.1493033" cy="19.4776756" r="7.93534932"></circle>
                </g>
                <g id="Group-3" transform="translate(1033.300023, 41.100002) scale(-1, -1) translate(-1033.300023, -41.100002) translate(1001.800023, 9.600002)">
                    <circle id="Oval" stroke="#18002D"  vector-effect="non-scaling-stroke"  stroke-width="3" fill="#FFE370" cx="31.0200019" cy="31.0200019" r="32.6700019"></circle>
                    <path d="M31.8888499,7.22951458 C44.6340862,7.68675571 54.8260499,18.1631485 54.8260499,31.0200019 C54.8260499,44.1677192 44.1677192,54.8260499 31.0200019,54.8260499 C20.1980831,54.8260499 11.0627179,47.6050552 8.16931861,37.718478 C11.0621631,39.4212401 14.4344401,40.398142 18.0348848,40.398142 C28.792108,40.398142 37.5125604,31.6776896 37.5125604,20.9204664 C37.5125604,15.6562933 35.4242312,10.8798757 32.0308322,7.37447306 Z" id="Combined-Shape" fill="#FFC770"></path>
                    <circle id="Oval" fill="#FFFFFF" cx="15.1493033" cy="19.4776756" r="7.93534932"></circle>
                </g>
                <path d="M997.732365,-1.64226179 C1005.92548,-0.845964941 1009.43205,1.79378436 1013.88546,9.22737212 L1013.9683,9.38418741 C1018.88581,20.0441748 1021.35002,30.7104092 1021.35002,41.3700804 C1021.35002,52.8247335 1018.50465,64.2861177 1012.82788,75.739415 L1012.71239,75.9724239 L1012.53083,76.1586141 C1008.30495,80.4922511 1003.94044,82.6148644 997.645969,83.4785849 C992.653622,84.16363 989.878667,84.15392 972.71199,83.6853981 C964.934607,83.4731337 959.107929,83.3703846 952.348833,83.3654527 C835.317174,80.8840051 663.805894,79.332736 530.960633,79.3201549 C398.052694,79.3200748 225.567637,80.873726 108.017332,83.3658231 C101.292094,83.3703846 95.4654162,83.4731337 87.6880335,83.6853981 C70.5213556,84.15392 67.7464012,84.16363 62.7540538,83.4785849 C56.4595879,82.6148644 52.095076,80.4922511 47.8691945,76.1586141 L47.687634,75.9724239 L47.5721441,75.739415 C41.8953684,64.2861177 39.0500008,52.8247335 39.0500008,41.3700804 C39.0500008,30.7104092 41.5142098,20.0441748 46.4317251,9.38418741 L46.5145613,9.22737212 C50.9679732,1.79378436 54.4745468,-0.845964941 62.6676579,-1.64226179 L62.8638909,-1.64959362 C203.858655,1.48039551 392.979651,3.42007815 530.960452,3.42007816 C668.949198,3.40492 857.100157,1.46799076 997.536132,-1.64959362 L997.732365,-1.64226179 Z" id="Path" stroke="#18002D" stroke-width="3"  vector-effect="non-scaling-stroke"  fill="#F8E7D2"></path>
            </g>
        </g>
    </g>
</svg>