<?xml version="1.0" encoding="UTF-8"?>
<svg width="730px" height="730px" viewBox="0 0 730 730" version="1.1" xmlns="http://www.w3.org/2000/svg" xmlns:xlink="http://www.w3.org/1999/xlink">
    <!-- Generator: Sketch 55.2 (78181) - https://sketchapp.com -->
    <title>Group 10</title>
    <desc>Created with Sketch.</desc>
    <defs>
        <path d="M175.939897,118.396422 L187.861489,99.769219 L182.987973,118.807006 C183.802806,118.850836 184.61879,118.893475 185.435898,118.934921 L195.669054,98.7565974 L199.352307,119.521406 C208.800754,119.839484 218.362628,120 228,120 C230.855878,120 233.705474,119.985904 236.547838,119.957779 L236.914804,119.954148 L237.259153,120.081037 C257.377509,127.494472 289.758159,132 325,132 C346.129073,132 366.345485,130.389398 383.663239,127.417113 L375.281876,108.092533 L393.733793,125.461869 C417.830573,120.191488 432,112.407589 432,105 C432,101.455624 428.69214,97.679068 422.10013,94.0767623 L418.579978,92.1531202 L422.234776,90.4995423 C441.748552,81.6707251 452,71.7912331 452,62 C452,52.8337414 443.019772,43.5807305 425.791606,35.1713198 L395.562807,35.1713198 L411.091393,28.9489098 C369.279232,13.4579066 301.680661,4 228,4 C159.708909,4 96.525695,12.1172349 54.2131882,25.739629 L77.3176984,31.2312525 L39.0429765,31.2312525 C16.1711126,40.5876939 4,51.3335885 4,62 C4,72.5147734 15.8271825,83.1100203 38.0945567,92.3774144 L60.0068247,87.2770355 L50.9836826,93.3498967 L47.2124887,95.8880203 C78.6544764,107.113395 124.205704,115.149744 175.939897,118.396422 Z" id="path-1"></path>
    </defs>
    <g id="Page-1" stroke="none" stroke-width="1" fill="none" fill-rule="evenodd">
        <g id="Artboard" transform="translate(-109.000000, -1420.000000)">
            <g id="Group-10" transform="translate(109.000000, 1420.000000)">
                <g id="Group-7" fill="#18002D">
                    <rect id="Rectangle" x="0" y="0" width="730" height="730"></rect>
                </g>
                <g id="Group-9" transform="translate(155.000000, 134.000000)" fill="#1E0C44">
                    <g id="Group-8" transform="translate(28.019967, 0.000000)">
                        <path d="M19.0608944,115.687929 L19.0608944,207.163219 C19.0608944,212.422544 14.7939679,216.68607 9.53044721,216.68607 C4.26692656,216.68607 -1.59872116e-14,212.422544 -1.59872116e-14,207.163219 L-1.59872116e-14,115.687929 C-1.59872116e-14,110.428604 4.26692656,106.165077 9.53044721,106.165077 C14.7939679,106.165077 19.0608944,110.428604 19.0608944,115.687929 Z M19.0608944,234.443495 L19.0608944,325.918784 C19.0608944,331.17811 14.7939679,335.441636 9.53044721,335.441636 C4.26692656,335.441636 -1.59872116e-14,331.17811 -1.59872116e-14,325.918784 L-1.59872116e-14,234.443495 C-1.59872116e-14,229.184169 4.26692656,224.920643 9.53044721,224.920643 C14.7939679,224.920643 19.0608944,229.184169 19.0608944,234.443495 Z M69.5162032,35.0237718 C74.7797238,35.0237718 79.0466504,39.2872978 79.0466504,44.5466237 L79.0466504,169.464034 C79.0466504,174.72336 74.7797238,178.986886 69.5162032,178.986886 C64.2526825,178.986886 59.9857559,174.72336 59.9857559,169.464034 L59.9857559,44.5466237 C59.9857559,39.2872978 64.2526825,35.0237718 69.5162032,35.0237718 Z M126.138272,7.00475436 C131.401793,7.00475436 135.668719,11.2682804 135.668719,16.5276063 L135.668719,85.4388703 C135.668719,90.6981962 131.401793,94.9617222 126.138272,94.9617222 C120.874751,94.9617222 116.607825,90.6981962 116.607825,85.4388703 L116.607825,16.5276063 C116.607825,11.2682804 120.874751,7.00475436 126.138272,7.00475436 Z M154.168999,-1.42108547e-14 C159.43252,-1.42108547e-14 163.699446,4.26352604 163.699446,9.52285194 L163.699446,116.248097 C163.699446,121.507423 159.43252,125.770949 154.168999,125.770949 C148.905478,125.770949 144.638552,121.507423 144.638552,116.248097 L144.638552,9.52285194 C144.638552,4.26352604 148.905478,-1.42108547e-14 154.168999,-1.42108547e-14 Z M39.8036325,63.0427892 C45.0671531,63.0427892 49.3340797,67.3063153 49.3340797,72.5656412 L49.3340797,116.248097 C49.3340797,121.507423 45.0671531,125.770949 39.8036325,125.770949 C34.5401118,125.770949 30.2731852,121.507423 30.2731852,116.248097 L30.2731852,72.5656412 C30.2731852,67.3063153 34.5401118,63.0427892 39.8036325,63.0427892 Z M69.5162032,406.582942 C64.2526825,406.582942 59.9857559,402.319416 59.9857559,397.06009 L59.9857559,272.142679 C59.9857559,266.883353 64.2526825,262.619827 69.5162032,262.619827 C74.7797238,262.619827 79.0466504,266.883353 79.0466504,272.142679 L79.0466504,397.06009 C79.0466504,402.319416 74.7797238,406.582942 69.5162032,406.582942 Z M126.138272,434.601959 C120.874751,434.601959 116.607825,430.338433 116.607825,425.079107 L116.607825,356.167843 C116.607825,350.908517 120.874751,346.644991 126.138272,346.644991 C131.401793,346.644991 135.668719,350.908517 135.668719,356.167843 L135.668719,425.079107 C135.668719,430.338433 131.401793,434.601959 126.138272,434.601959 Z M98.1075448,413.587696 C92.8440241,413.587696 88.5770976,409.32417 88.5770976,404.064844 L88.5770976,325.358616 C88.5770976,320.09929 92.8440241,315.835764 98.1075448,315.835764 C103.371065,315.835764 107.637992,320.09929 107.637992,325.358616 L107.637992,404.064844 C107.637992,409.32417 103.371065,413.587696 98.1075448,413.587696 Z" id="Combined-Shape" opacity="0.482840402"></path>
                        <path d="M182.199726,0.700475436 C187.463247,0.700475436 191.730173,4.96400148 191.730173,10.2233274 L191.730173,169.464034 C191.730173,174.72336 187.463247,178.986886 182.199726,178.986886 C176.936205,178.986886 172.669279,174.72336 172.669279,169.464034 L172.669279,10.2233274 C172.669279,4.96400148 176.936205,0.700475436 182.199726,0.700475436 Z M182.199726,440.906238 C176.936205,440.906238 172.669279,436.642712 172.669279,431.383386 L172.669279,272.142679 C172.669279,266.883353 176.936205,262.619827 182.199726,262.619827 C187.463247,262.619827 191.730173,266.883353 191.730173,272.142679 L191.730173,431.383386 C191.730173,436.642712 187.463247,440.906238 182.199726,440.906238 Z M135.668719,234.443495 L135.668719,325.918784 C135.668719,331.17811 131.401793,335.441636 126.138272,335.441636 C120.874751,335.441636 116.607825,331.17811 116.607825,325.918784 L116.607825,234.443495 C116.607825,229.184169 120.874751,224.920643 126.138272,224.920643 C131.401793,224.920643 135.668719,229.184169 135.668719,234.443495 Z M50.4553087,145.824849 L50.4553087,295.781865 C50.4553087,301.814621 45.560893,306.705136 39.5233252,306.705136 C33.4857574,306.705136 28.5913416,301.814621 28.5913416,295.781865 L28.5913416,145.824849 C28.5913416,139.792092 33.4857574,134.901577 39.5233252,134.901577 C45.560893,134.901577 50.4553087,139.792092 50.4553087,145.824849 Z M98.1075448,28.0190174 C103.371065,28.0190174 107.637992,32.2825435 107.637992,37.5418694 L107.637992,116.248097 C107.637992,121.507423 103.371065,125.770949 98.1075448,125.770949 C92.8440241,125.770949 88.5770976,121.507423 88.5770976,116.248097 L88.5770976,37.5418694 C88.5770976,32.2825435 92.8440241,28.0190174 98.1075448,28.0190174 Z M154.168999,441.606713 C148.905478,441.606713 144.638552,437.343187 144.638552,432.083861 L144.638552,325.358616 C144.638552,320.09929 148.905478,315.835764 154.168999,315.835764 C159.43252,315.835764 163.699446,320.09929 163.699446,325.358616 L163.699446,432.083861 C163.699446,437.343187 159.43252,441.606713 154.168999,441.606713 Z M39.8036325,378.563924 C34.5401118,378.563924 30.2731852,374.300398 30.2731852,369.041072 L30.2731852,325.358616 C30.2731852,320.09929 34.5401118,315.835764 39.8036325,315.835764 C45.0671531,315.835764 49.3340797,320.09929 49.3340797,325.358616 L49.3340797,369.041072 C49.3340797,374.300398 45.0671531,378.563924 39.8036325,378.563924 Z" id="Combined-Shape" opacity="0.806477865"></path>
                        <path d="M79.0466504,199.713094 L79.0466504,241.89362 C79.0466504,247.152946 74.7797238,251.416472 69.5162032,251.416472 C64.2526825,251.416472 59.9857559,247.152946 59.9857559,241.89362 L59.9857559,199.713094 C59.9857559,194.453768 64.2526825,190.190242 69.5162032,190.190242 C74.7797238,190.190242 79.0466504,194.453768 79.0466504,199.713094 Z M191.730173,199.713094 L191.730173,241.89362 C191.730173,247.152946 187.463247,251.416472 182.199726,251.416472 C176.936205,251.416472 172.669279,247.152946 172.669279,241.89362 L172.669279,199.713094 C172.669279,194.453768 176.936205,190.190242 182.199726,190.190242 C187.463247,190.190242 191.730173,194.453768 191.730173,199.713094 Z M135.668719,115.687929 L135.668719,207.163219 C135.668719,212.422544 131.401793,216.68607 126.138272,216.68607 C120.874751,216.68607 116.607825,212.422544 116.607825,207.163219 L116.607825,115.687929 C116.607825,110.428604 120.874751,106.165077 126.138272,106.165077 C131.401793,106.165077 135.668719,110.428604 135.668719,115.687929 Z M108.759221,145.824849 L108.759221,295.781865 C108.759221,301.814621 103.864805,306.705136 97.8272375,306.705136 C91.7896697,306.705136 86.8952539,301.814621 86.8952539,295.781865 L86.8952539,145.824849 C86.8952539,139.792092 91.7896697,134.901577 97.8272375,134.901577 C103.864805,134.901577 108.759221,139.792092 108.759221,145.824849 Z M164.820675,145.824849 L164.820675,295.781865 C164.820675,301.814621 159.926259,306.705136 153.888692,306.705136 C147.851124,306.705136 142.956708,301.814621 142.956708,295.781865 L142.956708,145.824849 C142.956708,139.792092 147.851124,134.901577 153.888692,134.901577 C159.926259,134.901577 164.820675,139.792092 164.820675,145.824849 Z" id="Combined-Shape"></path>
                        <path d="M219.621016,115.687929 L219.621016,207.163219 C219.621016,212.422544 215.354089,216.68607 210.090568,216.68607 C204.827048,216.68607 200.560121,212.422544 200.560121,207.163219 L200.560121,115.687929 C200.560121,110.428604 204.827048,106.165077 210.090568,106.165077 C215.354089,106.165077 219.621016,110.428604 219.621016,115.687929 Z M219.621016,234.443495 L219.621016,325.918784 C219.621016,331.17811 215.354089,335.441636 210.090568,335.441636 C204.827048,335.441636 200.560121,331.17811 200.560121,325.918784 L200.560121,234.443495 C200.560121,229.184169 204.827048,224.920643 210.090568,224.920643 C215.354089,224.920643 219.621016,229.184169 219.621016,234.443495 Z M270.076324,35.0237718 C275.339845,35.0237718 279.606772,39.2872978 279.606772,44.5466237 L279.606772,169.464034 C279.606772,174.72336 275.339845,178.986886 270.076324,178.986886 C264.812804,178.986886 260.545877,174.72336 260.545877,169.464034 L260.545877,44.5466237 C260.545877,39.2872978 264.812804,35.0237718 270.076324,35.0237718 Z M326.698393,7.00475436 C331.961914,7.00475436 336.22884,11.2682804 336.22884,16.5276063 L336.22884,85.4388703 C336.22884,90.6981962 331.961914,94.9617222 326.698393,94.9617222 C321.434872,94.9617222 317.167946,90.6981962 317.167946,85.4388703 L317.167946,16.5276063 C317.167946,11.2682804 321.434872,7.00475436 326.698393,7.00475436 Z M354.72912,-1.42108547e-14 C359.992641,-1.42108547e-14 364.259567,4.26352604 364.259567,9.52285194 L364.259567,116.248097 C364.259567,121.507423 359.992641,125.770949 354.72912,125.770949 C349.4656,125.770949 345.198673,121.507423 345.198673,116.248097 L345.198673,9.52285194 C345.198673,4.26352604 349.4656,-1.42108547e-14 354.72912,-1.42108547e-14 Z M240.363754,63.0427892 C245.627274,63.0427892 249.894201,67.3063153 249.894201,72.5656412 L249.894201,116.248097 C249.894201,121.507423 245.627274,125.770949 240.363754,125.770949 C235.100233,125.770949 230.833306,121.507423 230.833306,116.248097 L230.833306,72.5656412 C230.833306,67.3063153 235.100233,63.0427892 240.363754,63.0427892 Z M270.076324,406.582942 C264.812804,406.582942 260.545877,402.319416 260.545877,397.06009 L260.545877,272.142679 C260.545877,266.883353 264.812804,262.619827 270.076324,262.619827 C275.339845,262.619827 279.606772,266.883353 279.606772,272.142679 L279.606772,397.06009 C279.606772,402.319416 275.339845,406.582942 270.076324,406.582942 Z M326.698393,434.601959 C321.434872,434.601959 317.167946,430.338433 317.167946,425.079107 L317.167946,356.167843 C317.167946,350.908517 321.434872,346.644991 326.698393,346.644991 C331.961914,346.644991 336.22884,350.908517 336.22884,356.167843 L336.22884,425.079107 C336.22884,430.338433 331.961914,434.601959 326.698393,434.601959 Z M298.667666,413.587696 C293.404145,413.587696 289.137219,409.32417 289.137219,404.064844 L289.137219,325.358616 C289.137219,320.09929 293.404145,315.835764 298.667666,315.835764 C303.931187,315.835764 308.198113,320.09929 308.198113,325.358616 L308.198113,404.064844 C308.198113,409.32417 303.931187,413.587696 298.667666,413.587696 Z" id="Combined-Shape" opacity="0.482840402" transform="translate(282.409844, 217.300979) scale(-1, 1) translate(-282.409844, -217.300979) "></path>
                        <path d="M307.637499,234.443495 L307.637499,325.918784 C307.637499,331.17811 303.370572,335.441636 298.107051,335.441636 C292.843531,335.441636 288.576604,331.17811 288.576604,325.918784 L288.576604,234.443495 C288.576604,229.184169 292.843531,224.920643 298.107051,224.920643 C303.370572,224.920643 307.637499,229.184169 307.637499,234.443495 Z M222.424088,145.824849 L222.424088,295.781865 C222.424088,301.814621 217.529673,306.705136 211.492105,306.705136 C205.454537,306.705136 200.560121,301.814621 200.560121,295.781865 L200.560121,145.824849 C200.560121,139.792092 205.454537,134.901577 211.492105,134.901577 C217.529673,134.901577 222.424088,139.792092 222.424088,145.824849 Z M270.076324,28.0190174 C275.339845,28.0190174 279.606772,32.2825435 279.606772,37.5418694 L279.606772,116.248097 C279.606772,121.507423 275.339845,125.770949 270.076324,125.770949 C264.812804,125.770949 260.545877,121.507423 260.545877,116.248097 L260.545877,37.5418694 C260.545877,32.2825435 264.812804,28.0190174 270.076324,28.0190174 Z M326.137779,441.606713 C320.874258,441.606713 316.607331,437.343187 316.607331,432.083861 L316.607331,325.358616 C316.607331,320.09929 320.874258,315.835764 326.137779,315.835764 C331.401299,315.835764 335.668226,320.09929 335.668226,325.358616 L335.668226,432.083861 C335.668226,437.343187 331.401299,441.606713 326.137779,441.606713 Z M211.772412,378.563924 C206.508891,378.563924 202.241965,374.300398 202.241965,369.041072 L202.241965,325.358616 C202.241965,320.09929 206.508891,315.835764 211.772412,315.835764 C217.035933,315.835764 221.302859,320.09929 221.302859,325.358616 L221.302859,369.041072 C221.302859,374.300398 217.035933,378.563924 211.772412,378.563924 Z" id="Combined-Shape" opacity="0.806477865" transform="translate(268.114174, 234.812865) scale(-1, 1) translate(-268.114174, -234.812865) "></path>
                        <path d="M218.499787,199.713094 L218.499787,241.89362 C218.499787,247.152946 214.23286,251.416472 208.969339,251.416472 C203.705819,251.416472 199.438892,247.152946 199.438892,241.89362 L199.438892,199.713094 C199.438892,194.453768 203.705819,190.190242 208.969339,190.190242 C214.23286,190.190242 218.499787,194.453768 218.499787,199.713094 Z M275.121855,115.687929 L275.121855,207.163219 C275.121855,212.422544 270.854929,216.68607 265.591408,216.68607 C260.327887,216.68607 256.060961,212.422544 256.060961,207.163219 L256.060961,115.687929 C256.060961,110.428604 260.327887,106.165077 265.591408,106.165077 C270.854929,106.165077 275.121855,110.428604 275.121855,115.687929 Z M248.212357,145.824849 L248.212357,295.781865 C248.212357,301.814621 243.317942,306.705136 237.280374,306.705136 C231.242806,306.705136 226.34839,301.814621 226.34839,295.781865 L226.34839,145.824849 C226.34839,139.792092 231.242806,134.901577 237.280374,134.901577 C243.317942,134.901577 248.212357,139.792092 248.212357,145.824849 Z M304.273811,145.824849 L304.273811,295.781865 C304.273811,301.814621 299.379396,306.705136 293.341828,306.705136 C287.30426,306.705136 282.409844,301.814621 282.409844,295.781865 L282.409844,145.824849 C282.409844,139.792092 287.30426,134.901577 293.341828,134.901577 C299.379396,134.901577 304.273811,139.792092 304.273811,145.824849 Z" id="Combined-Shape" transform="translate(251.856352, 206.435107) scale(-1, 1) translate(-251.856352, -206.435107) "></path>
                    </g>
                    <path d="M19.0608944,209.713094 L19.0608944,251.89362 C19.0608944,257.152946 14.7939679,261.416472 9.53044721,261.416472 C4.26692656,261.416472 0,257.152946 0,251.89362 L0,209.713094 C0,204.453768 4.26692656,200.190242 9.53044721,200.190242 C14.7939679,200.190242 19.0608944,204.453768 19.0608944,209.713094 Z" id="Path-Copy" opacity="0.318196615"></path>
                    <path d="M420.446918,209.713094 L420.446918,251.89362 C420.446918,257.152946 416.179991,261.416472 410.916471,261.416472 C405.65295,261.416472 401.386023,257.152946 401.386023,251.89362 L401.386023,209.713094 C401.386023,204.453768 405.65295,200.190242 410.916471,200.190242 C416.179991,200.190242 420.446918,204.453768 420.446918,209.713094 Z" id="Path-Copy-2" opacity="0.318196615"></path>
                </g>
                <g id="Group-21" transform="translate(119.000000, 184.000000)">
                    <g id="Group-13" transform="translate(0.000000, 92.000000)">
                        <g id="Group-20" transform="translate(0.000000, 104.000000)" fill="#18002D">
                            <rect id="Rectangle" fill-opacity="0.364483173" x="0" y="6" width="147" height="26"></rect>
                            <rect id="Rectangle" x="0" y="0" width="147" height="19"></rect>
                        </g>
                        <g id="Group-19">
                            <g id="Group-15" transform="translate(34.000000, 0.000000)">
                                <path d="M61.0392651,88.136338 C62.7445342,88.5938873 64,90.1503288 64,92 C64,94.209139 62.209139,96 60,96 L17,96 C14.790861,96 13,94.209139 13,92 C13,90.4033875 13.9354377,89.0252581 15.288148,88.383777 C13.8379912,87.3001001 12.4476195,86.0994231 11.1299423,84.7817459 C-3.70998077,69.9418228 -3.70998077,45.8815536 11.1299423,31.0416306 C22.4739186,19.6976542 39.2057332,17.0252726 53.0882126,23.0244858 L64.5165043,11.5961941 C64.6513198,11.4613786 64.7881296,11.3297727 64.9268386,11.2013766 C62.8641092,8.4591151 63.0808845,4.5465325 65.5771645,2.05025253 C68.3108345,-0.683417511 72.7429894,-0.683417511 75.4766594,2.05025253 L94.5685425,21.1421356 C97.3022125,23.8758057 97.3022125,28.3079605 94.5685425,31.0416306 C92.0722625,33.5379105 88.1596799,33.7546858 85.4174184,31.6919564 C85.2890223,31.8306655 85.1574165,31.9674752 85.0226009,32.1022907 L73.3021402,43.8227515 C78.7538414,57.5019725 75.9431472,73.7086564 64.8700577,84.7817459 C63.651858,85.9999456 62.3715256,87.118144 61.0392612,88.1363413 Z" id="Combined-Shape" fill="#4D4F5E"></path>
                                <path d="M5.13067792,59.8406204 L71.0114577,59.8406204 C69.9776006,77.1347406 55.6249241,90.8406204 38.0710678,90.8406204 C20.5172116,90.8406204 6.16453507,77.1347406 5.13067792,59.8406204 Z" id="Combined-Shape" fill="#284B3D"></path>
                                <ellipse id="Oval" fill="#48584A" cx="38.0710678" cy="59.3406204" rx="33" ry="9.5"></ellipse>
                                <rect id="Rectangle" fill="#5A5569" transform="translate(81.487067, 13.717514) rotate(45.000000) translate(-81.487067, -13.717514) " x="66.987067" y="11.7175144" width="29" height="4" rx="2"></rect>
                                <circle id="Oval" fill="#5A5569" transform="translate(26.571068, 46.340620) rotate(45.000000) translate(-26.571068, -46.340620) " cx="26.5710678" cy="46.3406204" r="16.5"></circle>
                                <circle id="Oval" fill="#6D5E7A" transform="translate(26.686292, 45.890873) rotate(45.000000) translate(-26.686292, -45.890873) " cx="26.6862915" cy="45.890873" r="11.5"></circle>
                                <circle id="Oval-Copy-2" fill="#465357" transform="translate(54.813708, 72.583261) rotate(45.000000) translate(-54.813708, -72.583261) " cx="54.8137085" cy="72.5832611" r="10.5"></circle>
                            </g>
                            <rect id="Rectangle" fill="#1E0C44" x="0" y="96" width="147" height="16" rx="8"></rect>
                        </g>
                        <rect id="Rectangle-Copy" fill="#29184D" x="15" y="96" width="118" height="5" rx="2.5"></rect>
                    </g>
                    <g id="Group-18" transform="translate(293.000000, 0.000000)">
                        <g id="Group-16" transform="translate(30.000000, 37.053766)">
                            <g id="Group-12-Copy">
                                <path d="M50.2541791,82.286246 C50.7213776,82.8811356 51,83.6311472 51,84.4462345 C51,86.3792311 49.4329966,87.9462345 47.5,87.9462345 L33.8706126,87.9462345 C33.2516277,87.981914 32.6279259,88 32,88 C31.3720741,88 30.7483723,87.981914 30.1293874,87.9462345 L16.5,87.9462345 C14.5670034,87.9462345 13,86.3792311 13,84.4462345 C13,83.6311472 13.2786224,82.8811356 13.7458209,82.286246 C5.4378305,76.5060178 0,66.8880456 0,56 C0,42.5704898 8.27267865,31.0731672 20,26.3260682 L20,12 C20,11.9723409 20.0000936,11.9447037 20.0002804,11.9170886 C17.1624291,11.4411261 15,8.97309422 15,6 C15,2.6862915 17.6862915,-2.25876779e-13 21,-2.27373675e-13 L43,-2.27373675e-13 C46.3137085,-2.27982394e-13 49,2.6862915 49,6 C49,8.97309422 46.8375709,11.4411261 43.9997196,11.9170886 C43.9999064,11.9447037 44,11.9723409 44,12 L44,26.3260682 C55.7273213,31.0731672 64,42.5704898 64,56 C64,66.8880456 58.5621695,76.5060178 50.2541791,82.286246 Z" id="Combined-Shape" fill="#62496E"></path>
                                <path d="M4.06907224,57 L58.9309278,57 C57.9237471,71.5305512 46.0273721,83 31.5,83 C16.9726279,83 5.07625286,71.5305512 4.06907224,57 Z" id="Combined-Shape" fill="#551967"></path>
                                <ellipse id="Oval" fill="#672E6E" cx="31.5" cy="57" rx="27.5" ry="8"></ellipse>
                                <path d="M22.5,1 L41.5,1 C42.3284271,1 43,1.67157288 43,2.5 C43,3.32842712 42.3284271,4 41.5,4 L22.5,4 C21.6715729,4 21,3.32842712 21,2.5 C21,1.67157288 21.6715729,1 22.5,1 Z" id="Rectangle" fill="#665275"></path>
                                <circle id="Oval" fill="#665275" transform="translate(22.836655, 45.836655) rotate(45.000000) translate(-22.836655, -45.836655) " cx="22.8366552" cy="45.8366552" r="14.0266334"></circle>
                                <circle id="Oval" fill="#6E6181" transform="translate(22.885659, 45.885659) rotate(45.000000) translate(-22.885659, -45.885659) " cx="22.8856587" cy="45.8856587" r="9.8186434"></circle>
                                <circle id="Oval-Copy-2" fill="#5F376F" transform="translate(44.397910, 68.397910) rotate(45.000000) translate(-44.397910, -68.397910) " cx="44.3979095" cy="68.3979095" r="8.76664589"></circle>
                            </g>
                        </g>
                        <rect id="Rectangle" fill-opacity="0.364483173" fill="#18002D" x="0" y="141" width="226" height="26"></rect>
                        <rect id="Rectangle" fill="#18002D" x="0" y="133" width="226" height="21"></rect>
                        <g id="Group-14" transform="translate(105.892816, 0.000000)">
                            <g id="Group-12" transform="translate(0.000000, 0.000000)">
                                <path d="M71.8442049,116.678072 C72.629885,117.56129 73.1071843,118.724905 73.1071843,120 C73.1071843,122.761424 70.868608,125 68.1071843,125 L23.1071843,125 C20.3457605,125 18.1071843,122.761424 18.1071843,120 C18.1071843,118.724905 18.5844835,117.56129 19.3701636,116.678072 C7.71626022,108.438742 0.107184268,94.8579682 0.107184268,79.5 C0.107184268,60.1909029 12.135043,43.6910628 29.1071843,37.0840559 L29.1071843,17.5 C29.1071843,17.2891215 29.1109142,17.0791142 29.1183117,16.8700404 C25.1338014,16.1660807 22.1071843,12.6864925 22.1071843,8.5 C22.1071843,3.80557963 25.9127639,5.06003425e-14 30.6071843,4.97379915e-14 L62.6071843,4.97379915e-14 C67.3016046,4.88756405e-14 71.1071843,3.80557963 71.1071843,8.5 C71.1071843,12.6864925 68.0805671,16.1660807 64.0960568,16.8700404 C64.1034543,17.0791142 64.1071843,17.2891215 64.1071843,17.5 L64.1071843,37.9183699 C80.0165141,45.0072081 91.1071843,60.9584216 91.1071843,79.5 C91.1071843,94.8579682 83.4981083,108.438742 71.8442049,116.678072 Z" id="Combined-Shape" fill="#4E4F6C"></path>
                                <path d="M6.07783368,82 L84.9221663,82 C83.6324398,102.650486 66.4755368,119 45.5,119 C24.5244632,119 7.36756016,102.650486 6.07783368,82 Z" id="Combined-Shape" fill="#284867"></path>
                                <ellipse id="Oval" fill="#3D5871" cx="45.5" cy="81.5" rx="39.5" ry="11.5"></ellipse>
                                <path d="M31.3999999,2 L61.6000001,2 C62.9254835,2 64,3.07451654 64,4.39999986 L64,4.60000014 C64,5.92548346 62.9254835,7 61.6000001,7 L31.3999999,7 C30.0745165,7 29,5.92548346 29,4.60000014 L29,4.39999986 C29,3.07451654 30.0745165,2 31.3999999,2 Z" id="Rectangle" fill="#5A5572"></path>
                                <circle id="Oval" fill="#5A5572" transform="translate(32.284271, 66.284271) rotate(45.000000) translate(-32.284271, -66.284271) " cx="32.2842712" cy="66.2842712" r="20"></circle>
                                <circle id="Oval" fill="#6D5E7A" transform="translate(31.798990, 65.798990) rotate(45.000000) translate(-31.798990, -65.798990) " cx="31.7989899" cy="65.7989899" r="14"></circle>
                                <circle id="Oval-Copy-2" fill="#46516F" transform="translate(65.677670, 97.677670) rotate(45.000000) translate(-65.677670, -97.677670) " cx="65.6776695" cy="97.6776695" r="12.5"></circle>
                            </g>
                        </g>
                        <g id="Group-17" transform="translate(0.000000, 125.000000)">
                            <rect id="Rectangle-Copy" fill="#1E0C44" x="0" y="0" width="226" height="16" rx="8"></rect>
                            <rect id="Rectangle-Copy" fill="#29184D" x="13" y="0" width="199" height="5" rx="2.5"></rect>
                        </g>
                    </g>
                </g>
                <g id="Group-24" transform="translate(137.000000, 481.000000)">
                    <polygon id="Combined-Shape" fill="#442532" points="428 62 456 62 456 249 428 249"></polygon>
                    <polygon id="Combined-Shape" fill="#67403F" points="32 67 237 67 237 249 32 249"></polygon>
                    <polygon id="Combined-Shape" fill="#67403F" points="425 65 446 65 446 249 425 249"></polygon>
                    <polygon id="Combined-Shape" fill="#442532" points="0 62 11 62 11 249 0 249"></polygon>
                    <polygon id="Combined-Shape" fill="#5A3635" points="11 63 32 63 32 249 11 249"></polygon>
                    <polygon id="Combined-Shape" fill="#7F5655" points="237 104 436 104 436 249 237 249"></polygon>
                    <g id="Group-23" transform="translate(0.000002, 0.000000)">
                        <polygon id="Path-3" fill="#442532" points="186.534458 122.994735 194.967873 165 198.719413 122.994735 192.626936 101.681464"></polygon>
                        <polygon id="Path-4" fill="#442532" points="37.7529433 96.5638582 40.7924165 127.5 44.8089374 95"></polygon>
                        <polygon id="Path-5" fill="#67403F" points="395.170661 127.5 389.348799 161.199732 384.749287 127.5 384.749287 113"></polygon>
                        <g id="Group-22">
                            <path d="M176.868015,122.461647 C122.23529,119.115535 74.3058478,110.459851 42.1401186,98.2850931 L38.5217945,96.9155541 L39.7271128,96.1043434 L37.7529433,96.5638582 L37.1612738,96.3202431 C13.153262,86.4351403 0,74.753838 0,62 C0,49.1160899 13.4233562,37.3260022 37.8978248,27.3784461 L38.2599728,27.2312525 L43.191035,27.2312525 L39.9193959,26.453629 L46.3046777,24.189471 C88.9645074,9.06271579 155.656844,0 228,0 C304.990707,0 375.433052,10.2717421 417.303488,27.0560631 L421.935398,28.9128257 L416.299122,31.1713198 L426.710047,31.1713198 L427.122605,31.3708642 C445.857355,40.432425 456,50.8018539 456,62 C456,73.1626189 445.924072,83.501411 427.306573,92.540163 C432.951197,96.2824276 436,100.45496 436,105 C436,115.32118 420.129377,123.924553 393.545641,129.594738 L392.520689,129.813355 L386.676569,124.312112 L389.343591,130.461359 L386.864508,130.912973 C368.763821,134.210366 347.380052,136 325,136 C289.522793,136 256.860718,131.482836 236.222106,123.961123 C233.487713,123.987021 230.746735,124 228,124 C217.765605,124 207.615503,123.819811 197.594511,123.462914 L195.978803,123.405371 L193.821518,111.243403 L187.829735,123.058345 L186.534458,122.994735 C184.460169,122.892869 182.392925,122.78336 180.333179,122.666254 L177.906375,122.528279 L176.868015,122.461647 Z" id="Combined-Shape" fill="#E1C7A7" fill-rule="nonzero"></path>
                            <mask id="mask-2" fill="white">
                                <use xlink:href="#path-1"></use>
                            </mask>
                            <use id="Path" fill="#CBA779" fill-rule="nonzero" xlink:href="#path-1"></use>
                            <ellipse id="Oval-Copy-4" fill="#826359" opacity="0.160365513" mask="url(#mask-2)" cx="231" cy="58.5" rx="194" ry="54.5"></ellipse>
                            <ellipse id="Oval" fill="#826359" opacity="0.228515625" mask="url(#mask-2)" cx="231" cy="51.5" rx="151" ry="43.5"></ellipse>
                            <ellipse id="Oval" fill="#826359" opacity="0.389811198" mask="url(#mask-2)" cx="231" cy="49.5" rx="121" ry="32.5"></ellipse>
                        </g>
                    </g>
                </g>
            </g>
        </g>
    </g>
</svg>