<?xml version="1.0" encoding="UTF-8"?>
<svg width="1527px" height="817px" viewBox="0 0 1527 817" version="1.1" xmlns="http://www.w3.org/2000/svg" xmlns:xlink="http://www.w3.org/1999/xlink">
    <!-- Generator: Sketch 59.1 (86144) - https://sketch.com -->
    <title>Group</title>
    <desc>Created with Sketch.</desc>
    <defs>
        <linearGradient x1="48.607728%" y1="61.8270832%" x2="48.607728%" y2="7.76928388%" id="linearGradient-1">
            <stop stop-color="#8EE4F8" offset="0%"></stop>
            <stop stop-color="#86E0F9" offset="29.6546112%"></stop>
            <stop stop-color="#5CCBFB" offset="71.9025401%"></stop>
            <stop stop-color="#00A0FF" offset="100%"></stop>
        </linearGradient>
        <linearGradient x1="38.6356613%" y1="0%" x2="38.6356613%" y2="100%" id="linearGradient-2">
            <stop stop-color="#FFFFFF" offset="0%"></stop>
            <stop stop-color="#FFFFFF" stop-opacity="0" offset="100%"></stop>
        </linearGradient>
        <linearGradient x1="38.6356613%" y1="0%" x2="38.6356613%" y2="100%" id="linearGradient-3">
            <stop stop-color="#FFFFFF" offset="0%"></stop>
            <stop stop-color="#FFFFFF" stop-opacity="0" offset="100%"></stop>
        </linearGradient>
        <linearGradient x1="38.6356613%" y1="0%" x2="38.6356613%" y2="100%" id="linearGradient-4">
            <stop stop-color="#FFFFFF" offset="0%"></stop>
            <stop stop-color="#FFFFFF" stop-opacity="0" offset="100%"></stop>
        </linearGradient>
        <linearGradient x1="38.6356613%" y1="0%" x2="38.6356613%" y2="100%" id="linearGradient-5">
            <stop stop-color="#FFFFFF" offset="0%"></stop>
            <stop stop-color="#FFFFFF" stop-opacity="0" offset="100%"></stop>
        </linearGradient>
        <linearGradient x1="38.6356613%" y1="0%" x2="38.6356613%" y2="100%" id="linearGradient-6">
            <stop stop-color="#FFFFFF" offset="0%"></stop>
            <stop stop-color="#FFFFFF" stop-opacity="0" offset="100%"></stop>
        </linearGradient>
        <linearGradient x1="46.6660469%" y1="41.9893481%" x2="17.6308298%" y2="55.3480293%" id="linearGradient-7">
            <stop stop-color="#6AA9EB" offset="0%"></stop>
            <stop stop-color="#687FDD" offset="100%"></stop>
        </linearGradient>
        <linearGradient x1="65.1216592%" y1="40.5395309%" x2="31.3842455%" y2="63.8434104%" id="linearGradient-8">
            <stop stop-color="#8394DF" offset="0%"></stop>
            <stop stop-color="#687FDD" offset="100%"></stop>
        </linearGradient>
        <linearGradient x1="65.1216592%" y1="39.2064705%" x2="31.3842455%" y2="65.7940644%" id="linearGradient-9">
            <stop stop-color="#8394DF" offset="0%"></stop>
            <stop stop-color="#687FDD" offset="100%"></stop>
        </linearGradient>
        <linearGradient x1="50%" y1="0%" x2="50%" y2="100%" id="linearGradient-10">
            <stop stop-color="#00A0FF" stop-opacity="0" offset="0%"></stop>
            <stop stop-color="#168B67" offset="100%"></stop>
        </linearGradient>
    </defs>
    <g id="Page-1" stroke="none" stroke-width="1" fill="none" fill-rule="evenodd">
        <g id="Group-Copy-3" transform="translate(-92.000000, -1.000000)" fill-rule="nonzero">
            <rect id="Rectangle" fill="#FFFFFF" x="0.982400597" y="0.960005595" width="1702.27209" height="1232.77447"></rect>
            <rect id="Rectangle" fill="url(#linearGradient-1)" x="0.982400597" y="0.849660203" width="1702.27209" height="1005"></rect>
            <g id="Group-14" transform="translate(125.907207, 127.000000)">
                <g id="Group-12">
                    <g id="Group-10">
                        <path d="M388.406148,220.014548 C388.962633,219.445042 389.658298,219.047814 390.493143,218.822864 C391.758426,218.481931 393.077417,218.201714 394.412857,217.944513 C395.692337,217.600762 396.997088,217.309468 398.325211,217.073373 C399.251107,216.90878 400.175431,216.773315 401.097262,216.666324 C406.347105,215.498245 410.828836,213.65949 412.005745,208.583869 C412.431635,206.747145 413.346345,204.872484 414.749875,202.959888 C422.15063,173.24229 446.161238,149.190049 477.961563,143.537049 C512.915742,137.323402 546.567551,155.244075 562.173099,185.446998 C565.112306,188.943658 568.656787,191.651486 571.894495,192.74016 C590.620215,191.323418 607.856162,203.366573 613.202609,221.508238 C615.69997,226.084936 618.816702,227.494499 622.120758,227.358338 C624.540127,226.406423 627.087488,225.679874 629.742623,225.207884 C651.502143,221.339792 672.260025,236.033147 676.106649,258.02641 C676.112768,258.061397 676.118841,258.096383 676.124868,258.131365 C678.126844,269.577646 670.472059,280.479847 659.027425,282.482112 C657.830479,282.69152 656.617645,282.796815 655.402525,282.796815 L322.889238,282.796815 C328.484721,272.256196 338.635619,264.32268 351.199756,262.089209 C354.23695,261.549301 357.254629,261.371018 360.209529,261.523735 C360.753816,243.328802 371.848114,227.044671 388.406148,220.014548 L388.406148,220.014548 Z" id="Path" fill="url(#linearGradient-2)" opacity="0.313778832"></path>
                        <path d="M83.995677,98.7164726 C84.7390371,97.8551855 85.6999281,97.2648065 86.87835,96.9453356 C97.7835867,93.9889191 111.818557,94.5920307 114.302812,83.8127111 C114.765256,81.8061403 115.679792,79.7642688 117.04642,77.6870967 C126.340953,39.6360176 157.057117,8.7870899 197.796332,1.56086407 C239.470578,-5.83121533 279.693421,13.6140671 301.022937,47.5774777 C301.283688,47.76597 301.475334,47.9680225 301.597875,48.1836353 C306.25857,56.3841688 314.102371,63.1182711 320.395121,64.0496255 C341.196024,63.6281406 360.137033,76.1033145 368.268459,95.1539805 C368.665431,95.7801017 368.980111,96.3788994 369.203099,96.9453356 C372.7158,105.868337 377.5346,108.265313 382.672725,107.862135 C385.458273,106.836096 388.371687,106.041765 391.394624,105.505563 C419.149113,100.582537 445.626004,119.283171 450.532412,147.274597 C450.540216,147.319127 450.547963,147.363654 450.555649,147.408176 C453.108229,161.970683 443.373959,175.845499 428.813549,178.398448 C427.287472,178.666021 425.741045,178.800567 424.191694,178.800567 L-5.68434189e-14,178.800567 C7.13709588,165.385234 20.0846702,155.28803 36.1103545,152.445431 C39.9843261,151.758276 43.833407,151.53137 47.6024128,151.725737 C48.3013354,128.412399 62.6389993,107.563899 83.995677,98.7164726 L83.995677,98.7164726 Z" id="Path" fill="url(#linearGradient-3)" opacity="0.591773624"></path>
                    </g>
                </g>
                <g id="Group-12-Copy" transform="translate(1134.396080, 266.262408) scale(-1, 1) translate(-1134.396080, -266.262408) translate(799.896080, 148.262408)">
                    <g id="Group-10">
                        <path d="M449.345858,187.356786 C449.769365,186.92271 450.298795,186.619943 450.934147,186.448485 C451.897078,186.188627 452.900884,185.975045 453.917208,185.779006 C454.890945,185.517001 455.883913,185.294976 456.894669,185.115026 C457.599313,184.989574 458.302761,184.886321 459.004312,184.804773 C462.999656,183.914464 466.410436,182.512968 467.306112,178.644334 C467.630232,177.244385 468.326363,175.81552 469.394508,174.357741 C475.026782,151.707019 493.299833,133.374426 517.501174,129.065715 C544.102728,124.32968 569.713125,137.988798 581.589582,161.009435 C583.826439,163.674585 586.523934,165.738489 588.98796,166.568276 C603.238996,165.488437 616.356254,174.667716 620.425118,188.495275 C622.32571,191.983629 624.697671,193.057996 627.212192,192.954215 C629.05343,192.228667 630.992076,191.674892 633.012742,191.315141 C649.572622,188.366886 665.370215,199.566145 668.297653,216.329389 C668.30231,216.356055 668.306932,216.38272 668.311517,216.409384 C669.835104,225.133728 664.009501,233.443375 655.299668,234.969499 C654.388745,235.12911 653.465727,235.209365 652.540971,235.209365 L399.484822,235.209365 C403.743212,227.175316 411.468459,221.128397 421.030279,219.426049 C423.341707,219.014532 425.638283,218.878644 427.887083,218.995045 C428.301307,205.126886 436.74452,192.715138 449.345858,187.356786 L449.345858,187.356786 Z" id="Path" fill="url(#linearGradient-4)" opacity="0.313778832"></path>
                        <path d="M84.6847457,98.7164726 C85.4281058,97.8551855 86.388997,97.2648065 87.5674189,96.9453356 C98.4726555,93.9889191 112.507626,94.5920307 114.99188,83.8127111 C115.454324,81.8061403 116.368861,79.7642688 117.735489,77.6870967 C127.030022,39.6360176 157.746186,8.7870899 198.485401,1.56086407 C240.159647,-5.83121533 280.38249,13.6140671 301.712006,47.5774777 C301.972757,47.76597 302.164402,47.9680225 302.286944,48.1836353 C306.947639,56.3841688 314.791439,63.1182711 321.08419,64.0496255 C341.885093,63.6281406 360.826102,76.1033145 368.957527,95.1539805 C369.3545,95.7801017 369.66918,96.3788994 369.892168,96.9453356 C373.404868,105.868337 378.223668,108.265313 383.361794,107.862135 C386.147341,106.836096 389.060755,106.041765 392.083693,105.505563 C419.838182,100.582537 446.315072,119.283171 451.22148,147.274597 C451.229286,147.319127 451.237032,147.363654 451.244718,147.408176 C453.797298,161.970683 444.063028,175.845499 429.502618,178.398448 C427.97654,178.666021 426.430114,178.800567 424.880762,178.800567 L0.689068825,178.800567 C7.82616471,165.385234 20.7737391,155.28803 36.7994232,152.445431 C40.673395,151.758276 44.5224758,151.53137 48.2914816,151.725737 C48.9904043,128.412399 63.3280681,107.563899 84.6847457,98.7164726 L84.6847457,98.7164726 Z" id="Path" fill="url(#linearGradient-3)" opacity="0.591773624"></path>
                    </g>
                    <g id="Group-10-Copy-2" opacity="0.313778832" transform="translate(394.335227, 39.500000) scale(-1, 1) translate(-394.335227, -39.500000) translate(295.835227, 0.000000)" fill="url(#linearGradient-6)">
                        <path d="M36.3782048,43.2804117 C36.6871929,42.9632021 37.0734603,42.7419494 37.5370071,42.6166538 C38.2395539,42.4267571 38.9719231,42.2706778 39.7134243,42.1274193 C40.4238548,41.9359532 41.1483169,41.7737047 41.8857553,41.6422023 C42.3998581,41.5505257 42.9130882,41.4750724 43.4249344,41.4154794 C46.3399051,40.7648687 48.8283819,39.7406984 49.4818597,36.9136199 C49.7183348,35.8905801 50.2262269,34.84641 51.0055358,33.7811097 C55.1147976,17.2286591 68.4466661,3.83176411 86.1037674,0.683090651 C105.512044,-2.77785819 124.19718,7.2038054 132.862146,24.0265782 C134.494139,25.9741882 136.462209,27.4824257 138.259942,28.088808 C148.657383,27.2996947 158.227626,34.0076305 161.196236,44.1123844 C162.582893,46.6615665 164.313456,47.4466812 166.14803,47.3708406 C167.491382,46.8406326 168.905803,46.4359509 170.380064,46.1730557 C182.462018,44.0185613 193.987813,52.202636 196.123647,64.4526981 C196.127044,64.4721859 196.130417,64.4916721 196.133763,64.5111568 C197.245359,70.8866387 192.995046,76.9590725 186.640423,78.0743173 C185.975821,78.190956 185.302395,78.2496043 184.627701,78.2496043 L-6.56205464e-08,78.2496043 C3.10688689,72.3785683 8.74316396,67.9596664 15.7193893,66.7156425 C17.4057885,66.4149182 19.0813522,66.3156158 20.7220581,66.400678 C21.0242719,56.2662541 27.1843715,47.1961309 36.3782048,43.2804117 L36.3782048,43.2804117 Z" id="Path" transform="translate(98.155205, 39.124802) scale(-1, 1) translate(-98.155205, -39.124802) "></path>
                    </g>
                </g>
            </g>
            <g id="Group-65" transform="translate(0.982401, 381.225626)">
                <g id="Group-22">
                    <path d="M49.3997367,253.474444 L386.192025,41.929902 C394.87419,36.4764967 405.930902,36.5526236 414.537153,42.1250618 L1172.71546,533.035846 L209.420599,553.23843 L49.3997367,253.474444 Z" id="Path-17-Copy" fill="url(#linearGradient-7)"></path>
                    <path d="M373.79134,228.686117 L644.248358,43.3551587 C653.341379,37.1241567 665.351488,37.2096671 674.354864,43.5695132 L1287.68647,476.817538 L503.979394,494.748826 L373.79134,228.686117 Z" id="Path-17-Copy-2" fill="url(#linearGradient-8)"></path>
                    <path d="M0,101.500619 L150.510739,4.57202063 C159.218806,-1.03595608 170.404166,-1.0239883 179.100212,4.60260996 L831.207367,426.535153 L0,443.955224 L0,101.500619 Z" id="Path-17" fill="url(#linearGradient-9)"></path>
                </g>
                <g id="Group-22" transform="translate(1058.272093, 277.000000) scale(-1, 1) translate(-1058.272093, -277.000000) translate(414.272093, 0.000000)">
                    <path d="M49.3997367,253.474444 L386.192025,41.929902 C394.87419,36.4764967 405.930902,36.5526236 414.537153,42.1250618 L1172.71546,533.035846 L209.420599,553.23843 L49.3997367,253.474444 Z" id="Path-17-Copy" fill="url(#linearGradient-7)"></path>
                    <path d="M373.79134,228.686117 L644.248358,43.3551587 C653.341379,37.1241567 665.351488,37.2096671 674.354864,43.5695132 L1287.68647,476.817538 L503.979394,494.748826 L373.79134,228.686117 Z" id="Path-17-Copy-2" fill="url(#linearGradient-8)"></path>
                    <path d="M0,101.500619 L150.510739,4.57202063 C159.218806,-1.03595608 170.404166,-1.0239883 179.100212,4.60260996 L831.207367,426.535153 L0,443.955224 L0,101.500619 Z" id="Path-17" fill="url(#linearGradient-9)"></path>
                </g>
            </g>
        </g>
        <rect id="Rectangle" fill="url(#linearGradient-10)" x="-91" y="500" width="1703" height="318"></rect>
    </g>
</svg>