<?xml version="1.0" encoding="UTF-8"?>
<svg width="51px" height="55px" viewBox="0 0 51 55" version="1.1" xmlns="http://www.w3.org/2000/svg" xmlns:xlink="http://www.w3.org/1999/xlink">
    <!-- Generator: Sketch 55.2 (78181) - https://sketchapp.com -->
    <title>text-box-style-1-corner-front</title>
    <desc>Created with Sketch.</desc>
    <g id="Page-1" stroke="none" stroke-width="1" fill="none" fill-rule="evenodd">
        <g id="Artboard" transform="translate(-245.000000, -325.000000)" fill-rule="nonzero">
            <g id="text-box-style-1-corner-front" transform="translate(245.000000, 325.000000)">
                <path d="M50.6002048,32 L51,32 L51,26 L50.984421,26 C51.1220364,23.7939783 50.3479438,21.5417152 48.6621433,19.8559147 L31.1440853,2.33785669 C28.0269431,-0.779285563 22.9730569,-0.779285563 19.8559147,2.33785669 L2.33785669,19.8559147 C0.652056197,21.5417152 -0.122036368,23.7939783 0.0155789921,26 L-3.55271368e-14,26 L-3.55271368e-14,32 L0.39979524,32 C0.777785221,33.1494506 1.4238057,34.2300343 2.33785669,35.1440853 L19.8559147,52.6621433 C22.9730569,55.7792856 28.0269431,55.7792856 31.1440853,52.6621433 L48.6621433,35.1440853 C49.5761943,34.2300343 50.2222148,33.1494506 50.6002048,32 Z" id="Path" fill="#18002D"></path>
                <path d="M22.6843418,5.16628381 L5.16628381,22.6843418 C3.61123873,24.2393869 3.61123873,26.7606131 5.16628381,28.3156582 L22.6843418,45.8337162 C24.2393869,47.3887613 26.7606131,47.3887613 28.3156582,45.8337162 L45.8337162,28.3156582 C47.3887613,26.7606131 47.3887613,24.2393869 45.8337162,22.6843418 L28.3156582,5.16628381 C26.7606131,3.61123873 24.2393869,3.61123873 22.6843418,5.16628381 Z" id="Rectangle" fill="#FFFFFF"></path>
            </g>
        </g>
    </g>
</svg>