<?xml version="1.0" encoding="UTF-8"?>
<svg width="572px" height="95px" viewBox="0 0 572 95" version="1.1" xmlns="http://www.w3.org/2000/svg" xmlns:xlink="http://www.w3.org/1999/xlink">
    <!-- Generator: Sketch 55.2 (78181) - https://sketchapp.com -->
    <title>Artboard</title>
    <desc>Created with Sketch.</desc>
    <g id="Artboard" stroke="none" stroke-width="1" fill="none" fill-rule="evenodd">
        <rect fill="#F8E7D2" x="0" y="0" width="572" height="95"></rect>
        <g id="Group" transform="translate(-13.000000, 0.000000)" fill="#EBD0AE">
            <path d="M294.541575,18.0034298 C295.57812,18.8278804 296.242525,20.0992826 296.242525,21.5256933 C296.242525,24.0109747 294.225575,26.0256933 291.737542,26.0256933 C289.249508,26.0256933 287.232558,24.0109747 287.232558,21.5256933 C287.232558,20.1074797 287.889349,18.8424982 288.915675,18.0176876 C286.544041,18.0260671 284.184539,18.0374238 281.837169,18.0517579 C282.839448,18.8771101 283.478405,20.126866 283.478405,21.5256933 C283.478405,24.0109747 281.461456,26.0256933 278.973422,26.0256933 C276.485388,26.0256933 274.468439,24.0109747 274.468439,21.5256933 C274.468439,20.1501083 275.086339,18.9186822 276.060017,18.0932493 C273.761015,18.1122546 271.473851,18.1341651 269.198525,18.1589807 C270.128349,18.9833283 270.714286,20.18616 270.714286,21.5256933 C270.714286,24.0109747 268.697336,26.0256933 266.209302,26.0256933 C263.721269,26.0256933 261.704319,24.0109747 261.704319,21.5256933 C261.704319,20.2253526 262.25647,19.0538312 263.139354,18.2323039 C260.953319,18.2613939 258.778416,18.2932159 256.614647,18.32777 C257.439309,19.1433377 257.950166,20.274923 257.950166,21.5256933 C257.950166,24.0109747 255.933216,26.0256933 253.445183,26.0256933 C250.957149,26.0256933 248.940199,24.0109747 248.940199,21.5256933 C248.940199,20.3310447 249.406241,19.2451255 250.166625,18.4394438 C248.124478,18.4775968 246.092455,18.5182341 244.070555,18.5613557 C244.765083,19.3530979 245.186047,20.3902893 245.186047,21.5256933 C245.186047,24.0109747 243.169097,26.0256933 240.681063,26.0256933 C238.193029,26.0256933 236.17608,24.0109747 236.17608,21.5256933 C236.17608,20.4643569 236.543912,19.4888374 237.159183,18.7193953 C235.28034,18.7652838 233.410442,18.8133676 231.54949,18.8636468 C232.097941,19.6091336 232.421927,20.5296198 232.421927,21.5256933 C232.421927,24.0109747 230.404977,26.0256933 227.916944,26.0256933 C225.42891,26.0256933 223.41196,24.0109747 223.41196,21.5256933 C223.41196,20.6226319 223.678265,19.7817005 224.136709,19.0769816 C222.428016,19.1292055 220.727063,19.1833286 219.033848,19.239351 C219.430299,19.9093869 219.657807,20.6910008 219.657807,21.5256933 C219.657807,24.0109747 217.640858,26.0256933 215.152824,26.0256933 C212.66479,26.0256933 210.647841,24.0109747 210.647841,21.5256933 C210.647841,20.8038544 210.817988,20.1217115 211.120406,19.5170989 C209.575266,19.5744844 208.036759,19.6334979 206.504887,19.6941394 C206.754774,20.2536411 206.893688,20.8734626 206.893688,21.5256933 C206.893688,24.0109747 204.876738,26.0256933 202.388704,26.0256933 C199.900671,26.0256933 197.883721,24.0109747 197.883721,21.5256933 C197.883721,21.0068207 197.971636,20.5084591 198.1334,20.0446609 C196.730345,20.1066651 195.333046,20.170079 193.941494,20.234903 C194.063846,20.6437781 194.129568,21.0770691 194.129568,21.5256933 C194.129568,24.0109747 192.112618,26.0256933 189.624585,26.0256933 C187.136551,26.0256933 185.119601,24.0109747 185.119601,21.5256933 C185.119601,21.2311536 185.14793,20.9432231 185.202015,20.6644723 C183.90214,20.7317632 182.607468,20.8003281 181.31799,20.8701675 C181.34926,21.0841588 181.365449,21.3030376 181.365449,21.5256933 C181.365449,24.0109747 179.348499,26.0256933 176.860465,26.0256933 C174.372431,26.0256933 172.355482,24.0109747 172.355482,21.5256933 C172.355482,21.4772736 172.356247,21.4290325 172.357767,21.3809814 C171.100219,21.4563234 169.847814,21.5329238 168.60054,21.6107835 C168.555129,24.0567983 166.555922,26.0256933 164.096346,26.0256933 C161.836964,26.0256933 159.966059,24.3642669 159.641266,22.1977692 C158.334155,22.2875327 157.032917,22.3787353 155.737545,22.4713775 C155.302663,24.5025894 153.495511,26.0256933 151.332226,26.0256933 C149.404657,26.0256933 147.759839,24.8164272 147.116616,23.1159411 C145.612836,23.2333623 144.117294,23.3528048 142.629987,23.4742686 C141.902904,24.9838003 140.357313,26.0256933 138.568106,26.0256933 C137.052004,26.0256933 135.710823,25.2775947 134.894338,24.1307853 C132.925995,24.3042639 130.972653,24.4814242 129.034313,24.662266 C128.215784,25.5032489 127.070965,26.0256933 125.803987,26.0256933 C124.846917,26.0256933 123.959554,25.7275749 123.229888,25.2192308 C118.520072,25.6838782 113.901652,26.1709551 109.374629,26.6804613 C110.671986,27.4703787 111.538206,28.8969897 111.538206,30.5256933 C111.538206,33.0109747 109.521256,35.0256933 107.033223,35.0256933 C104.545189,35.0256933 102.528239,33.0109747 102.528239,30.5256933 C102.528239,29.2687267 103.04417,28.1321288 103.876038,27.3156723 C101.905497,27.5492742 99.9528582,27.7872695 98.0181219,28.0296582 C98.4956727,28.7439188 98.7740864,29.6023285 98.7740864,30.5256933 C98.7740864,33.0109747 96.7571366,35.0256933 94.269103,35.0256933 C91.7810694,35.0256933 89.7641196,33.0109747 89.7641196,30.5256933 C89.7641196,30.0172334 89.8485419,29.5284695 90.0041489,29.0726249 C88.6338861,29.2577935 87.273087,29.4452846 85.9217515,29.6350981 C85.9796102,29.92298 86.0099668,30.2207955 86.0099668,30.5256933 C86.0099668,33.0109747 83.993017,35.0256933 81.5049834,35.0256933 C79.1568378,35.0256933 77.2282925,33.2311582 77.018853,30.9401561 C75.5668263,31.1621854 74.1264545,31.3870699 72.6977252,31.6148116 C72.2102281,33.5738725 70.437638,35.0256933 68.3255814,35.0256933 C66.7388069,35.0256933 65.3436415,34.2062247 64.5410893,32.9678479 C62.4455068,33.3294879 60.3766276,33.6976812 58.3344518,34.0724277 C57.5699015,34.669709 56.6073,35.0256933 55.5614618,35.0256933 C55.109341,35.0256933 54.672776,34.9591643 54.2610431,34.8353722 C48.8699032,35.8659519 43.6715659,36.9438469 38.666031,38.0690572 C38.9063129,38.5003795 39.0431894,38.9970695 39.0431894,39.5256933 C39.0431894,41.1825475 37.6985562,42.5256933 36.0398671,42.5256933 C34.381178,42.5256933 33.0365449,41.1825475 33.0365449,39.5256933 C33.0365449,39.4744793 33.0378296,39.4235651 33.0403686,39.3729809 C30.5709535,39.9631227 28.1513372,40.5654855 25.7815198,41.1800693 C25.2438885,41.9909514 24.322335,42.5256933 23.2757475,42.5256933 C22.7884017,42.5256933 22.3281673,42.4097441 21.9211837,42.2039564 C17.4264097,43.423238 13.1193485,44.6885859 9,46 L9,42.1185621 C8.10780415,41.5984458 7.50830565,40.6320023 7.50830565,39.5256933 C7.50830565,38.4193847 8.10780374,37.4529414 9,36.9328251 L9,30.8274261 C8.8446055,33.1720162 6.89150891,35.0256933 4.50498339,35.0256933 C2.01694977,35.0256933 0,33.0109747 0,30.5256933 C0,28.0404119 2.01694977,26.0256933 4.50498339,26.0256933 C6.89150891,26.0256933 8.8446055,27.8793704 9,30.2239605 L9,25.7661026 C7.25548414,25.1455458 6.00664452,23.4812993 6.00664452,21.5256933 C6.00664452,19.5700873 7.25548414,17.9058408 9,17.285284 L9,0 L588,0 L588,17.285284 C589.744516,17.9058408 590.993355,19.5700873 590.993355,21.5256933 C590.993355,23.4812993 589.744516,25.1455458 588,25.7661026 L588,30.2239605 C588.155394,27.8793704 590.108491,26.0256933 592.495017,26.0256933 C594.98305,26.0256933 597,28.0404119 597,30.5256933 C597,33.0109747 594.98305,35.0256933 592.495017,35.0256933 C590.108491,35.0256933 588.155394,33.1720162 588,30.8274261 L588,36.932822 C588.892196,37.4529414 589.491694,38.4193847 589.491694,39.5256933 C589.491694,40.6320023 588.892196,41.5984458 588,42.1185621 L588,46 C583.880652,44.6885859 579.57359,43.423238 575.078816,42.2039564 C574.671833,42.4097441 574.211598,42.5256933 573.724252,42.5256933 C572.677665,42.5256933 571.756112,41.9909514 571.21848,41.1800693 C568.848663,40.5654855 566.429047,39.9631227 563.959631,39.3729809 C563.96217,39.4235651 563.963455,39.4744793 563.963455,39.5256933 C563.963455,41.1825475 562.618822,42.5256933 560.960133,42.5256933 C559.301444,42.5256933 557.956811,41.1825475 557.956811,39.5256933 C557.956811,38.9970695 558.093687,38.5003795 558.333969,38.0690572 C553.328434,36.9438469 548.130097,35.8659519 542.738957,34.8353722 C542.327224,34.9591643 541.890659,35.0256933 541.438538,35.0256933 C540.3927,35.0256933 539.430099,34.669709 538.665548,34.0724277 C536.623372,33.6976812 534.554493,33.3294879 532.458911,32.9678479 C531.656358,34.2062247 530.261193,35.0256933 528.674419,35.0256933 C526.562362,35.0256933 524.789772,33.5738725 524.302275,31.6148116 C522.873546,31.3870699 521.433174,31.1621854 519.981159,30.940158 C519.771708,33.2311582 517.843162,35.0256933 515.495017,35.0256933 C513.006983,35.0256933 510.990033,33.0109747 510.990033,30.5256933 C510.990033,30.2207955 511.02039,29.92298 511.078249,29.6350981 C509.726913,29.4452846 508.366114,29.2577935 506.995851,29.0726249 C507.151458,29.5284695 507.23588,30.0172334 507.23588,30.5256933 C507.23588,33.0109747 505.218931,35.0256933 502.730897,35.0256933 C500.242863,35.0256933 498.225914,33.0109747 498.225914,30.5256933 C498.225914,29.6023285 498.504327,28.7439188 498.981874,28.0296566 C497.047142,27.7872695 495.094503,27.5492742 493.123962,27.3156723 C493.95583,28.1321288 494.471761,29.2687267 494.471761,30.5256933 C494.471761,33.0109747 492.454811,35.0256933 489.966777,35.0256933 C487.478744,35.0256933 485.461794,33.0109747 485.461794,30.5256933 C485.461794,28.8969897 486.328014,27.4703787 487.625371,26.6804613 C483.098348,26.1709551 478.479928,25.6838782 473.770112,25.2192308 C473.040446,25.7275749 472.153083,26.0256933 471.196013,26.0256933 C469.929035,26.0256933 468.784216,25.5032489 467.965687,24.662266 C466.027347,24.4814242 464.074005,24.3042639 462.105662,24.1307853 C461.289177,25.2775947 459.947996,26.0256933 458.431894,26.0256933 C456.642687,26.0256933 455.097096,24.9838003 454.370013,23.4742686 C452.882706,23.3528048 451.387164,23.2333623 449.883384,23.1159411 C449.240161,24.8164272 447.595343,26.0256933 445.667774,26.0256933 C443.504489,26.0256933 441.697337,24.5025894 441.262439,22.4713764 C439.967081,22.3787352 438.66584,22.2875324 437.358734,22.1977692 C437.033941,24.3642669 435.163036,26.0256933 432.903654,26.0256933 C430.444078,26.0256933 428.444871,24.0567983 428.39946,21.6107835 C427.152186,21.5329238 425.899781,21.4563234 424.642245,21.3809821 C424.643753,21.4290325 424.644518,21.4772736 424.644518,21.5256933 C424.644518,24.0109747 422.627569,26.0256933 420.139535,26.0256933 C417.651501,26.0256933 415.634551,24.0109747 415.634551,21.5256933 C415.634551,21.3030376 415.65074,21.0841588 415.682006,20.8701673 C414.392532,20.8003281 413.09786,20.7317632 411.797995,20.6644729 C411.85207,20.9432231 411.880399,21.2311536 411.880399,21.5256933 C411.880399,24.0109747 409.863449,26.0256933 407.375415,26.0256933 C404.887382,26.0256933 402.870432,24.0109747 402.870432,21.5256933 C402.870432,21.0770691 402.936154,20.6437781 403.058505,20.2349029 C401.666954,20.170079 400.269655,20.1066651 398.86661,20.0446615 C399.028364,20.5084591 399.116279,21.0068207 399.116279,21.5256933 C399.116279,24.0109747 397.099329,26.0256933 394.611296,26.0256933 C392.123262,26.0256933 390.106312,24.0109747 390.106312,21.5256933 C390.106312,20.8734626 390.245226,20.2536411 390.495113,19.6941394 C388.963241,19.6334979 387.424734,19.5744844 385.879594,19.5170989 C386.182012,20.1217115 386.352159,20.8038544 386.352159,21.5256933 C386.352159,24.0109747 384.33521,26.0256933 381.847176,26.0256933 C379.359142,26.0256933 377.342193,24.0109747 377.342193,21.5256933 C377.342193,20.6910008 377.569701,19.9093869 377.966154,19.23935 C376.272937,19.1833286 374.571984,19.1292055 372.863291,19.0769816 C373.321735,19.7817005 373.58804,20.6226319 373.58804,21.5256933 C373.58804,24.0109747 371.57109,26.0256933 369.083056,26.0256933 C366.595023,26.0256933 364.578073,24.0109747 364.578073,21.5256933 C364.578073,20.5296198 364.902059,19.6091336 365.45051,18.8636468 C363.589558,18.8133676 361.71966,18.7652838 359.840817,18.7193953 C360.456088,19.4888374 360.82392,20.4643569 360.82392,21.5256933 C360.82392,24.0109747 358.806971,26.0256933 356.318937,26.0256933 C353.830903,26.0256933 351.813953,24.0109747 351.813953,21.5256933 C351.813953,20.3902893 352.234917,19.3530979 352.929445,18.5613557 C350.907545,18.5182341 348.875522,18.4775968 346.833375,18.4394438 C347.593759,19.2451255 348.059801,20.3310447 348.059801,21.5256933 C348.059801,24.0109747 346.042851,26.0256933 343.554817,26.0256933 C341.066784,26.0256933 339.049834,24.0109747 339.049834,21.5256933 C339.049834,20.274923 339.560691,19.1433377 340.385353,18.32777 C338.221584,18.2932159 336.046681,18.2613939 333.860646,18.2323039 C334.74353,19.0538312 335.295681,20.2253526 335.295681,21.5256933 C335.295681,24.0109747 333.278731,26.0256933 330.790698,26.0256933 C328.302664,26.0256933 326.285714,24.0109747 326.285714,21.5256933 C326.285714,20.18616 326.871651,18.9833283 327.801475,18.1589807 C325.526149,18.1341651 323.238985,18.1122546 320.939983,18.0932493 C321.913661,18.9186822 322.531561,20.1501083 322.531561,21.5256933 C322.531561,24.0109747 320.514612,26.0256933 318.026578,26.0256933 C315.538544,26.0256933 313.521595,24.0109747 313.521595,21.5256933 C313.521595,20.126866 314.160552,18.8771101 315.162831,18.0517579 C312.815461,18.0374238 310.455959,18.0260671 308.084325,18.0176876 C309.110651,18.8424982 309.767442,20.1074797 309.767442,21.5256933 C309.767442,24.0109747 307.750492,26.0256933 305.262458,26.0256933 C302.774425,26.0256933 300.757475,24.0109747 300.757475,21.5256933 C300.757475,20.0992826 301.42188,18.8278804 302.458425,18.0034298 C301.142625,18.001399 299.82315,18.00027 298.5,18.0000429 L298.500017,18.0000429 C297.176861,18.00027 295.857381,18.001399 294.541575,18.0034298 L294.541575,18.0034298 Z M298.499999,45.5256933 L298.504983,45.5256933 C300.163672,45.5256933 301.508306,46.868839 301.508306,48.5256933 C301.508306,50.1825475 300.163672,51.5256933 298.504983,51.5256933 L298.499999,51.5256933 L298.495017,51.5256933 C296.836328,51.5256933 295.491694,50.1825475 295.491694,48.5256933 C295.491694,46.868839 296.836328,45.5256933 298.495017,45.5256933 C298.496678,45.5256933 298.49834,45.5256933 298.500001,45.5256933 L298.499999,45.5256933 Z M298.499999,26.0256933 L298.504983,26.0256933 C300.993017,26.0256933 303.009967,28.0404119 303.009967,30.5256933 C303.009967,33.0109747 300.993017,35.0256933 298.504983,35.0256933 L298.499999,35.0256933 L298.495017,35.0256933 C296.006983,35.0256933 293.990033,33.0109747 293.990033,30.5256933 C293.990033,28.0404119 296.006983,26.0256933 298.495017,26.0256933 C298.496678,26.0256933 298.498339,26.0256933 298.500001,26.0256933 L298.499999,26.0256933 Z M298.499998,65.0256933 L298.504983,65.0256933 C299.334328,65.0256933 300.006645,65.6972662 300.006645,66.5256933 C300.006645,67.3541204 299.334328,68.0256933 298.504983,68.0256933 L298.499998,68.0256933 L298.495017,68.0256933 C297.665672,68.0256933 296.993355,67.3541204 296.993355,66.5256933 C296.993355,65.6972662 297.665672,65.0256933 298.495017,65.0256933 C298.496679,65.0256933 298.498341,65.0256933 298.500002,65.0256933 L298.499998,65.0256933 Z M176.860465,42.5256933 C175.201776,42.5256933 173.857143,41.1825475 173.857143,39.5256933 C173.857143,37.868839 175.201776,36.5256933 176.860465,36.5256933 C178.519154,36.5256933 179.863787,37.868839 179.863787,39.5256933 C179.863787,41.1825475 178.519154,42.5256933 176.860465,42.5256933 Z M189.624585,42.5256933 C187.965896,42.5256933 186.621262,41.1825475 186.621262,39.5256933 C186.621262,37.868839 187.965896,36.5256933 189.624585,36.5256933 C191.283274,36.5256933 192.627907,37.868839 192.627907,39.5256933 C192.627907,41.1825475 191.283274,42.5256933 189.624585,42.5256933 Z M176.860465,59.0256933 C176.031121,59.0256933 175.358804,58.3541204 175.358804,57.5256933 C175.358804,56.6972662 176.031121,56.0256933 176.860465,56.0256933 C177.68981,56.0256933 178.362126,56.6972662 178.362126,57.5256933 C178.362126,58.3541204 177.68981,59.0256933 176.860465,59.0256933 Z M189.624585,59.0256933 C188.79524,59.0256933 188.122924,58.3541204 188.122924,57.5256933 C188.122924,56.6972662 188.79524,56.0256933 189.624585,56.0256933 C190.453929,56.0256933 191.126246,56.6972662 191.126246,57.5256933 C191.126246,58.3541204 190.453929,59.0256933 189.624585,59.0256933 Z M170.853821,51.5256933 C169.195132,51.5256933 167.850498,50.1825475 167.850498,48.5256933 C167.850498,46.868839 169.195132,45.5256933 170.853821,45.5256933 C172.51251,45.5256933 173.857143,46.868839 173.857143,48.5256933 C173.857143,50.1825475 172.51251,51.5256933 170.853821,51.5256933 Z M183.61794,51.5256933 C181.959251,51.5256933 180.614618,50.1825475 180.614618,48.5256933 C180.614618,46.868839 181.959251,45.5256933 183.61794,45.5256933 C185.276629,45.5256933 186.621262,46.868839 186.621262,48.5256933 C186.621262,50.1825475 185.276629,51.5256933 183.61794,51.5256933 Z M170.853821,35.0256933 C168.365787,35.0256933 166.348837,33.0109747 166.348837,30.5256933 C166.348837,28.0404119 168.365787,26.0256933 170.853821,26.0256933 C173.341854,26.0256933 175.358804,28.0404119 175.358804,30.5256933 C175.358804,33.0109747 173.341854,35.0256933 170.853821,35.0256933 Z M183.61794,35.0256933 C181.129907,35.0256933 179.112957,33.0109747 179.112957,30.5256933 C179.112957,28.0404119 181.129907,26.0256933 183.61794,26.0256933 C186.105974,26.0256933 188.122924,28.0404119 188.122924,30.5256933 C188.122924,33.0109747 186.105974,35.0256933 183.61794,35.0256933 Z M170.853821,68.0256933 C170.024476,68.0256933 169.352159,67.3541204 169.352159,66.5256933 C169.352159,65.6972662 170.024476,65.0256933 170.853821,65.0256933 C171.683165,65.0256933 172.355482,65.6972662 172.355482,66.5256933 C172.355482,67.3541204 171.683165,68.0256933 170.853821,68.0256933 Z M183.61794,68.0256933 C182.788596,68.0256933 182.116279,67.3541204 182.116279,66.5256933 C182.116279,65.6972662 182.788596,65.0256933 183.61794,65.0256933 C184.447285,65.0256933 185.119601,65.6972662 185.119601,66.5256933 C185.119601,67.3541204 184.447285,68.0256933 183.61794,68.0256933 Z M227.916944,42.5256933 C226.258254,42.5256933 224.913621,41.1825475 224.913621,39.5256933 C224.913621,37.868839 226.258254,36.5256933 227.916944,36.5256933 C229.575633,36.5256933 230.920266,37.868839 230.920266,39.5256933 C230.920266,41.1825475 229.575633,42.5256933 227.916944,42.5256933 Z M240.681063,42.5256933 C239.022374,42.5256933 237.677741,41.1825475 237.677741,39.5256933 C237.677741,37.868839 239.022374,36.5256933 240.681063,36.5256933 C242.339752,36.5256933 243.684385,37.868839 243.684385,39.5256933 C243.684385,41.1825475 242.339752,42.5256933 240.681063,42.5256933 Z M227.916944,59.0256933 C227.087599,59.0256933 226.415282,58.3541204 226.415282,57.5256933 C226.415282,56.6972662 227.087599,56.0256933 227.916944,56.0256933 C228.746288,56.0256933 229.418605,56.6972662 229.418605,57.5256933 C229.418605,58.3541204 228.746288,59.0256933 227.916944,59.0256933 Z M240.681063,59.0256933 C239.851719,59.0256933 239.179402,58.3541204 239.179402,57.5256933 C239.179402,56.6972662 239.851719,56.0256933 240.681063,56.0256933 C241.510408,56.0256933 242.182724,56.6972662 242.182724,57.5256933 C242.182724,58.3541204 241.510408,59.0256933 240.681063,59.0256933 Z M221.910299,51.5256933 C220.25161,51.5256933 218.906977,50.1825475 218.906977,48.5256933 C218.906977,46.868839 220.25161,45.5256933 221.910299,45.5256933 C223.568988,45.5256933 224.913621,46.868839 224.913621,48.5256933 C224.913621,50.1825475 223.568988,51.5256933 221.910299,51.5256933 Z M234.674419,51.5256933 C233.01573,51.5256933 231.671096,50.1825475 231.671096,48.5256933 C231.671096,46.868839 233.01573,45.5256933 234.674419,45.5256933 C236.333108,45.5256933 237.677741,46.868839 237.677741,48.5256933 C237.677741,50.1825475 236.333108,51.5256933 234.674419,51.5256933 Z M221.910299,35.0256933 C219.422265,35.0256933 217.405316,33.0109747 217.405316,30.5256933 C217.405316,28.0404119 219.422265,26.0256933 221.910299,26.0256933 C224.398333,26.0256933 226.415282,28.0404119 226.415282,30.5256933 C226.415282,33.0109747 224.398333,35.0256933 221.910299,35.0256933 Z M234.674419,35.0256933 C232.186385,35.0256933 230.169435,33.0109747 230.169435,30.5256933 C230.169435,28.0404119 232.186385,26.0256933 234.674419,26.0256933 C237.162452,26.0256933 239.179402,28.0404119 239.179402,30.5256933 C239.179402,33.0109747 237.162452,35.0256933 234.674419,35.0256933 Z M221.910299,68.0256933 C221.080954,68.0256933 220.408638,67.3541204 220.408638,66.5256933 C220.408638,65.6972662 221.080954,65.0256933 221.910299,65.0256933 C222.739644,65.0256933 223.41196,65.6972662 223.41196,66.5256933 C223.41196,67.3541204 222.739644,68.0256933 221.910299,68.0256933 Z M234.674419,68.0256933 C233.845074,68.0256933 233.172757,67.3541204 233.172757,66.5256933 C233.172757,65.6972662 233.845074,65.0256933 234.674419,65.0256933 C235.503763,65.0256933 236.17608,65.6972662 236.17608,66.5256933 C236.17608,67.3541204 235.503763,68.0256933 234.674419,68.0256933 Z M202.388704,42.5256933 C200.730015,42.5256933 199.385382,41.1825475 199.385382,39.5256933 C199.385382,37.868839 200.730015,36.5256933 202.388704,36.5256933 C204.047393,36.5256933 205.392027,37.868839 205.392027,39.5256933 C205.392027,41.1825475 204.047393,42.5256933 202.388704,42.5256933 Z M215.152824,42.5256933 C213.494135,42.5256933 212.149502,41.1825475 212.149502,39.5256933 C212.149502,37.868839 213.494135,36.5256933 215.152824,36.5256933 C216.811513,36.5256933 218.156146,37.868839 218.156146,39.5256933 C218.156146,41.1825475 216.811513,42.5256933 215.152824,42.5256933 Z M202.388704,59.0256933 C201.55936,59.0256933 200.887043,58.3541204 200.887043,57.5256933 C200.887043,56.6972662 201.55936,56.0256933 202.388704,56.0256933 C203.218049,56.0256933 203.890365,56.6972662 203.890365,57.5256933 C203.890365,58.3541204 203.218049,59.0256933 202.388704,59.0256933 Z M215.152824,59.0256933 C214.323479,59.0256933 213.651163,58.3541204 213.651163,57.5256933 C213.651163,56.6972662 214.323479,56.0256933 215.152824,56.0256933 C215.982168,56.0256933 216.654485,56.6972662 216.654485,57.5256933 C216.654485,58.3541204 215.982168,59.0256933 215.152824,59.0256933 Z M196.38206,51.5256933 C194.723371,51.5256933 193.378738,50.1825475 193.378738,48.5256933 C193.378738,46.868839 194.723371,45.5256933 196.38206,45.5256933 C198.040749,45.5256933 199.385382,46.868839 199.385382,48.5256933 C199.385382,50.1825475 198.040749,51.5256933 196.38206,51.5256933 Z M209.146179,51.5256933 C207.48749,51.5256933 206.142857,50.1825475 206.142857,48.5256933 C206.142857,46.868839 207.48749,45.5256933 209.146179,45.5256933 C210.804868,45.5256933 212.149502,46.868839 212.149502,48.5256933 C212.149502,50.1825475 210.804868,51.5256933 209.146179,51.5256933 Z M196.38206,35.0256933 C193.894026,35.0256933 191.877076,33.0109747 191.877076,30.5256933 C191.877076,28.0404119 193.894026,26.0256933 196.38206,26.0256933 C198.870093,26.0256933 200.887043,28.0404119 200.887043,30.5256933 C200.887043,33.0109747 198.870093,35.0256933 196.38206,35.0256933 Z M209.146179,35.0256933 C206.658146,35.0256933 204.641196,33.0109747 204.641196,30.5256933 C204.641196,28.0404119 206.658146,26.0256933 209.146179,26.0256933 C211.634213,26.0256933 213.651163,28.0404119 213.651163,30.5256933 C213.651163,33.0109747 211.634213,35.0256933 209.146179,35.0256933 Z M196.38206,68.0256933 C195.552715,68.0256933 194.880399,67.3541204 194.880399,66.5256933 C194.880399,65.6972662 195.552715,65.0256933 196.38206,65.0256933 C197.211404,65.0256933 197.883721,65.6972662 197.883721,66.5256933 C197.883721,67.3541204 197.211404,68.0256933 196.38206,68.0256933 Z M209.146179,68.0256933 C208.316835,68.0256933 207.644518,67.3541204 207.644518,66.5256933 C207.644518,65.6972662 208.316835,65.0256933 209.146179,65.0256933 C209.975524,65.0256933 210.647841,65.6972662 210.647841,66.5256933 C210.647841,67.3541204 209.975524,68.0256933 209.146179,68.0256933 Z M253.445183,42.5256933 C251.786494,42.5256933 250.44186,41.1825475 250.44186,39.5256933 C250.44186,37.868839 251.786494,36.5256933 253.445183,36.5256933 C255.103872,36.5256933 256.448505,37.868839 256.448505,39.5256933 C256.448505,41.1825475 255.103872,42.5256933 253.445183,42.5256933 Z M266.209302,42.5256933 C264.550613,42.5256933 263.20598,41.1825475 263.20598,39.5256933 C263.20598,37.868839 264.550613,36.5256933 266.209302,36.5256933 C267.867991,36.5256933 269.212625,37.868839 269.212625,39.5256933 C269.212625,41.1825475 267.867991,42.5256933 266.209302,42.5256933 Z M253.445183,59.0256933 C252.615838,59.0256933 251.943522,58.3541204 251.943522,57.5256933 C251.943522,56.6972662 252.615838,56.0256933 253.445183,56.0256933 C254.274527,56.0256933 254.946844,56.6972662 254.946844,57.5256933 C254.946844,58.3541204 254.274527,59.0256933 253.445183,59.0256933 Z M266.209302,59.0256933 C265.379958,59.0256933 264.707641,58.3541204 264.707641,57.5256933 C264.707641,56.6972662 265.379958,56.0256933 266.209302,56.0256933 C267.038647,56.0256933 267.710963,56.6972662 267.710963,57.5256933 C267.710963,58.3541204 267.038647,59.0256933 266.209302,59.0256933 Z M247.438538,51.5256933 C245.779849,51.5256933 244.435216,50.1825475 244.435216,48.5256933 C244.435216,46.868839 245.779849,45.5256933 247.438538,45.5256933 C249.097227,45.5256933 250.44186,46.868839 250.44186,48.5256933 C250.44186,50.1825475 249.097227,51.5256933 247.438538,51.5256933 Z M260.202658,51.5256933 C258.543969,51.5256933 257.199336,50.1825475 257.199336,48.5256933 C257.199336,46.868839 258.543969,45.5256933 260.202658,45.5256933 C261.861347,45.5256933 263.20598,46.868839 263.20598,48.5256933 C263.20598,50.1825475 261.861347,51.5256933 260.202658,51.5256933 Z M272.966777,51.5256933 C271.308088,51.5256933 269.963455,50.1825475 269.963455,48.5256933 C269.963455,46.868839 271.308088,45.5256933 272.966777,45.5256933 C274.625466,45.5256933 275.9701,46.868839 275.9701,48.5256933 C275.9701,50.1825475 274.625466,51.5256933 272.966777,51.5256933 Z M247.438538,35.0256933 C244.950505,35.0256933 242.933555,33.0109747 242.933555,30.5256933 C242.933555,28.0404119 244.950505,26.0256933 247.438538,26.0256933 C249.926572,26.0256933 251.943522,28.0404119 251.943522,30.5256933 C251.943522,33.0109747 249.926572,35.0256933 247.438538,35.0256933 Z M260.202658,35.0256933 C257.714624,35.0256933 255.697674,33.0109747 255.697674,30.5256933 C255.697674,28.0404119 257.714624,26.0256933 260.202658,26.0256933 C262.690691,26.0256933 264.707641,28.0404119 264.707641,30.5256933 C264.707641,33.0109747 262.690691,35.0256933 260.202658,35.0256933 Z M272.966777,35.0256933 C270.478744,35.0256933 268.461794,33.0109747 268.461794,30.5256933 C268.461794,28.0404119 270.478744,26.0256933 272.966777,26.0256933 C275.454811,26.0256933 277.471761,28.0404119 277.471761,30.5256933 C277.471761,33.0109747 275.454811,35.0256933 272.966777,35.0256933 Z M247.438538,68.0256933 C246.609194,68.0256933 245.936877,67.3541204 245.936877,66.5256933 C245.936877,65.6972662 246.609194,65.0256933 247.438538,65.0256933 C248.267883,65.0256933 248.940199,65.6972662 248.940199,66.5256933 C248.940199,67.3541204 248.267883,68.0256933 247.438538,68.0256933 Z M260.202658,68.0256933 C259.373313,68.0256933 258.700997,67.3541204 258.700997,66.5256933 C258.700997,65.6972662 259.373313,65.0256933 260.202658,65.0256933 C261.032002,65.0256933 261.704319,65.6972662 261.704319,66.5256933 C261.704319,67.3541204 261.032002,68.0256933 260.202658,68.0256933 Z M272.966777,68.0256933 C272.137433,68.0256933 271.465116,67.3541204 271.465116,66.5256933 C271.465116,65.6972662 272.137433,65.0256933 272.966777,65.0256933 C273.796122,65.0256933 274.468439,65.6972662 274.468439,66.5256933 C274.468439,67.3541204 273.796122,68.0256933 272.966777,68.0256933 Z M278.973422,42.5256933 C277.314733,42.5256933 275.9701,41.1825475 275.9701,39.5256933 C275.9701,37.868839 277.314733,36.5256933 278.973422,36.5256933 C280.632111,36.5256933 281.976744,37.868839 281.976744,39.5256933 C281.976744,41.1825475 280.632111,42.5256933 278.973422,42.5256933 Z M291.737542,42.5256933 C290.078852,42.5256933 288.734219,41.1825475 288.734219,39.5256933 C288.734219,37.868839 290.078852,36.5256933 291.737542,36.5256933 C293.396231,36.5256933 294.740864,37.868839 294.740864,39.5256933 C294.740864,41.1825475 293.396231,42.5256933 291.737542,42.5256933 Z M278.973422,59.0256933 C278.144077,59.0256933 277.471761,58.3541204 277.471761,57.5256933 C277.471761,56.6972662 278.144077,56.0256933 278.973422,56.0256933 C279.802766,56.0256933 280.475083,56.6972662 280.475083,57.5256933 C280.475083,58.3541204 279.802766,59.0256933 278.973422,59.0256933 Z M291.737542,59.0256933 C290.908197,59.0256933 290.23588,58.3541204 290.23588,57.5256933 C290.23588,56.6972662 290.908197,56.0256933 291.737542,56.0256933 C292.566886,56.0256933 293.239203,56.6972662 293.239203,57.5256933 C293.239203,58.3541204 292.566886,59.0256933 291.737542,59.0256933 Z M285.730897,51.5256933 C284.072208,51.5256933 282.727575,50.1825475 282.727575,48.5256933 C282.727575,46.868839 284.072208,45.5256933 285.730897,45.5256933 C287.389586,45.5256933 288.734219,46.868839 288.734219,48.5256933 C288.734219,50.1825475 287.389586,51.5256933 285.730897,51.5256933 Z M285.730897,35.0256933 C283.242863,35.0256933 281.225914,33.0109747 281.225914,30.5256933 C281.225914,28.0404119 283.242863,26.0256933 285.730897,26.0256933 C288.218931,26.0256933 290.23588,28.0404119 290.23588,30.5256933 C290.23588,33.0109747 288.218931,35.0256933 285.730897,35.0256933 Z M285.730897,68.0256933 C284.901552,68.0256933 284.229236,67.3541204 284.229236,66.5256933 C284.229236,65.6972662 284.901552,65.0256933 285.730897,65.0256933 C286.560242,65.0256933 287.232558,65.6972662 287.232558,66.5256933 C287.232558,67.3541204 286.560242,68.0256933 285.730897,68.0256933 Z M100.275748,42.5256933 C98.6170584,42.5256933 97.2724252,41.1825475 97.2724252,39.5256933 C97.2724252,37.868839 98.6170584,36.5256933 100.275748,36.5256933 C101.934437,36.5256933 103.27907,37.868839 103.27907,39.5256933 C103.27907,41.1825475 101.934437,42.5256933 100.275748,42.5256933 Z M113.039867,42.5256933 C111.381178,42.5256933 110.036545,41.1825475 110.036545,39.5256933 C110.036545,37.868839 111.381178,36.5256933 113.039867,36.5256933 C114.698556,36.5256933 116.043189,37.868839 116.043189,39.5256933 C116.043189,41.1825475 114.698556,42.5256933 113.039867,42.5256933 Z M100.275748,59.0256933 C99.446403,59.0256933 98.7740864,58.3541204 98.7740864,57.5256933 C98.7740864,56.6972662 99.446403,56.0256933 100.275748,56.0256933 C101.105092,56.0256933 101.777409,56.6972662 101.777409,57.5256933 C101.777409,58.3541204 101.105092,59.0256933 100.275748,59.0256933 Z M113.039867,59.0256933 C112.210523,59.0256933 111.538206,58.3541204 111.538206,57.5256933 C111.538206,56.6972662 112.210523,56.0256933 113.039867,56.0256933 C113.869212,56.0256933 114.541528,56.6972662 114.541528,57.5256933 C114.541528,58.3541204 113.869212,59.0256933 113.039867,59.0256933 Z M94.269103,51.5256933 C92.6104139,51.5256933 91.2657807,50.1825475 91.2657807,48.5256933 C91.2657807,46.868839 92.6104139,45.5256933 94.269103,45.5256933 C95.9277921,45.5256933 97.2724252,46.868839 97.2724252,48.5256933 C97.2724252,50.1825475 95.9277921,51.5256933 94.269103,51.5256933 Z M107.033223,51.5256933 C105.374534,51.5256933 104.0299,50.1825475 104.0299,48.5256933 C104.0299,46.868839 105.374534,45.5256933 107.033223,45.5256933 C108.691912,45.5256933 110.036545,46.868839 110.036545,48.5256933 C110.036545,50.1825475 108.691912,51.5256933 107.033223,51.5256933 Z M94.269103,68.0256933 C93.4397584,68.0256933 92.7674419,67.3541204 92.7674419,66.5256933 C92.7674419,65.6972662 93.4397584,65.0256933 94.269103,65.0256933 C95.0984475,65.0256933 95.7707641,65.6972662 95.7707641,66.5256933 C95.7707641,67.3541204 95.0984475,68.0256933 94.269103,68.0256933 Z M107.033223,68.0256933 C106.203878,68.0256933 105.531561,67.3541204 105.531561,66.5256933 C105.531561,65.6972662 106.203878,65.0256933 107.033223,65.0256933 C107.862567,65.0256933 108.534884,65.6972662 108.534884,66.5256933 C108.534884,67.3541204 107.862567,68.0256933 107.033223,68.0256933 Z M125.803987,42.5256933 C124.145298,42.5256933 122.800664,41.1825475 122.800664,39.5256933 C122.800664,37.868839 124.145298,36.5256933 125.803987,36.5256933 C127.462676,36.5256933 128.807309,37.868839 128.807309,39.5256933 C128.807309,41.1825475 127.462676,42.5256933 125.803987,42.5256933 Z M138.568106,42.5256933 C136.909417,42.5256933 135.564784,41.1825475 135.564784,39.5256933 C135.564784,37.868839 136.909417,36.5256933 138.568106,36.5256933 C140.226795,36.5256933 141.571429,37.868839 141.571429,39.5256933 C141.571429,41.1825475 140.226795,42.5256933 138.568106,42.5256933 Z M125.803987,59.0256933 C124.974642,59.0256933 124.302326,58.3541204 124.302326,57.5256933 C124.302326,56.6972662 124.974642,56.0256933 125.803987,56.0256933 C126.633331,56.0256933 127.305648,56.6972662 127.305648,57.5256933 C127.305648,58.3541204 126.633331,59.0256933 125.803987,59.0256933 Z M138.568106,59.0256933 C137.738762,59.0256933 137.066445,58.3541204 137.066445,57.5256933 C137.066445,56.6972662 137.738762,56.0256933 138.568106,56.0256933 C139.397451,56.0256933 140.069767,56.6972662 140.069767,57.5256933 C140.069767,58.3541204 139.397451,59.0256933 138.568106,59.0256933 Z M119.797342,51.5256933 C118.138653,51.5256933 116.79402,50.1825475 116.79402,48.5256933 C116.79402,46.868839 118.138653,45.5256933 119.797342,45.5256933 C121.456031,45.5256933 122.800664,46.868839 122.800664,48.5256933 C122.800664,50.1825475 121.456031,51.5256933 119.797342,51.5256933 Z M132.561462,51.5256933 C130.902773,51.5256933 129.55814,50.1825475 129.55814,48.5256933 C129.55814,46.868839 130.902773,45.5256933 132.561462,45.5256933 C134.220151,45.5256933 135.564784,46.868839 135.564784,48.5256933 C135.564784,50.1825475 134.220151,51.5256933 132.561462,51.5256933 Z M119.797342,35.0256933 C117.309309,35.0256933 115.292359,33.0109747 115.292359,30.5256933 C115.292359,28.0404119 117.309309,26.0256933 119.797342,26.0256933 C122.285376,26.0256933 124.302326,28.0404119 124.302326,30.5256933 C124.302326,33.0109747 122.285376,35.0256933 119.797342,35.0256933 Z M132.561462,35.0256933 C130.073428,35.0256933 128.056478,33.0109747 128.056478,30.5256933 C128.056478,28.0404119 130.073428,26.0256933 132.561462,26.0256933 C135.049495,26.0256933 137.066445,28.0404119 137.066445,30.5256933 C137.066445,33.0109747 135.049495,35.0256933 132.561462,35.0256933 Z M119.797342,68.0256933 C118.967998,68.0256933 118.295681,67.3541204 118.295681,66.5256933 C118.295681,65.6972662 118.967998,65.0256933 119.797342,65.0256933 C120.626687,65.0256933 121.299003,65.6972662 121.299003,66.5256933 C121.299003,67.3541204 120.626687,68.0256933 119.797342,68.0256933 Z M132.561462,68.0256933 C131.732117,68.0256933 131.059801,67.3541204 131.059801,66.5256933 C131.059801,65.6972662 131.732117,65.0256933 132.561462,65.0256933 C133.390806,65.0256933 134.063123,65.6972662 134.063123,66.5256933 C134.063123,67.3541204 133.390806,68.0256933 132.561462,68.0256933 Z M87.5116279,42.5256933 C85.8529388,42.5256933 84.5083056,41.1825475 84.5083056,39.5256933 C84.5083056,37.868839 85.8529388,36.5256933 87.5116279,36.5256933 C89.170317,36.5256933 90.5149502,37.868839 90.5149502,39.5256933 C90.5149502,41.1825475 89.170317,42.5256933 87.5116279,42.5256933 Z M87.5116279,59.0256933 C86.6822834,59.0256933 86.0099668,58.3541204 86.0099668,57.5256933 C86.0099668,56.6972662 86.6822834,56.0256933 87.5116279,56.0256933 C88.3409724,56.0256933 89.013289,56.6972662 89.013289,57.5256933 C89.013289,58.3541204 88.3409724,59.0256933 87.5116279,59.0256933 Z M81.5049834,51.5256933 C79.8462943,51.5256933 78.5016611,50.1825475 78.5016611,48.5256933 C78.5016611,46.868839 79.8462943,45.5256933 81.5049834,45.5256933 C83.1636725,45.5256933 84.5083056,46.868839 84.5083056,48.5256933 C84.5083056,50.1825475 83.1636725,51.5256933 81.5049834,51.5256933 Z M81.5049834,68.0256933 C80.6756388,68.0256933 80.0033223,67.3541204 80.0033223,66.5256933 C80.0033223,65.6972662 80.6756388,65.0256933 81.5049834,65.0256933 C82.3343279,65.0256933 83.0066445,65.6972662 83.0066445,66.5256933 C83.0066445,67.3541204 82.3343279,68.0256933 81.5049834,68.0256933 Z M151.332226,42.5256933 C149.673537,42.5256933 148.328904,41.1825475 148.328904,39.5256933 C148.328904,37.868839 149.673537,36.5256933 151.332226,36.5256933 C152.990915,36.5256933 154.335548,37.868839 154.335548,39.5256933 C154.335548,41.1825475 152.990915,42.5256933 151.332226,42.5256933 Z M164.096346,42.5256933 C162.437656,42.5256933 161.093023,41.1825475 161.093023,39.5256933 C161.093023,37.868839 162.437656,36.5256933 164.096346,36.5256933 C165.755035,36.5256933 167.099668,37.868839 167.099668,39.5256933 C167.099668,41.1825475 165.755035,42.5256933 164.096346,42.5256933 Z M151.332226,59.0256933 C150.502881,59.0256933 149.830565,58.3541204 149.830565,57.5256933 C149.830565,56.6972662 150.502881,56.0256933 151.332226,56.0256933 C152.16157,56.0256933 152.833887,56.6972662 152.833887,57.5256933 C152.833887,58.3541204 152.16157,59.0256933 151.332226,59.0256933 Z M164.096346,59.0256933 C163.267001,59.0256933 162.594684,58.3541204 162.594684,57.5256933 C162.594684,56.6972662 163.267001,56.0256933 164.096346,56.0256933 C164.92569,56.0256933 165.598007,56.6972662 165.598007,57.5256933 C165.598007,58.3541204 164.92569,59.0256933 164.096346,59.0256933 Z M145.325581,51.5256933 C143.666892,51.5256933 142.322259,50.1825475 142.322259,48.5256933 C142.322259,46.868839 143.666892,45.5256933 145.325581,45.5256933 C146.98427,45.5256933 148.328904,46.868839 148.328904,48.5256933 C148.328904,50.1825475 146.98427,51.5256933 145.325581,51.5256933 Z M158.089701,51.5256933 C156.431012,51.5256933 155.086379,50.1825475 155.086379,48.5256933 C155.086379,46.868839 156.431012,45.5256933 158.089701,45.5256933 C159.74839,45.5256933 161.093023,46.868839 161.093023,48.5256933 C161.093023,50.1825475 159.74839,51.5256933 158.089701,51.5256933 Z M145.325581,35.0256933 C142.837548,35.0256933 140.820598,33.0109747 140.820598,30.5256933 C140.820598,28.0404119 142.837548,26.0256933 145.325581,26.0256933 C147.813615,26.0256933 149.830565,28.0404119 149.830565,30.5256933 C149.830565,33.0109747 147.813615,35.0256933 145.325581,35.0256933 Z M158.089701,35.0256933 C155.601667,35.0256933 153.584718,33.0109747 153.584718,30.5256933 C153.584718,28.0404119 155.601667,26.0256933 158.089701,26.0256933 C160.577735,26.0256933 162.594684,28.0404119 162.594684,30.5256933 C162.594684,33.0109747 160.577735,35.0256933 158.089701,35.0256933 Z M145.325581,68.0256933 C144.496237,68.0256933 143.82392,67.3541204 143.82392,66.5256933 C143.82392,65.6972662 144.496237,65.0256933 145.325581,65.0256933 C146.154926,65.0256933 146.827243,65.6972662 146.827243,66.5256933 C146.827243,67.3541204 146.154926,68.0256933 145.325581,68.0256933 Z M158.089701,68.0256933 C157.260356,68.0256933 156.58804,67.3541204 156.58804,66.5256933 C156.58804,65.6972662 157.260356,65.0256933 158.089701,65.0256933 C158.919046,65.0256933 159.591362,65.6972662 159.591362,66.5256933 C159.591362,67.3541204 158.919046,68.0256933 158.089701,68.0256933 Z M23.2757475,59.0256933 C22.446403,59.0256933 21.7740864,58.3541204 21.7740864,57.5256933 C21.7740864,56.6972662 22.446403,56.0256933 23.2757475,56.0256933 C24.105092,56.0256933 24.7774086,56.6972662 24.7774086,57.5256933 C24.7774086,58.3541204 24.105092,59.0256933 23.2757475,59.0256933 Z M36.0398671,59.0256933 C35.2105226,59.0256933 34.538206,58.3541204 34.538206,57.5256933 C34.538206,56.6972662 35.2105226,56.0256933 36.0398671,56.0256933 C36.8692117,56.0256933 37.5415282,56.6972662 37.5415282,57.5256933 C37.5415282,58.3541204 36.8692117,59.0256933 36.0398671,59.0256933 Z M17.269103,51.5256933 C15.6104139,51.5256933 14.2657807,50.1825475 14.2657807,48.5256933 C14.2657807,46.868839 15.6104139,45.5256933 17.269103,45.5256933 C18.9277921,45.5256933 20.2724252,46.868839 20.2724252,48.5256933 C20.2724252,50.1825475 18.9277921,51.5256933 17.269103,51.5256933 Z M30.0332226,51.5256933 C28.3745335,51.5256933 27.0299003,50.1825475 27.0299003,48.5256933 C27.0299003,46.868839 28.3745335,45.5256933 30.0332226,45.5256933 C31.6919117,45.5256933 33.0365449,46.868839 33.0365449,48.5256933 C33.0365449,50.1825475 31.6919117,51.5256933 30.0332226,51.5256933 Z M17.269103,68.0256933 C16.4397584,68.0256933 15.7674419,67.3541204 15.7674419,66.5256933 C15.7674419,65.6972662 16.4397584,65.0256933 17.269103,65.0256933 C18.0984475,65.0256933 18.7707641,65.6972662 18.7707641,66.5256933 C18.7707641,67.3541204 18.0984475,68.0256933 17.269103,68.0256933 Z M30.0332226,68.0256933 C29.2038781,68.0256933 28.5315615,67.3541204 28.5315615,66.5256933 C28.5315615,65.6972662 29.2038781,65.0256933 30.0332226,65.0256933 C30.8625671,65.0256933 31.5348837,65.6972662 31.5348837,66.5256933 C31.5348837,67.3541204 30.8625671,68.0256933 30.0332226,68.0256933 Z M48.8039867,42.5256933 C47.1452976,42.5256933 45.8006645,41.1825475 45.8006645,39.5256933 C45.8006645,37.868839 47.1452976,36.5256933 48.8039867,36.5256933 C50.4626758,36.5256933 51.807309,37.868839 51.807309,39.5256933 C51.807309,41.1825475 50.4626758,42.5256933 48.8039867,42.5256933 Z M61.5681063,42.5256933 C59.9094172,42.5256933 58.5647841,41.1825475 58.5647841,39.5256933 C58.5647841,37.868839 59.9094172,36.5256933 61.5681063,36.5256933 C63.2267954,36.5256933 64.5714286,37.868839 64.5714286,39.5256933 C64.5714286,41.1825475 63.2267954,42.5256933 61.5681063,42.5256933 Z M48.8039867,59.0256933 C47.9746422,59.0256933 47.3023256,58.3541204 47.3023256,57.5256933 C47.3023256,56.6972662 47.9746422,56.0256933 48.8039867,56.0256933 C49.6333313,56.0256933 50.3056478,56.6972662 50.3056478,57.5256933 C50.3056478,58.3541204 49.6333313,59.0256933 48.8039867,59.0256933 Z M61.5681063,59.0256933 C60.7387618,59.0256933 60.0664452,58.3541204 60.0664452,57.5256933 C60.0664452,56.6972662 60.7387618,56.0256933 61.5681063,56.0256933 C62.3974509,56.0256933 63.0697674,56.6972662 63.0697674,57.5256933 C63.0697674,58.3541204 62.3974509,59.0256933 61.5681063,59.0256933 Z M42.7973422,51.5256933 C41.1386531,51.5256933 39.7940199,50.1825475 39.7940199,48.5256933 C39.7940199,46.868839 41.1386531,45.5256933 42.7973422,45.5256933 C44.4560313,45.5256933 45.8006645,46.868839 45.8006645,48.5256933 C45.8006645,50.1825475 44.4560313,51.5256933 42.7973422,51.5256933 Z M55.5614618,51.5256933 C53.9027727,51.5256933 52.5581395,50.1825475 52.5581395,48.5256933 C52.5581395,46.868839 53.9027727,45.5256933 55.5614618,45.5256933 C57.2201509,45.5256933 58.5647841,46.868839 58.5647841,48.5256933 C58.5647841,50.1825475 57.2201509,51.5256933 55.5614618,51.5256933 Z M42.7973422,68.0256933 C41.9679977,68.0256933 41.2956811,67.3541204 41.2956811,66.5256933 C41.2956811,65.6972662 41.9679977,65.0256933 42.7973422,65.0256933 C43.6266867,65.0256933 44.2990033,65.6972662 44.2990033,66.5256933 C44.2990033,67.3541204 43.6266867,68.0256933 42.7973422,68.0256933 Z M55.5614618,68.0256933 C54.7321173,68.0256933 54.0598007,67.3541204 54.0598007,66.5256933 C54.0598007,65.6972662 54.7321173,65.0256933 55.5614618,65.0256933 C56.3908063,65.0256933 57.0631229,65.6972662 57.0631229,66.5256933 C57.0631229,67.3541204 56.3908063,68.0256933 55.5614618,68.0256933 Z M10.5116279,59.0256933 C9.68228337,59.0256933 9.00996678,58.3541204 9.00996678,57.5256933 C9.00996678,56.6972662 9.68228337,56.0256933 10.5116279,56.0256933 C11.3409724,56.0256933 12.013289,56.6972662 12.013289,57.5256933 C12.013289,58.3541204 11.3409724,59.0256933 10.5116279,59.0256933 Z M4.50498339,51.5256933 C2.84629431,51.5256933 1.50166113,50.1825475 1.50166113,48.5256933 C1.50166113,46.868839 2.84629431,45.5256933 4.50498339,45.5256933 C6.16367247,45.5256933 7.50830565,46.868839 7.50830565,48.5256933 C7.50830565,50.1825475 6.16367247,51.5256933 4.50498339,51.5256933 Z M4.50498339,68.0256933 C3.67563885,68.0256933 3.00332226,67.3541204 3.00332226,66.5256933 C3.00332226,65.6972662 3.67563885,65.0256933 4.50498339,65.0256933 C5.33432793,65.0256933 6.00664452,65.6972662 6.00664452,66.5256933 C6.00664452,67.3541204 5.33432793,68.0256933 4.50498339,68.0256933 Z M74.3322259,42.5256933 C72.6735368,42.5256933 71.3289037,41.1825475 71.3289037,39.5256933 C71.3289037,37.868839 72.6735368,36.5256933 74.3322259,36.5256933 C75.990915,36.5256933 77.3355482,37.868839 77.3355482,39.5256933 C77.3355482,41.1825475 75.990915,42.5256933 74.3322259,42.5256933 Z M74.3322259,59.0256933 C73.5028814,59.0256933 72.8305648,58.3541204 72.8305648,57.5256933 C72.8305648,56.6972662 73.5028814,56.0256933 74.3322259,56.0256933 C75.1615705,56.0256933 75.833887,56.6972662 75.833887,57.5256933 C75.833887,58.3541204 75.1615705,59.0256933 74.3322259,59.0256933 Z M68.3255814,51.5256933 C66.6668923,51.5256933 65.3222591,50.1825475 65.3222591,48.5256933 C65.3222591,46.868839 66.6668923,45.5256933 68.3255814,45.5256933 C69.9842705,45.5256933 71.3289037,46.868839 71.3289037,48.5256933 C71.3289037,50.1825475 69.9842705,51.5256933 68.3255814,51.5256933 Z M68.3255814,68.0256933 C67.4962369,68.0256933 66.8239203,67.3541204 66.8239203,66.5256933 C66.8239203,65.6972662 67.4962369,65.0256933 68.3255814,65.0256933 C69.1549259,65.0256933 69.8272425,65.6972662 69.8272425,66.5256933 C69.8272425,67.3541204 69.1549259,68.0256933 68.3255814,68.0256933 Z M420.139535,42.5256933 C418.480846,42.5256933 417.136213,41.1825475 417.136213,39.5256933 C417.136213,37.868839 418.480846,36.5256933 420.139535,36.5256933 C421.798224,36.5256933 423.142857,37.868839 423.142857,39.5256933 C423.142857,41.1825475 421.798224,42.5256933 420.139535,42.5256933 Z M407.375415,42.5256933 C405.716726,42.5256933 404.372093,41.1825475 404.372093,39.5256933 C404.372093,37.868839 405.716726,36.5256933 407.375415,36.5256933 C409.034104,36.5256933 410.378738,37.868839 410.378738,39.5256933 C410.378738,41.1825475 409.034104,42.5256933 407.375415,42.5256933 Z M420.139535,59.0256933 C419.31019,59.0256933 418.637874,58.3541204 418.637874,57.5256933 C418.637874,56.6972662 419.31019,56.0256933 420.139535,56.0256933 C420.968879,56.0256933 421.641196,56.6972662 421.641196,57.5256933 C421.641196,58.3541204 420.968879,59.0256933 420.139535,59.0256933 Z M407.375415,59.0256933 C406.546071,59.0256933 405.873754,58.3541204 405.873754,57.5256933 C405.873754,56.6972662 406.546071,56.0256933 407.375415,56.0256933 C408.20476,56.0256933 408.877076,56.6972662 408.877076,57.5256933 C408.877076,58.3541204 408.20476,59.0256933 407.375415,59.0256933 Z M426.146179,51.5256933 C424.48749,51.5256933 423.142857,50.1825475 423.142857,48.5256933 C423.142857,46.868839 424.48749,45.5256933 426.146179,45.5256933 C427.804868,45.5256933 429.149502,46.868839 429.149502,48.5256933 C429.149502,50.1825475 427.804868,51.5256933 426.146179,51.5256933 Z M413.38206,51.5256933 C411.723371,51.5256933 410.378738,50.1825475 410.378738,48.5256933 C410.378738,46.868839 411.723371,45.5256933 413.38206,45.5256933 C415.040749,45.5256933 416.385382,46.868839 416.385382,48.5256933 C416.385382,50.1825475 415.040749,51.5256933 413.38206,51.5256933 Z M426.146179,35.0256933 C423.658146,35.0256933 421.641196,33.0109747 421.641196,30.5256933 C421.641196,28.0404119 423.658146,26.0256933 426.146179,26.0256933 C428.634213,26.0256933 430.651163,28.0404119 430.651163,30.5256933 C430.651163,33.0109747 428.634213,35.0256933 426.146179,35.0256933 Z M413.38206,35.0256933 C410.894026,35.0256933 408.877076,33.0109747 408.877076,30.5256933 C408.877076,28.0404119 410.894026,26.0256933 413.38206,26.0256933 C415.870093,26.0256933 417.887043,28.0404119 417.887043,30.5256933 C417.887043,33.0109747 415.870093,35.0256933 413.38206,35.0256933 Z M426.146179,68.0256933 C425.316835,68.0256933 424.644518,67.3541204 424.644518,66.5256933 C424.644518,65.6972662 425.316835,65.0256933 426.146179,65.0256933 C426.975524,65.0256933 427.647841,65.6972662 427.647841,66.5256933 C427.647841,67.3541204 426.975524,68.0256933 426.146179,68.0256933 Z M413.38206,68.0256933 C412.552715,68.0256933 411.880399,67.3541204 411.880399,66.5256933 C411.880399,65.6972662 412.552715,65.0256933 413.38206,65.0256933 C414.211404,65.0256933 414.883721,65.6972662 414.883721,66.5256933 C414.883721,67.3541204 414.211404,68.0256933 413.38206,68.0256933 Z M369.083056,42.5256933 C367.424367,42.5256933 366.079734,41.1825475 366.079734,39.5256933 C366.079734,37.868839 367.424367,36.5256933 369.083056,36.5256933 C370.741746,36.5256933 372.086379,37.868839 372.086379,39.5256933 C372.086379,41.1825475 370.741746,42.5256933 369.083056,42.5256933 Z M356.318937,42.5256933 C354.660248,42.5256933 353.315615,41.1825475 353.315615,39.5256933 C353.315615,37.868839 354.660248,36.5256933 356.318937,36.5256933 C357.977626,36.5256933 359.322259,37.868839 359.322259,39.5256933 C359.322259,41.1825475 357.977626,42.5256933 356.318937,42.5256933 Z M369.083056,59.0256933 C368.253712,59.0256933 367.581395,58.3541204 367.581395,57.5256933 C367.581395,56.6972662 368.253712,56.0256933 369.083056,56.0256933 C369.912401,56.0256933 370.584718,56.6972662 370.584718,57.5256933 C370.584718,58.3541204 369.912401,59.0256933 369.083056,59.0256933 Z M356.318937,59.0256933 C355.489592,59.0256933 354.817276,58.3541204 354.817276,57.5256933 C354.817276,56.6972662 355.489592,56.0256933 356.318937,56.0256933 C357.148281,56.0256933 357.820598,56.6972662 357.820598,57.5256933 C357.820598,58.3541204 357.148281,59.0256933 356.318937,59.0256933 Z M375.089701,51.5256933 C373.431012,51.5256933 372.086379,50.1825475 372.086379,48.5256933 C372.086379,46.868839 373.431012,45.5256933 375.089701,45.5256933 C376.74839,45.5256933 378.093023,46.868839 378.093023,48.5256933 C378.093023,50.1825475 376.74839,51.5256933 375.089701,51.5256933 Z M362.325581,51.5256933 C360.666892,51.5256933 359.322259,50.1825475 359.322259,48.5256933 C359.322259,46.868839 360.666892,45.5256933 362.325581,45.5256933 C363.98427,45.5256933 365.328904,46.868839 365.328904,48.5256933 C365.328904,50.1825475 363.98427,51.5256933 362.325581,51.5256933 Z M375.089701,35.0256933 C372.601667,35.0256933 370.584718,33.0109747 370.584718,30.5256933 C370.584718,28.0404119 372.601667,26.0256933 375.089701,26.0256933 C377.577735,26.0256933 379.594684,28.0404119 379.594684,30.5256933 C379.594684,33.0109747 377.577735,35.0256933 375.089701,35.0256933 Z M362.325581,35.0256933 C359.837548,35.0256933 357.820598,33.0109747 357.820598,30.5256933 C357.820598,28.0404119 359.837548,26.0256933 362.325581,26.0256933 C364.813615,26.0256933 366.830565,28.0404119 366.830565,30.5256933 C366.830565,33.0109747 364.813615,35.0256933 362.325581,35.0256933 Z M375.089701,68.0256933 C374.260356,68.0256933 373.58804,67.3541204 373.58804,66.5256933 C373.58804,65.6972662 374.260356,65.0256933 375.089701,65.0256933 C375.919046,65.0256933 376.591362,65.6972662 376.591362,66.5256933 C376.591362,67.3541204 375.919046,68.0256933 375.089701,68.0256933 Z M362.325581,68.0256933 C361.496237,68.0256933 360.82392,67.3541204 360.82392,66.5256933 C360.82392,65.6972662 361.496237,65.0256933 362.325581,65.0256933 C363.154926,65.0256933 363.827243,65.6972662 363.827243,66.5256933 C363.827243,67.3541204 363.154926,68.0256933 362.325581,68.0256933 Z M394.611296,42.5256933 C392.952607,42.5256933 391.607973,41.1825475 391.607973,39.5256933 C391.607973,37.868839 392.952607,36.5256933 394.611296,36.5256933 C396.269985,36.5256933 397.614618,37.868839 397.614618,39.5256933 C397.614618,41.1825475 396.269985,42.5256933 394.611296,42.5256933 Z M381.847176,42.5256933 C380.188487,42.5256933 378.843854,41.1825475 378.843854,39.5256933 C378.843854,37.868839 380.188487,36.5256933 381.847176,36.5256933 C383.505865,36.5256933 384.850498,37.868839 384.850498,39.5256933 C384.850498,41.1825475 383.505865,42.5256933 381.847176,42.5256933 Z M394.611296,59.0256933 C393.781951,59.0256933 393.109635,58.3541204 393.109635,57.5256933 C393.109635,56.6972662 393.781951,56.0256933 394.611296,56.0256933 C395.44064,56.0256933 396.112957,56.6972662 396.112957,57.5256933 C396.112957,58.3541204 395.44064,59.0256933 394.611296,59.0256933 Z M381.847176,59.0256933 C381.017832,59.0256933 380.345515,58.3541204 380.345515,57.5256933 C380.345515,56.6972662 381.017832,56.0256933 381.847176,56.0256933 C382.676521,56.0256933 383.348837,56.6972662 383.348837,57.5256933 C383.348837,58.3541204 382.676521,59.0256933 381.847176,59.0256933 Z M400.61794,51.5256933 C398.959251,51.5256933 397.614618,50.1825475 397.614618,48.5256933 C397.614618,46.868839 398.959251,45.5256933 400.61794,45.5256933 C402.276629,45.5256933 403.621262,46.868839 403.621262,48.5256933 C403.621262,50.1825475 402.276629,51.5256933 400.61794,51.5256933 Z M387.853821,51.5256933 C386.195132,51.5256933 384.850498,50.1825475 384.850498,48.5256933 C384.850498,46.868839 386.195132,45.5256933 387.853821,45.5256933 C389.51251,45.5256933 390.857143,46.868839 390.857143,48.5256933 C390.857143,50.1825475 389.51251,51.5256933 387.853821,51.5256933 Z M400.61794,35.0256933 C398.129907,35.0256933 396.112957,33.0109747 396.112957,30.5256933 C396.112957,28.0404119 398.129907,26.0256933 400.61794,26.0256933 C403.105974,26.0256933 405.122924,28.0404119 405.122924,30.5256933 C405.122924,33.0109747 403.105974,35.0256933 400.61794,35.0256933 Z M387.853821,35.0256933 C385.365787,35.0256933 383.348837,33.0109747 383.348837,30.5256933 C383.348837,28.0404119 385.365787,26.0256933 387.853821,26.0256933 C390.341854,26.0256933 392.358804,28.0404119 392.358804,30.5256933 C392.358804,33.0109747 390.341854,35.0256933 387.853821,35.0256933 Z M400.61794,68.0256933 C399.788596,68.0256933 399.116279,67.3541204 399.116279,66.5256933 C399.116279,65.6972662 399.788596,65.0256933 400.61794,65.0256933 C401.447285,65.0256933 402.119601,65.6972662 402.119601,66.5256933 C402.119601,67.3541204 401.447285,68.0256933 400.61794,68.0256933 Z M387.853821,68.0256933 C387.024476,68.0256933 386.352159,67.3541204 386.352159,66.5256933 C386.352159,65.6972662 387.024476,65.0256933 387.853821,65.0256933 C388.683165,65.0256933 389.355482,65.6972662 389.355482,66.5256933 C389.355482,67.3541204 388.683165,68.0256933 387.853821,68.0256933 Z M343.554817,42.5256933 C341.896128,42.5256933 340.551495,41.1825475 340.551495,39.5256933 C340.551495,37.868839 341.896128,36.5256933 343.554817,36.5256933 C345.213506,36.5256933 346.55814,37.868839 346.55814,39.5256933 C346.55814,41.1825475 345.213506,42.5256933 343.554817,42.5256933 Z M330.790698,42.5256933 C329.132009,42.5256933 327.787375,41.1825475 327.787375,39.5256933 C327.787375,37.868839 329.132009,36.5256933 330.790698,36.5256933 C332.449387,36.5256933 333.79402,37.868839 333.79402,39.5256933 C333.79402,41.1825475 332.449387,42.5256933 330.790698,42.5256933 Z M343.554817,59.0256933 C342.725473,59.0256933 342.053156,58.3541204 342.053156,57.5256933 C342.053156,56.6972662 342.725473,56.0256933 343.554817,56.0256933 C344.384162,56.0256933 345.056478,56.6972662 345.056478,57.5256933 C345.056478,58.3541204 344.384162,59.0256933 343.554817,59.0256933 Z M330.790698,59.0256933 C329.961353,59.0256933 329.289037,58.3541204 329.289037,57.5256933 C329.289037,56.6972662 329.961353,56.0256933 330.790698,56.0256933 C331.620042,56.0256933 332.292359,56.6972662 332.292359,57.5256933 C332.292359,58.3541204 331.620042,59.0256933 330.790698,59.0256933 Z M349.561462,51.5256933 C347.902773,51.5256933 346.55814,50.1825475 346.55814,48.5256933 C346.55814,46.868839 347.902773,45.5256933 349.561462,45.5256933 C351.220151,45.5256933 352.564784,46.868839 352.564784,48.5256933 C352.564784,50.1825475 351.220151,51.5256933 349.561462,51.5256933 Z M336.797342,51.5256933 C335.138653,51.5256933 333.79402,50.1825475 333.79402,48.5256933 C333.79402,46.868839 335.138653,45.5256933 336.797342,45.5256933 C338.456031,45.5256933 339.800664,46.868839 339.800664,48.5256933 C339.800664,50.1825475 338.456031,51.5256933 336.797342,51.5256933 Z M324.033223,51.5256933 C322.374534,51.5256933 321.0299,50.1825475 321.0299,48.5256933 C321.0299,46.868839 322.374534,45.5256933 324.033223,45.5256933 C325.691912,45.5256933 327.036545,46.868839 327.036545,48.5256933 C327.036545,50.1825475 325.691912,51.5256933 324.033223,51.5256933 Z M349.561462,35.0256933 C347.073428,35.0256933 345.056478,33.0109747 345.056478,30.5256933 C345.056478,28.0404119 347.073428,26.0256933 349.561462,26.0256933 C352.049495,26.0256933 354.066445,28.0404119 354.066445,30.5256933 C354.066445,33.0109747 352.049495,35.0256933 349.561462,35.0256933 Z M336.797342,35.0256933 C334.309309,35.0256933 332.292359,33.0109747 332.292359,30.5256933 C332.292359,28.0404119 334.309309,26.0256933 336.797342,26.0256933 C339.285376,26.0256933 341.302326,28.0404119 341.302326,30.5256933 C341.302326,33.0109747 339.285376,35.0256933 336.797342,35.0256933 Z M324.033223,35.0256933 C321.545189,35.0256933 319.528239,33.0109747 319.528239,30.5256933 C319.528239,28.0404119 321.545189,26.0256933 324.033223,26.0256933 C326.521256,26.0256933 328.538206,28.0404119 328.538206,30.5256933 C328.538206,33.0109747 326.521256,35.0256933 324.033223,35.0256933 Z M349.561462,68.0256933 C348.732117,68.0256933 348.059801,67.3541204 348.059801,66.5256933 C348.059801,65.6972662 348.732117,65.0256933 349.561462,65.0256933 C350.390806,65.0256933 351.063123,65.6972662 351.063123,66.5256933 C351.063123,67.3541204 350.390806,68.0256933 349.561462,68.0256933 Z M336.797342,68.0256933 C335.967998,68.0256933 335.295681,67.3541204 335.295681,66.5256933 C335.295681,65.6972662 335.967998,65.0256933 336.797342,65.0256933 C337.626687,65.0256933 338.299003,65.6972662 338.299003,66.5256933 C338.299003,67.3541204 337.626687,68.0256933 336.797342,68.0256933 Z M324.033223,68.0256933 C323.203878,68.0256933 322.531561,67.3541204 322.531561,66.5256933 C322.531561,65.6972662 323.203878,65.0256933 324.033223,65.0256933 C324.862567,65.0256933 325.534884,65.6972662 325.534884,66.5256933 C325.534884,67.3541204 324.862567,68.0256933 324.033223,68.0256933 Z M318.026578,42.5256933 C316.367889,42.5256933 315.023256,41.1825475 315.023256,39.5256933 C315.023256,37.868839 316.367889,36.5256933 318.026578,36.5256933 C319.685267,36.5256933 321.0299,37.868839 321.0299,39.5256933 C321.0299,41.1825475 319.685267,42.5256933 318.026578,42.5256933 Z M305.262458,42.5256933 C303.603769,42.5256933 302.259136,41.1825475 302.259136,39.5256933 C302.259136,37.868839 303.603769,36.5256933 305.262458,36.5256933 C306.921148,36.5256933 308.265781,37.868839 308.265781,39.5256933 C308.265781,41.1825475 306.921148,42.5256933 305.262458,42.5256933 Z M318.026578,59.0256933 C317.197234,59.0256933 316.524917,58.3541204 316.524917,57.5256933 C316.524917,56.6972662 317.197234,56.0256933 318.026578,56.0256933 C318.855923,56.0256933 319.528239,56.6972662 319.528239,57.5256933 C319.528239,58.3541204 318.855923,59.0256933 318.026578,59.0256933 Z M305.262458,59.0256933 C304.433114,59.0256933 303.760797,58.3541204 303.760797,57.5256933 C303.760797,56.6972662 304.433114,56.0256933 305.262458,56.0256933 C306.091803,56.0256933 306.76412,56.6972662 306.76412,57.5256933 C306.76412,58.3541204 306.091803,59.0256933 305.262458,59.0256933 Z M311.269103,51.5256933 C309.610414,51.5256933 308.265781,50.1825475 308.265781,48.5256933 C308.265781,46.868839 309.610414,45.5256933 311.269103,45.5256933 C312.927792,45.5256933 314.272425,46.868839 314.272425,48.5256933 C314.272425,50.1825475 312.927792,51.5256933 311.269103,51.5256933 Z M311.269103,35.0256933 C308.781069,35.0256933 306.76412,33.0109747 306.76412,30.5256933 C306.76412,28.0404119 308.781069,26.0256933 311.269103,26.0256933 C313.757137,26.0256933 315.774086,28.0404119 315.774086,30.5256933 C315.774086,33.0109747 313.757137,35.0256933 311.269103,35.0256933 Z M311.269103,68.0256933 C310.439758,68.0256933 309.767442,67.3541204 309.767442,66.5256933 C309.767442,65.6972662 310.439758,65.0256933 311.269103,65.0256933 C312.098448,65.0256933 312.770764,65.6972662 312.770764,66.5256933 C312.770764,67.3541204 312.098448,68.0256933 311.269103,68.0256933 Z M496.724252,42.5256933 C495.065563,42.5256933 493.72093,41.1825475 493.72093,39.5256933 C493.72093,37.868839 495.065563,36.5256933 496.724252,36.5256933 C498.382942,36.5256933 499.727575,37.868839 499.727575,39.5256933 C499.727575,41.1825475 498.382942,42.5256933 496.724252,42.5256933 Z M483.960133,42.5256933 C482.301444,42.5256933 480.956811,41.1825475 480.956811,39.5256933 C480.956811,37.868839 482.301444,36.5256933 483.960133,36.5256933 C485.618822,36.5256933 486.963455,37.868839 486.963455,39.5256933 C486.963455,41.1825475 485.618822,42.5256933 483.960133,42.5256933 Z M496.724252,59.0256933 C495.894908,59.0256933 495.222591,58.3541204 495.222591,57.5256933 C495.222591,56.6972662 495.894908,56.0256933 496.724252,56.0256933 C497.553597,56.0256933 498.225914,56.6972662 498.225914,57.5256933 C498.225914,58.3541204 497.553597,59.0256933 496.724252,59.0256933 Z M483.960133,59.0256933 C483.130788,59.0256933 482.458472,58.3541204 482.458472,57.5256933 C482.458472,56.6972662 483.130788,56.0256933 483.960133,56.0256933 C484.789477,56.0256933 485.461794,56.6972662 485.461794,57.5256933 C485.461794,58.3541204 484.789477,59.0256933 483.960133,59.0256933 Z M502.730897,51.5256933 C501.072208,51.5256933 499.727575,50.1825475 499.727575,48.5256933 C499.727575,46.868839 501.072208,45.5256933 502.730897,45.5256933 C504.389586,45.5256933 505.734219,46.868839 505.734219,48.5256933 C505.734219,50.1825475 504.389586,51.5256933 502.730897,51.5256933 Z M489.966777,51.5256933 C488.308088,51.5256933 486.963455,50.1825475 486.963455,48.5256933 C486.963455,46.868839 488.308088,45.5256933 489.966777,45.5256933 C491.625466,45.5256933 492.9701,46.868839 492.9701,48.5256933 C492.9701,50.1825475 491.625466,51.5256933 489.966777,51.5256933 Z M502.730897,68.0256933 C501.901552,68.0256933 501.229236,67.3541204 501.229236,66.5256933 C501.229236,65.6972662 501.901552,65.0256933 502.730897,65.0256933 C503.560242,65.0256933 504.232558,65.6972662 504.232558,66.5256933 C504.232558,67.3541204 503.560242,68.0256933 502.730897,68.0256933 Z M489.966777,68.0256933 C489.137433,68.0256933 488.465116,67.3541204 488.465116,66.5256933 C488.465116,65.6972662 489.137433,65.0256933 489.966777,65.0256933 C490.796122,65.0256933 491.468439,65.6972662 491.468439,66.5256933 C491.468439,67.3541204 490.796122,68.0256933 489.966777,68.0256933 Z M471.196013,42.5256933 C469.537324,42.5256933 468.192691,41.1825475 468.192691,39.5256933 C468.192691,37.868839 469.537324,36.5256933 471.196013,36.5256933 C472.854702,36.5256933 474.199336,37.868839 474.199336,39.5256933 C474.199336,41.1825475 472.854702,42.5256933 471.196013,42.5256933 Z M458.431894,42.5256933 C456.773205,42.5256933 455.428571,41.1825475 455.428571,39.5256933 C455.428571,37.868839 456.773205,36.5256933 458.431894,36.5256933 C460.090583,36.5256933 461.435216,37.868839 461.435216,39.5256933 C461.435216,41.1825475 460.090583,42.5256933 458.431894,42.5256933 Z M471.196013,59.0256933 C470.366669,59.0256933 469.694352,58.3541204 469.694352,57.5256933 C469.694352,56.6972662 470.366669,56.0256933 471.196013,56.0256933 C472.025358,56.0256933 472.697674,56.6972662 472.697674,57.5256933 C472.697674,58.3541204 472.025358,59.0256933 471.196013,59.0256933 Z M458.431894,59.0256933 C457.602549,59.0256933 456.930233,58.3541204 456.930233,57.5256933 C456.930233,56.6972662 457.602549,56.0256933 458.431894,56.0256933 C459.261238,56.0256933 459.933555,56.6972662 459.933555,57.5256933 C459.933555,58.3541204 459.261238,59.0256933 458.431894,59.0256933 Z M477.202658,51.5256933 C475.543969,51.5256933 474.199336,50.1825475 474.199336,48.5256933 C474.199336,46.868839 475.543969,45.5256933 477.202658,45.5256933 C478.861347,45.5256933 480.20598,46.868839 480.20598,48.5256933 C480.20598,50.1825475 478.861347,51.5256933 477.202658,51.5256933 Z M464.438538,51.5256933 C462.779849,51.5256933 461.435216,50.1825475 461.435216,48.5256933 C461.435216,46.868839 462.779849,45.5256933 464.438538,45.5256933 C466.097227,45.5256933 467.44186,46.868839 467.44186,48.5256933 C467.44186,50.1825475 466.097227,51.5256933 464.438538,51.5256933 Z M477.202658,35.0256933 C474.714624,35.0256933 472.697674,33.0109747 472.697674,30.5256933 C472.697674,28.0404119 474.714624,26.0256933 477.202658,26.0256933 C479.690691,26.0256933 481.707641,28.0404119 481.707641,30.5256933 C481.707641,33.0109747 479.690691,35.0256933 477.202658,35.0256933 Z M464.438538,35.0256933 C461.950505,35.0256933 459.933555,33.0109747 459.933555,30.5256933 C459.933555,28.0404119 461.950505,26.0256933 464.438538,26.0256933 C466.926572,26.0256933 468.943522,28.0404119 468.943522,30.5256933 C468.943522,33.0109747 466.926572,35.0256933 464.438538,35.0256933 Z M477.202658,68.0256933 C476.373313,68.0256933 475.700997,67.3541204 475.700997,66.5256933 C475.700997,65.6972662 476.373313,65.0256933 477.202658,65.0256933 C478.032002,65.0256933 478.704319,65.6972662 478.704319,66.5256933 C478.704319,67.3541204 478.032002,68.0256933 477.202658,68.0256933 Z M464.438538,68.0256933 C463.609194,68.0256933 462.936877,67.3541204 462.936877,66.5256933 C462.936877,65.6972662 463.609194,65.0256933 464.438538,65.0256933 C465.267883,65.0256933 465.940199,65.6972662 465.940199,66.5256933 C465.940199,67.3541204 465.267883,68.0256933 464.438538,68.0256933 Z M509.488372,42.5256933 C507.829683,42.5256933 506.48505,41.1825475 506.48505,39.5256933 C506.48505,37.868839 507.829683,36.5256933 509.488372,36.5256933 C511.147061,36.5256933 512.491694,37.868839 512.491694,39.5256933 C512.491694,41.1825475 511.147061,42.5256933 509.488372,42.5256933 Z M509.488372,59.0256933 C508.659028,59.0256933 507.986711,58.3541204 507.986711,57.5256933 C507.986711,56.6972662 508.659028,56.0256933 509.488372,56.0256933 C510.317717,56.0256933 510.990033,56.6972662 510.990033,57.5256933 C510.990033,58.3541204 510.317717,59.0256933 509.488372,59.0256933 Z M515.495017,51.5256933 C513.836328,51.5256933 512.491694,50.1825475 512.491694,48.5256933 C512.491694,46.868839 513.836328,45.5256933 515.495017,45.5256933 C517.153706,45.5256933 518.498339,46.868839 518.498339,48.5256933 C518.498339,50.1825475 517.153706,51.5256933 515.495017,51.5256933 Z M515.495017,68.0256933 C514.665672,68.0256933 513.993355,67.3541204 513.993355,66.5256933 C513.993355,65.6972662 514.665672,65.0256933 515.495017,65.0256933 C516.324361,65.0256933 516.996678,65.6972662 516.996678,66.5256933 C516.996678,67.3541204 516.324361,68.0256933 515.495017,68.0256933 Z M445.667774,42.5256933 C444.009085,42.5256933 442.664452,41.1825475 442.664452,39.5256933 C442.664452,37.868839 444.009085,36.5256933 445.667774,36.5256933 C447.326463,36.5256933 448.671096,37.868839 448.671096,39.5256933 C448.671096,41.1825475 447.326463,42.5256933 445.667774,42.5256933 Z M432.903654,42.5256933 C431.244965,42.5256933 429.900332,41.1825475 429.900332,39.5256933 C429.900332,37.868839 431.244965,36.5256933 432.903654,36.5256933 C434.562344,36.5256933 435.906977,37.868839 435.906977,39.5256933 C435.906977,41.1825475 434.562344,42.5256933 432.903654,42.5256933 Z M445.667774,59.0256933 C444.83843,59.0256933 444.166113,58.3541204 444.166113,57.5256933 C444.166113,56.6972662 444.83843,56.0256933 445.667774,56.0256933 C446.497119,56.0256933 447.169435,56.6972662 447.169435,57.5256933 C447.169435,58.3541204 446.497119,59.0256933 445.667774,59.0256933 Z M432.903654,59.0256933 C432.07431,59.0256933 431.401993,58.3541204 431.401993,57.5256933 C431.401993,56.6972662 432.07431,56.0256933 432.903654,56.0256933 C433.732999,56.0256933 434.405316,56.6972662 434.405316,57.5256933 C434.405316,58.3541204 433.732999,59.0256933 432.903654,59.0256933 Z M451.674419,51.5256933 C450.01573,51.5256933 448.671096,50.1825475 448.671096,48.5256933 C448.671096,46.868839 450.01573,45.5256933 451.674419,45.5256933 C453.333108,45.5256933 454.677741,46.868839 454.677741,48.5256933 C454.677741,50.1825475 453.333108,51.5256933 451.674419,51.5256933 Z M438.910299,51.5256933 C437.25161,51.5256933 435.906977,50.1825475 435.906977,48.5256933 C435.906977,46.868839 437.25161,45.5256933 438.910299,45.5256933 C440.568988,45.5256933 441.913621,46.868839 441.913621,48.5256933 C441.913621,50.1825475 440.568988,51.5256933 438.910299,51.5256933 Z M451.674419,35.0256933 C449.186385,35.0256933 447.169435,33.0109747 447.169435,30.5256933 C447.169435,28.0404119 449.186385,26.0256933 451.674419,26.0256933 C454.162452,26.0256933 456.179402,28.0404119 456.179402,30.5256933 C456.179402,33.0109747 454.162452,35.0256933 451.674419,35.0256933 Z M438.910299,35.0256933 C436.422265,35.0256933 434.405316,33.0109747 434.405316,30.5256933 C434.405316,28.0404119 436.422265,26.0256933 438.910299,26.0256933 C441.398333,26.0256933 443.415282,28.0404119 443.415282,30.5256933 C443.415282,33.0109747 441.398333,35.0256933 438.910299,35.0256933 Z M451.674419,68.0256933 C450.845074,68.0256933 450.172757,67.3541204 450.172757,66.5256933 C450.172757,65.6972662 450.845074,65.0256933 451.674419,65.0256933 C452.503763,65.0256933 453.17608,65.6972662 453.17608,66.5256933 C453.17608,67.3541204 452.503763,68.0256933 451.674419,68.0256933 Z M438.910299,68.0256933 C438.080954,68.0256933 437.408638,67.3541204 437.408638,66.5256933 C437.408638,65.6972662 438.080954,65.0256933 438.910299,65.0256933 C439.739644,65.0256933 440.41196,65.6972662 440.41196,66.5256933 C440.41196,67.3541204 439.739644,68.0256933 438.910299,68.0256933 Z M573.724252,59.0256933 C572.894908,59.0256933 572.222591,58.3541204 572.222591,57.5256933 C572.222591,56.6972662 572.894908,56.0256933 573.724252,56.0256933 C574.553597,56.0256933 575.225914,56.6972662 575.225914,57.5256933 C575.225914,58.3541204 574.553597,59.0256933 573.724252,59.0256933 Z M560.960133,59.0256933 C560.130788,59.0256933 559.458472,58.3541204 559.458472,57.5256933 C559.458472,56.6972662 560.130788,56.0256933 560.960133,56.0256933 C561.789477,56.0256933 562.461794,56.6972662 562.461794,57.5256933 C562.461794,58.3541204 561.789477,59.0256933 560.960133,59.0256933 Z M579.730897,51.5256933 C578.072208,51.5256933 576.727575,50.1825475 576.727575,48.5256933 C576.727575,46.868839 578.072208,45.5256933 579.730897,45.5256933 C581.389586,45.5256933 582.734219,46.868839 582.734219,48.5256933 C582.734219,50.1825475 581.389586,51.5256933 579.730897,51.5256933 Z M566.966777,51.5256933 C565.308088,51.5256933 563.963455,50.1825475 563.963455,48.5256933 C563.963455,46.868839 565.308088,45.5256933 566.966777,45.5256933 C568.625466,45.5256933 569.9701,46.868839 569.9701,48.5256933 C569.9701,50.1825475 568.625466,51.5256933 566.966777,51.5256933 Z M579.730897,68.0256933 C578.901552,68.0256933 578.229236,67.3541204 578.229236,66.5256933 C578.229236,65.6972662 578.901552,65.0256933 579.730897,65.0256933 C580.560242,65.0256933 581.232558,65.6972662 581.232558,66.5256933 C581.232558,67.3541204 580.560242,68.0256933 579.730897,68.0256933 Z M566.966777,68.0256933 C566.137433,68.0256933 565.465116,67.3541204 565.465116,66.5256933 C565.465116,65.6972662 566.137433,65.0256933 566.966777,65.0256933 C567.796122,65.0256933 568.468439,65.6972662 568.468439,66.5256933 C568.468439,67.3541204 567.796122,68.0256933 566.966777,68.0256933 Z M548.196013,42.5256933 C546.537324,42.5256933 545.192691,41.1825475 545.192691,39.5256933 C545.192691,37.868839 546.537324,36.5256933 548.196013,36.5256933 C549.854702,36.5256933 551.199336,37.868839 551.199336,39.5256933 C551.199336,41.1825475 549.854702,42.5256933 548.196013,42.5256933 Z M535.431894,42.5256933 C533.773205,42.5256933 532.428571,41.1825475 532.428571,39.5256933 C532.428571,37.868839 533.773205,36.5256933 535.431894,36.5256933 C537.090583,36.5256933 538.435216,37.868839 538.435216,39.5256933 C538.435216,41.1825475 537.090583,42.5256933 535.431894,42.5256933 Z M548.196013,59.0256933 C547.366669,59.0256933 546.694352,58.3541204 546.694352,57.5256933 C546.694352,56.6972662 547.366669,56.0256933 548.196013,56.0256933 C549.025358,56.0256933 549.697674,56.6972662 549.697674,57.5256933 C549.697674,58.3541204 549.025358,59.0256933 548.196013,59.0256933 Z M535.431894,59.0256933 C534.602549,59.0256933 533.930233,58.3541204 533.930233,57.5256933 C533.930233,56.6972662 534.602549,56.0256933 535.431894,56.0256933 C536.261238,56.0256933 536.933555,56.6972662 536.933555,57.5256933 C536.933555,58.3541204 536.261238,59.0256933 535.431894,59.0256933 Z M554.202658,51.5256933 C552.543969,51.5256933 551.199336,50.1825475 551.199336,48.5256933 C551.199336,46.868839 552.543969,45.5256933 554.202658,45.5256933 C555.861347,45.5256933 557.20598,46.868839 557.20598,48.5256933 C557.20598,50.1825475 555.861347,51.5256933 554.202658,51.5256933 Z M541.438538,51.5256933 C539.779849,51.5256933 538.435216,50.1825475 538.435216,48.5256933 C538.435216,46.868839 539.779849,45.5256933 541.438538,45.5256933 C543.097227,45.5256933 544.44186,46.868839 544.44186,48.5256933 C544.44186,50.1825475 543.097227,51.5256933 541.438538,51.5256933 Z M554.202658,68.0256933 C553.373313,68.0256933 552.700997,67.3541204 552.700997,66.5256933 C552.700997,65.6972662 553.373313,65.0256933 554.202658,65.0256933 C555.032002,65.0256933 555.704319,65.6972662 555.704319,66.5256933 C555.704319,67.3541204 555.032002,68.0256933 554.202658,68.0256933 Z M541.438538,68.0256933 C540.609194,68.0256933 539.936877,67.3541204 539.936877,66.5256933 C539.936877,65.6972662 540.609194,65.0256933 541.438538,65.0256933 C542.267883,65.0256933 542.940199,65.6972662 542.940199,66.5256933 C542.940199,67.3541204 542.267883,68.0256933 541.438538,68.0256933 Z M586.488372,59.0256933 C585.659028,59.0256933 584.986711,58.3541204 584.986711,57.5256933 C584.986711,56.6972662 585.659028,56.0256933 586.488372,56.0256933 C587.317717,56.0256933 587.990033,56.6972662 587.990033,57.5256933 C587.990033,58.3541204 587.317717,59.0256933 586.488372,59.0256933 Z M592.495017,51.5256933 C590.836328,51.5256933 589.491694,50.1825475 589.491694,48.5256933 C589.491694,46.868839 590.836328,45.5256933 592.495017,45.5256933 C594.153706,45.5256933 595.498339,46.868839 595.498339,48.5256933 C595.498339,50.1825475 594.153706,51.5256933 592.495017,51.5256933 Z M592.495017,68.0256933 C591.665672,68.0256933 590.993355,67.3541204 590.993355,66.5256933 C590.993355,65.6972662 591.665672,65.0256933 592.495017,65.0256933 C593.324361,65.0256933 593.996678,65.6972662 593.996678,66.5256933 C593.996678,67.3541204 593.324361,68.0256933 592.495017,68.0256933 Z M522.667774,42.5256933 C521.009085,42.5256933 519.664452,41.1825475 519.664452,39.5256933 C519.664452,37.868839 521.009085,36.5256933 522.667774,36.5256933 C524.326463,36.5256933 525.671096,37.868839 525.671096,39.5256933 C525.671096,41.1825475 524.326463,42.5256933 522.667774,42.5256933 Z M522.667774,59.0256933 C521.83843,59.0256933 521.166113,58.3541204 521.166113,57.5256933 C521.166113,56.6972662 521.83843,56.0256933 522.667774,56.0256933 C523.497119,56.0256933 524.169435,56.6972662 524.169435,57.5256933 C524.169435,58.3541204 523.497119,59.0256933 522.667774,59.0256933 Z M528.674419,51.5256933 C527.01573,51.5256933 525.671096,50.1825475 525.671096,48.5256933 C525.671096,46.868839 527.01573,45.5256933 528.674419,45.5256933 C530.333108,45.5256933 531.677741,46.868839 531.677741,48.5256933 C531.677741,50.1825475 530.333108,51.5256933 528.674419,51.5256933 Z M528.674419,68.0256933 C527.845074,68.0256933 527.172757,67.3541204 527.172757,66.5256933 C527.172757,65.6972662 527.845074,65.0256933 528.674419,65.0256933 C529.503763,65.0256933 530.17608,65.6972662 530.17608,66.5256933 C530.17608,67.3541204 529.503763,68.0256933 528.674419,68.0256933 Z" id="Shape"></path>
            <polygon id="Path-2" points="11.1785696 111.994005 41.3831729 102 15 94 30.4244527 100.12719"></polygon>
            <polygon id="Path-2" transform="translate(570.719129, 102.997002) scale(-1, 1) translate(-570.719129, -102.997002) " points="555.616827 111.994005 585.82143 102 559.438258 94 574.86271 100.12719"></polygon>
        </g>
    </g>
</svg>