<?xml version="1.0" encoding="UTF-8"?>
<svg width="59px" height="63px" viewBox="0 0 59 63" version="1.1" xmlns="http://www.w3.org/2000/svg" xmlns:xlink="http://www.w3.org/1999/xlink">
    <!-- Generator: Sketch 55.2 (78181) - https://sketchapp.com -->
    <title>text-box-style-1-corner-back</title>
    <desc>Created with Sketch.</desc>
    <g id="Page-1" stroke="none" stroke-width="1" fill="none" fill-rule="evenodd">
        <g id="Artboard" transform="translate(-150.000000, -321.000000)" fill="#FFFFFF" fill-rule="nonzero">
            <path d="M205.490661,362.972512 L187.972603,380.49057 C183.293364,385.16981 175.706818,385.16981 171.027578,380.49057 L153.50952,362.972512 C152.61747,362.080462 151.88155,361.066738 151.317711,359.967337 C150.508505,359.235385 150,358.177066 150,357 L150,351 C150,350.938524 150.001478,350.877372 150.004222,350.816573 C149.918069,347.561285 151.152688,344.38432 153.50952,342.027488 L171.027578,324.50943 C175.706818,319.83019 183.293364,319.83019 187.972603,324.50943 L205.490661,342.027488 C207.847493,344.38432 209.082113,347.561285 208.99596,350.816573 C208.998704,350.877372 209.000181,350.938524 209.000181,351 L209.000181,357 C209.000181,358.177066 208.491677,359.235385 207.682471,359.967337 C207.118632,361.066738 206.382711,362.080462 205.490661,362.972512 Z" id="text-box-style-1-corner-back"></path>
        </g>
    </g>
</svg>