<?xml version="1.0" encoding="UTF-8"?>
<svg width="703px" height="69px" viewBox="0 0 703 69" version="1.1" xmlns="http://www.w3.org/2000/svg" xmlns:xlink="http://www.w3.org/1999/xlink">
    <!-- Generator: Sketch 55.2 (78181) - https://sketchapp.com -->
    <title>Group 8</title>
    <desc>Created with Sketch.</desc>
    <g id="Page-1" stroke="none" stroke-width="1" fill="none" fill-rule="evenodd">
        <g id="Group-8">
            <path d="M646,63.2073029 L646,42 L63,42 L63,62.8423504 L90.9911874,63.8109613 C83.7621401,66.5800051 76.6962239,67.964527 69.7934389,67.964527 C67.0822454,67.964527 64.8177658,67.964527 63,67.964527 L63,68.2001887 C53.0363576,68.5121061 51.2477849,68.4940048 47.9754661,67.9695537 C43.4091753,67.2377192 40.1484362,65.3855261 37.1134203,61.7503017 L36.8284132,61.4089312 L36.6546922,60.9995611 C36.4065292,60.41477 36.166505,59.82988 35.9346249,59.2448931 C32.9541336,60.3807685 29.7680972,60.9743067 26.5,60.9743067 C11.8644541,60.9743067 0,49.1098526 0,34.4743067 C0,19.8387608 11.8644541,7.9743067 26.5,7.9743067 C29.7355975,7.9743067 32.8908895,8.55608587 35.846107,9.67017456 C35.8637802,9.62518267 35.8815016,9.58019135 35.8992712,9.5352006 L35.9531954,9.3986701 L36.0201913,9.26805636 C39.162848,3.14120178 41.9221688,0.715055742 48.0138347,0.0235476853 L48.2212721,2.13162821e-14 L48.4299716,0.00541123371 C147.16372,2.5654143 271.020651,3.84537141 352,3.84537141 C432.996376,3.83483532 556.241815,2.55489944 654.570028,0.00541123371 L654.778728,2.13162821e-14 L654.986165,0.0235476853 C661.077831,0.715055742 663.837152,3.14120178 666.979809,9.26805636 L667.046805,9.3986701 L667.100729,9.5352006 C667.118498,9.58019135 667.13622,9.62518267 667.153893,9.67017456 C670.10911,8.55608587 673.264402,7.9743067 676.5,7.9743067 C691.135546,7.9743067 703,19.8387608 703,34.4743067 C703,49.1098526 691.135546,60.9743067 676.5,60.9743067 C673.231903,60.9743067 670.045866,60.3807685 667.065375,59.2448931 C666.833495,59.82988 666.593471,60.41477 666.345308,60.9995611 L666.171587,61.4089312 L665.88658,61.7503017 C662.851564,65.3855261 659.590825,67.2377192 655.024534,67.9695537 C652.555069,68.3653323 650.930599,68.4727441 646,68.367572 L646,68.3297844 L639.197749,68.3297844 C632.294964,68.3297844 625.229047,66.9452625 618,64.1762187 L646,63.2073029 Z" id="Combined-Shape" fill="#18002D" fill-rule="nonzero"></path>
            <g id="Group-6" transform="translate(3.000000, 3.000000)">
                <g id="Group-3" transform="translate(0.000000, 7.969903)">
                    <circle id="Oval" fill="#FFE370" cx="23.5" cy="23.5" r="23.5"></circle>
                    <path d="M6.18886406,28.5745573 C8.38080623,29.8646841 10.9353842,30.6046512 13.6627907,30.6046512 C21.8122017,30.6046512 28.4186047,23.9982482 28.4186047,15.8488372 C28.4186047,11.8055801 26.7923995,8.14214361 24.1583718,5.47691016 C33.8137815,5.82338363 41.5348837,13.7600118 41.5348837,23.5 C41.5348837,33.4603912 33.4603912,41.5348837 23.5,41.5348837 C15.3015606,41.5348837 8.38081839,36.0644114 6.18886406,28.5745573 Z" id="Combined-Shape" fill="#FFC770"></path>
                    <circle id="Oval" fill="#FFFFFF" cx="11.4767442" cy="14.755814" r="6.01162791"></circle>
                </g>
                <g id="Group-3" transform="translate(673.500000, 31.469903) scale(-1, 1) translate(-673.500000, -31.469903) translate(650.000000, 7.969903)">
                    <circle id="Oval" fill="#FFE370" cx="23.5" cy="23.5" r="23.5"></circle>
                    <path d="M6.18886406,28.5745573 C8.38080623,29.8646841 10.9353842,30.6046512 13.6627907,30.6046512 C21.8122017,30.6046512 28.4186047,23.9982482 28.4186047,15.8488372 C28.4186047,11.8055801 26.7923995,8.14214361 24.1583718,5.47691016 C33.8137815,5.82338363 41.5348837,13.7600118 41.5348837,23.5 C41.5348837,33.4603912 33.4603912,41.5348837 23.5,41.5348837 C15.3015606,41.5348837 8.38081839,36.0644114 6.18886406,28.5745573 Z" id="Combined-Shape" fill="#FFC770"></path>
                    <circle id="Oval" fill="#FFFFFF" cx="11.4767442" cy="14.755814" r="6.01162791"></circle>
                </g>
                <path d="M651.647787,-7.10542736e-15 C657.151012,0.624709988 658.98616,3.10140043 661.310477,7.63283755 C664.436826,15.5484302 666,23.4511404 666,31.3409681 C666,39.820176 664.19456,48.314263 660.583681,56.8232291 C654.019724,64.685282 647.309528,61.9257062 622.33729,61.905923 C540.177781,59.8712501 426.686847,58.8496167 348.993355,58.8410228 C271.276497,58.8409681 157.170712,59.8626197 74.6627104,61.905923 C49.6904716,61.9257062 42.9802759,64.685282 36.4163191,56.8232291 C32.8054397,48.314263 31,39.820176 31,31.3409681 C31,23.4511404 32.5631745,15.5484302 35.6895234,7.63283755 C38.0138402,3.10140043 39.8489875,0.624709988 45.3522127,-7.10542736e-15 C144.110734,2.56064539 267.986685,3.84096809 348.993355,3.84096809 C430.016678,3.83057253 553.28939,2.55027085 651.647787,-7.10542736e-15 Z" id="Path" fill="#F8E7D2"></path>
            </g>
        </g>
    </g>
</svg>