<?xml version="1.0" encoding="UTF-8"?>
<svg width="1240px" height="174px" viewBox="0 0 1240 174" version="1.1" xmlns="http://www.w3.org/2000/svg" xmlns:xlink="http://www.w3.org/1999/xlink">
    <!-- Generator: Sketch 55.2 (78181) - https://sketchapp.com -->
    <title>Slice</title>
    <desc>Created with Sketch.</desc>
    <g id="Page-1" stroke="none" stroke-width="1" fill="none" fill-rule="evenodd">
        <path d="M230.844407,115.152827 C342.75992,126.416066 472.478451,132.047685 620,132.047685 C767.521549,132.047685 897.24008,126.416066 1009.15559,115.152827 C1011.72571,106.598421 1015.8993,97.9389938 1021.67636,89.174547 C1033.74357,93.6106453 1045.49833,99.2964062 1056.94062,106.23183 C1055.16971,88.6038421 1057.82608,69.102964 1064.9097,47.7291956 C1085.19856,47.81069 1107.26151,52.6633133 1131.09856,62.2870656 C1123.34486,40.3887693 1120.62069,18.972772 1122.92606,-1.9609265 C1131.91301,-1.9609265 1149.75211,0.114959084 1176.44335,4.26673025 C1166.36195,-30.8795981 1163.98239,-58.9685082 1169.30468,-80 C1190.86587,-75.276703 1214.43098,-66.7357423 1240,-54.3771181 L1240,157.749159 L1240,162.904146 L1.13686838e-13,163.283206 L1.13686838e-13,157.749159 L1.70530257e-13,-54.3771181 C25.5690231,-66.7357423 49.1341287,-75.276703 70.6953169,-80 C76.0176109,-58.9685082 73.6380541,-30.8795981 63.5566464,4.26673025 C90.2478872,0.114959084 108.086985,-1.9609265 117.07394,-1.9609265 C119.37931,18.972772 116.655145,40.3887693 108.901443,62.2870656 C132.738492,52.6633133 154.801443,47.81069 175.090296,47.7291956 C182.173924,69.102964 184.830285,88.6038421 183.059378,106.23183 C194.501672,99.2964062 206.256427,93.6106453 218.323643,89.174547 C224.100702,97.9389938 228.274293,106.598421 230.844417,115.152828 Z" id="Combined-Shape-Copy-4" fill="#158260" transform="translate(620.000000, 41.641603) scale(-1, -1) translate(-620.000000, -41.641603) "></path>
    </g>
</svg>