<?xml version="1.0" encoding="UTF-8"?>
<svg width="514px" height="54px" viewBox="0 0 514 54" version="1.1" xmlns="http://www.w3.org/2000/svg" xmlns:xlink="http://www.w3.org/1999/xlink">
    <!-- Generator: Sketch 59.1 (86144) - https://sketch.com -->
    <title>Group</title>
    <desc>Created with Sketch.</desc>
    <defs>
        <path d="M40.8981982,0 L52.0397477,5.31859977 L39.9811983,36.7716984 L30.3068487,36.7716984 L25.1257989,19.7154991 L20.4949491,35.9463984 L9.72019958,35.8088484 L0,4.21819982 L10.6371995,0.91699996 L15.9557993,20.4949491 L21.0451491,1.83399992 L29.8483487,1.83399992 L34.6625985,21.5953491 L40.8981982,0 Z M72.7080969,36.8175484 L70.690697,29.1605987 L59.7325474,28.6562487 L56.8439976,36.4507484 L46.756998,35.1210985 L61.8416473,1.14624995 L71.3784469,1.23794995 L82.5658464,35.3044985 L72.7080969,36.8175484 Z M63.2171473,19.1652992 L68.1689471,19.5779491 L66.0598472,11.4166495 L63.2171473,19.1652992 Z M101.262646,1.14624995 L110.570195,3.71384984 L101.766996,35.8088484 L92.1384961,37.5052984 L77.7415967,5.08934978 L87.2783963,0.779449966 L96.0357459,20.9075991 L101.262646,1.14624995 Z M125.186345,26.5471488 L139.904194,26.2720489 L139.904194,35.9922484 L115.557845,35.9922484 L114.457445,1.14624995 L138.803794,0.366799984 L139.445694,9.76604957 L124.315195,10.0411496 L124.498595,13.9842494 L137.015644,13.5715994 L137.428294,21.962149 L125.002945,22.558199 L125.186345,26.5471488 Z M185.504942,35.9922484 L159.370443,36.0380984 L158.682693,28.2894488 C160.73067,27.1890433 162.946731,25.721858 165.330943,23.887849 C167.715155,22.0538399 169.724893,20.1587256 171.360218,18.2024492 C172.995543,16.2461728 173.813193,14.5344567 173.813193,13.0672494 C173.813193,12.2725122 173.553379,11.6076938 173.033743,11.0727745 C172.514107,10.5378552 171.795797,10.2703996 170.878793,10.2703996 C169.900655,10.2703996 169.044797,10.6601206 168.311193,11.4395745 C167.577589,12.2190284 167.210793,13.1742271 167.210793,14.3051994 L158.682693,12.8838494 C158.804961,10.5913381 159.431571,8.51282562 160.562543,6.64824971 C161.693516,4.7836738 163.221833,3.31648854 165.147543,2.2466499 C167.073253,1.17681127 169.228181,0.641899972 171.612393,0.641899972 C173.966038,0.641899972 176.029267,1.16916968 177.802142,2.2237249 C179.575018,3.27828013 180.942863,4.7378238 181.905717,6.60239971 C182.868572,8.46697562 183.349992,10.5913376 183.349992,12.9755494 C183.349992,15.573729 182.501776,18.12602 180.805317,20.6324991 C179.108859,23.1389782 176.778174,25.5231542 173.813193,27.7850988 L184.542092,27.4182988 L185.504942,35.9922484 Z M222.715141,36.7258484 C219.475058,36.7258484 216.441347,35.8776319 213.613916,34.1811735 C210.786485,32.4847151 208.524575,30.2304461 206.828116,27.4182988 C205.131658,24.6061515 204.283441,21.6259315 204.283441,18.4775492 C204.283441,15.2986001 205.131658,12.3260216 206.828116,9.55972458 C208.524575,6.79342754 210.794127,4.59264964 213.636841,2.95732487 C216.479555,1.3220001 219.536191,0.504349978 222.806841,0.504349978 C226.046923,0.504349978 229.05771,1.3220001 231.83929,2.95732487 C234.620871,4.59264964 236.836932,6.78578595 238.48754,9.53679958 C240.138148,12.2878132 240.96344,15.2527501 240.96344,18.4316992 C240.96344,21.6717819 240.130507,24.6978515 238.464615,27.5099988 C236.798723,30.3221461 234.559737,32.5611319 231.74759,34.2270235 C228.935443,35.8929151 225.924657,36.7258484 222.715141,36.7258484 Z M222.485891,27.2348988 C224.044798,27.2348988 225.511984,26.8528193 226.88749,26.0886489 C228.262997,25.3244784 229.363386,24.269939 230.18869,22.924999 C231.013994,21.580059 231.42664,20.0823074 231.42664,18.4316992 C231.42664,16.8422247 231.029278,15.3979642 230.23454,14.0988744 C229.439803,12.7997846 228.36998,11.7834532 227.02504,11.0498495 C225.6801,10.3162459 224.197632,9.94944957 222.577591,9.94944957 C220.957549,9.94944957 219.475081,10.3315291 218.130141,11.0956995 C216.785201,11.85987 215.730661,12.8914846 214.966491,14.1905744 C214.202321,15.4896642 213.820241,16.9339246 213.820241,18.5233992 C213.820241,20.1128737 214.209962,21.5724174 214.989416,22.902074 C215.76887,24.2317306 216.815768,25.28627 218.130141,26.0657239 C219.444514,26.8451777 220.896416,27.2348988 222.485891,27.2348988 Z M259.293439,36.5424484 C256.145057,36.5424484 253.432292,35.6865903 251.155064,33.9748485 C248.877836,32.2631067 247.143196,29.8789306 245.95109,26.8222488 C244.758984,23.765567 244.16294,20.2351525 244.16294,16.2308993 C244.16294,10.2703697 244.957665,4.99767271 246.54714,0.412649982 L256.542439,3.39289985 C255.900536,5.44087667 255.396191,7.63401297 255.029389,9.97237456 C254.662587,12.3107362 254.479189,14.3357575 254.479189,16.0474993 C254.479189,19.3487157 254.876552,22.007989 255.671289,24.025399 C256.466027,26.0428089 257.658115,27.0514988 259.247589,27.0514988 C260.714796,27.0514988 261.876318,26.0428089 262.732189,24.025399 C263.58806,22.007989 264.015989,19.3487157 264.015989,16.0474993 C264.015989,14.3357575 263.832591,12.3107362 263.465789,9.97237456 C263.098987,7.63401297 262.594642,5.44087667 261.952739,3.39289985 L271.948039,0.412649982 C273.537513,4.99767271 274.332238,10.2703697 274.332238,16.2308993 C274.332238,20.3268529 273.728553,23.903117 272.521163,26.9597988 C271.313774,30.0164806 269.579133,32.3777319 267.317189,34.0436235 C265.055244,35.7095151 262.380688,36.5424484 259.293439,36.5424484 Z M306.646487,9.62849958 L296.376088,9.85774957 L296.467787,35.9005484 L287.389488,36.3131984 L287.297788,10.0869996 L277.760988,10.3162495 L277.119088,1.14624995 L305.912887,0.45849998 L306.646487,9.62849958 Z M347.891485,1.14624995 L358.299435,0.962849958 L358.070185,35.9922484 L348.854335,35.9922484 L348.854335,35.9005484 L348.808485,35.9922484 L336.016336,19.7154991 L336.520686,35.9463984 L325.837636,36.2673484 L325.424986,0.825299964 L335.420286,1.14624995 L348.349985,17.5605492 L347.891485,1.14624995 Z M381.627084,36.7258484 C378.387001,36.7258484 375.35329,35.8776319 372.525859,34.1811735 C369.698429,32.4847151 367.436518,30.2304461 365.74006,27.4182988 C364.043601,24.6061515 363.195385,21.6259315 363.195385,18.4775492 C363.195385,15.2986001 364.043601,12.3260216 365.74006,9.55972458 C367.436518,6.79342754 369.70607,4.59264964 372.548784,2.95732487 C375.391498,1.3220001 378.448134,0.504349978 381.718784,0.504349978 C384.958867,0.504349978 387.969653,1.3220001 390.751234,2.95732487 C393.532814,4.59264964 395.748875,6.78578595 397.399483,9.53679958 C399.050091,12.2878132 399.875383,15.2527501 399.875383,18.4316992 C399.875383,21.6717819 399.04245,24.6978515 397.376558,27.5099988 C395.710667,30.3221461 393.471681,32.5611319 390.659534,34.2270235 C387.847386,35.8929151 384.8366,36.7258484 381.627084,36.7258484 Z M381.397834,27.2348988 C382.956742,27.2348988 384.423927,26.8528193 385.799434,26.0886489 C387.174941,25.3244784 388.27533,24.269939 389.100634,22.924999 C389.925938,21.580059 390.338584,20.0823074 390.338584,18.4316992 C390.338584,16.8422247 389.941221,15.3979642 389.146484,14.0988744 C388.351746,12.7997846 387.281924,11.7834532 385.936984,11.0498495 C384.592044,10.3162459 383.109575,9.94944957 381.489534,9.94944957 C379.869493,9.94944957 378.387024,10.3315291 377.042084,11.0956995 C375.697144,11.85987 374.642605,12.8914846 373.878434,14.1905744 C373.114264,15.4896642 372.732184,16.9339246 372.732184,18.5233992 C372.732184,20.1128737 373.121905,21.5724174 373.901359,22.902074 C374.680813,24.2317306 375.727711,25.28627 377.042084,26.0657239 C378.356457,26.8451777 379.808359,27.2348988 381.397834,27.2348988 Z M441.451331,0 L452.592881,5.31859977 L440.534331,36.7716984 L430.859982,36.7716984 L425.678932,19.7154991 L421.048082,35.9463984 L410.273333,35.8088484 L400.553133,4.21819982 L411.190333,0.91699996 L416.508932,20.4949491 L421.598282,1.83399992 L430.401482,1.83399992 L435.215732,21.5953491 L441.451331,0 Z M456.984481,23.429349 L456.021631,1.14624995 L466.06278,1.14624995 L466.01693,22.649899 L456.984481,23.429349 Z M461.615331,35.0752485 C460.148123,35.0752485 458.925469,34.5632619 457.947331,33.5392735 C456.969193,32.5152851 456.480131,31.3155555 456.480131,29.9400487 C456.480131,29.0230441 456.732303,28.1748277 457.236656,27.3953738 C457.741008,26.6159199 458.405827,26.0045927 459.231131,25.5613739 C460.056435,25.118155 460.927576,24.8965489 461.844581,24.8965489 C463.189521,24.8965489 464.328117,25.3397611 465.260405,26.2261989 C466.192693,27.1126366 466.65883,28.3047246 466.65883,29.8024987 C466.65883,31.269706 466.17741,32.5152851 465.214555,33.5392735 C464.251701,34.5632619 463.051971,35.0752485 461.615331,35.0752485 Z M472.19668,23.429349 L471.23383,1.14624995 L481.27498,1.14624995 L481.22913,22.649899 L472.19668,23.429349 Z M476.82753,35.0752485 C475.360323,35.0752485 474.137668,34.5632619 473.15953,33.5392735 C472.181392,32.5152851 471.69233,31.3155555 471.69233,29.9400487 C471.69233,29.0230441 471.944503,28.1748277 472.448855,27.3953738 C472.953208,26.6159199 473.618026,26.0045927 474.44333,25.5613739 C475.268634,25.118155 476.139775,24.8965489 477.05678,24.8965489 C478.40172,24.8965489 479.540317,25.3397611 480.472605,26.2261989 C481.404893,27.1126366 481.87103,28.3047246 481.87103,29.8024987 C481.87103,31.269706 481.38961,32.5152851 480.426755,33.5392735 C479.4639,34.5632619 478.26417,35.0752485 476.82753,35.0752485 Z M487.40888,23.429349 L486.44603,1.14624995 L496.487179,1.14624995 L496.441329,22.649899 L487.40888,23.429349 Z M492.039729,35.0752485 C490.572522,35.0752485 489.349868,34.5632619 488.371729,33.5392735 C487.393591,32.5152851 486.90453,31.3155555 486.90453,29.9400487 C486.90453,29.0230441 487.156702,28.1748277 487.661054,27.3953738 C488.165407,26.6159199 488.830225,26.0045927 489.655529,25.5613739 C490.480833,25.118155 491.351975,24.8965489 492.268979,24.8965489 C493.613919,24.8965489 494.752516,25.3397611 495.684804,26.2261989 C496.617092,27.1126366 497.083229,28.3047246 497.083229,29.8024987 C497.083229,31.269706 496.601809,32.5152851 495.638954,33.5392735 C494.676099,34.5632619 493.47637,35.0752485 492.039729,35.0752485 Z" id="path-1"></path>
    </defs>
    <g id="Page-1" stroke="none" stroke-width="1" fill="none" fill-rule="evenodd">
        <g id="Artboard" transform="translate(-54.000000, -104.000000)">
            <g id="Group" transform="translate(54.873787, 104.504702)">
                <path d="M53.2001003,3.63713604 L64.3416498,8.95573581 C64.5202405,9.04098901 64.6932558,9.13341877 64.8604965,9.23252638 L65.4025938,8.01163121 C66.4545334,5.64236901 68.8136847,4.12467517 71.4058574,4.14959991 L80.9426569,4.24129991 C83.3678696,4.26461926 85.54542,5.63115156 86.6417176,7.73132745 L94.1032696,4.35927992 C97.4071784,2.8661673 101.293952,4.36469433 102.740417,7.68929045 L104.036076,10.667271 L104.480456,8.98720006 C105.405289,5.49068523 109.00637,3.42154689 112.492897,4.38334743 L119.190654,6.23193737 C120.334966,4.99748314 121.952109,4.21022499 123.751167,4.15262803 L148.097516,3.37317806 C151.594069,3.26123567 154.552046,5.93676327 154.790402,9.4269786 L155.432302,18.8262282 C155.58022,20.9921648 154.647302,22.9916872 153.084658,24.2833554 L153.397492,30.644325 C154.930368,31.8386967 155.905907,33.7012743 155.905907,35.7750984 L155.905907,45.4952979 C155.905907,49.0851488 152.995758,51.9952979 149.405907,51.9952979 L125.059558,51.9952979 C121.549581,51.9952979 118.673583,49.2086867 118.5628,45.7005759 L118.494512,43.5404159 L117.537187,47.031252 C116.872579,49.4543028 114.871005,51.2773266 112.396574,51.7132977 L102.768075,53.4097476 C99.9792765,53.9011073 97.2132007,52.5306198 95.9010927,50.0602867 C95.0907359,50.6529928 94.1269191,51.0675802 93.0536855,51.2323091 L83.1959359,52.745359 C79.9090944,53.249851 76.7715358,51.1922522 75.9243131,47.9766569 L75.1235066,44.9372323 L73.6790608,44.8707515 L72.4406448,48.2125089 C71.386358,51.0574099 68.5041916,52.7945539 65.4962407,52.3980513 L55.4092412,51.0684013 C54.9792685,51.0117231 54.5644587,50.9142568 54.1682813,50.7803188 C52.9668443,52.0290857 51.2874661,52.7747479 49.4829112,52.7747479 L39.8085616,52.7747479 C37.6840866,52.7747479 35.7451843,51.7432679 34.5466519,50.0916095 C33.3409604,51.2725855 31.6893404,51.9715862 29.91369,51.9489183 L19.1389405,51.8113684 C16.3162633,51.7753342 13.839526,49.9215314 13.0093489,47.223456 L3.28914935,15.6328073 C2.23523208,12.2075762 4.15244878,8.57554012 7.57511801,7.51333243 L18.2123175,4.21213257 C21.1224907,3.3089754 24.1722633,4.55356807 25.6834974,7.02410511 C26.8883776,5.66647751 28.6409603,4.83704942 30.546862,4.83704942 L39.3500616,4.83704942 C41.323889,4.83704942 43.129192,5.72586535 44.3345229,7.16453987 L44.4218681,6.94837925 C45.8450647,3.59938728 49.8210142,2.0240744 53.2001003,3.63713604 Z M453.753233,3.63713604 L460.309437,6.76735731 C461.492077,5.18151114 463.382828,4.14929945 465.523344,4.14929945 L475.564493,4.14929945 C476.473267,4.14929945 477.349882,4.33780885 478.149867,4.68469871 C478.949594,4.33785194 479.82624,4.14929945 480.735543,4.14929945 L490.776693,4.14929945 C491.685467,4.14929945 492.562082,4.33780885 493.362066,4.68469871 C494.161794,4.33785194 495.038439,4.14929945 495.947742,4.14929945 L505.988892,4.14929945 C509.584156,4.14929945 512.496543,7.06790242 512.488877,10.6631587 L512.443027,32.1668078 C512.441403,32.9287752 512.306936,33.6714512 512.055097,34.3667436 C512.740312,35.8701592 513.084942,37.5387981 513.084942,39.3055482 C513.084942,42.4174701 511.979868,45.2575858 509.876041,47.4949885 C507.680677,49.8297406 504.765698,51.078298 501.541442,51.078298 C498.652204,51.078298 496.010802,50.0953303 493.903669,48.2348288 C491.814967,50.0925058 489.194199,51.078298 486.329243,51.078298 C483.440005,51.078298 480.798602,50.0953303 478.69147,48.2348288 C476.602767,50.0925058 473.982,51.078298 471.117043,51.078298 C467.883314,51.078298 464.960043,49.8469523 462.748826,47.5320836 C460.699148,45.3863272 459.567552,42.7053827 459.486523,39.7816028 L456.105295,48.6015891 C455.1416,51.1152581 452.728114,52.7747479 450.036044,52.7747479 L440.361695,52.7747479 C438.23722,52.7747479 436.298317,51.7432679 435.099785,50.0916095 C433.894094,51.2725855 432.242474,51.9715862 430.466823,51.9489183 L419.692074,51.8113684 C416.869396,51.7753342 414.392659,49.9215314 413.56247,47.2234182 L411.779854,41.4296806 C409.636373,44.6739979 406.85024,47.3224829 403.474129,49.3224616 C399.661921,51.5807804 395.507472,52.7288979 391.128797,52.7288979 C386.707268,52.7288979 382.518196,51.558835 378.68335,49.257927 C376.997427,48.2463732 375.456475,47.0775909 374.066672,45.7576157 C373.928557,49.2285404 371.071588,51.9952979 367.571898,51.9952979 L358.297259,51.9948042 L358.098152,51.9914593 L357.98647,51.9877992 C356.128591,51.8972021 354.386226,51.0216025 353.199629,49.5117738 L352.005853,47.9928122 C351.04344,50.25295 348.834592,51.8678941 346.21759,51.9465165 L335.53454,52.2674665 C331.899555,52.3766721 328.882128,49.4824508 328.83979,45.8460925 L328.426485,10.4035973 C328.384288,6.70264767 331.435959,3.7129114 335.135307,3.83169781 L345.130607,4.1526478 C347.048315,4.21422558 348.840844,5.11991918 350.028115,6.62716334 L351.335711,8.28716185 C352.265277,5.90646781 354.560917,4.19819844 357.278679,4.15030836 L367.686628,3.96690836 C371.202787,3.90494962 374.103683,6.64338482 374.291483,10.1079219 C375.656983,8.8678755 377.164946,7.77208145 378.809297,6.82613801 C382.637614,4.62382624 386.811808,3.50739948 391.220497,3.50739948 C395.618189,3.50739948 399.766404,4.6342165 403.547232,6.85701068 C404.438178,7.38080871 405.288472,7.9499584 406.096963,8.56367496 C406.691451,8.10726394 407.374306,7.74731547 408.128251,7.51333243 L418.765451,4.21213257 C421.675624,3.3089754 424.725396,4.55356807 426.236631,7.02410511 C427.441511,5.66647751 429.194093,4.83704942 431.099995,4.83704942 L439.903195,4.83704942 C441.877022,4.83704942 443.682325,5.72586535 444.887656,7.16453987 L444.975001,6.94837925 C446.398198,3.59938728 450.374147,2.0240744 453.753233,3.63713604 Z M257.906125,3.68669176 L267.901425,6.66694163 C268.193664,6.75407714 268.476755,6.86064176 268.749301,6.9851709 C269.021959,6.86059193 269.305061,6.75404087 269.597179,6.66694163 L279.592478,3.68669176 C281.435908,3.13704519 283.342548,3.44379908 284.870632,4.38850647 L285.180751,4.31013863 C285.597617,4.21567989 286.02756,4.16161533 286.465591,4.15115282 L315.259389,3.46340285 C318.707044,3.38105441 321.618887,6.0055505 321.893899,9.44320554 L322.627499,18.6132051 C322.925485,22.33803 320.029048,25.5465421 316.293253,25.6299304 L312.400221,25.7168284 L312.46946,45.3807108 C312.481727,48.8646309 309.744998,51.7386958 306.26465,51.8968934 L297.186351,52.3095434 C293.493417,52.477404 290.404166,49.5356986 290.391241,45.838975 L290.324291,26.6914734 C290.232672,31.1985356 289.488774,35.2547758 288.068342,38.8508072 C286.421778,43.0193227 283.946568,46.3698464 280.673489,48.7804247 C277.276312,51.2823993 273.250463,52.5454979 268.795152,52.5454979 C264.258345,52.5454979 260.174341,51.2468096 256.7512,48.6737105 C254.740611,47.162395 253.034694,45.3058133 251.641658,43.1318259 C249.696933,45.6111433 247.327461,47.6843366 244.562186,49.3224616 C240.749978,51.5807804 236.595528,52.7288979 232.216854,52.7288979 C227.795325,52.7288979 223.606253,51.558835 219.771407,49.257927 C216.034194,47.0155996 213.009348,44.000679 210.764148,40.278906 C208.460379,36.4600461 207.285154,32.3206714 207.285154,27.9805987 C207.285154,23.598137 208.467298,19.450199 210.788801,15.6646851 C213.053987,11.9710034 216.114828,9.00210692 219.897353,6.82613801 C223.725671,4.62382624 227.899865,3.50739948 232.308554,3.50739948 C236.706245,3.50739948 240.854461,4.6342165 244.635288,6.85701068 C246.28102,7.82455631 247.786163,8.94575613 249.144417,10.2145463 C249.377869,9.38992721 249.632181,8.58061967 249.907417,7.78666858 C251.046888,4.49973445 254.572322,2.6926678 257.906125,3.68669176 Z M181.114106,3.64494947 C184.616921,3.64494947 187.825779,4.47423441 190.626807,6.14036299 C193.447414,7.81813797 195.663573,10.1809874 197.182842,13.1230644 C198.632286,15.9299244 199.351705,19.0743439 199.351705,22.4785989 C199.351705,25.4889434 198.618063,28.4258353 197.193214,31.2346135 C198.976995,32.224204 200.260357,34.0334813 200.503202,36.1959614 L201.466052,44.7699111 C201.898223,48.6182848 198.890617,51.988494 195.018059,51.9952879 L168.883549,52.0411528 C165.512041,52.0470474 162.695684,49.4741244 162.397609,46.1158119 L161.709859,38.3671622 C161.479901,35.7762996 162.81661,33.2978108 165.107855,32.0666943 C166.470435,31.3345618 167.96304,30.3808357 169.574755,29.2082831 L167.115813,28.7984594 C163.851767,28.2544518 161.517398,25.3450972 161.693631,22.0407243 C161.872524,18.6864786 162.815526,15.568462 164.506694,12.7803191 C166.224457,9.94833284 168.580865,7.68529507 171.492577,6.06767711 C174.396588,4.45433733 177.637666,3.64494947 181.114106,3.64494947 Z" id="WAVE2OUTNOW!!!" fill="#000000" fill-rule="nonzero"></path>
                <path d="M50.2001003,0.637136038 L61.3416498,5.95573581 C61.5202405,6.04098901 61.6932558,6.13341877 61.8604965,6.23252638 L62.4025938,5.01163121 C63.4545334,2.64236901 65.8136847,1.12467517 68.4058574,1.14959991 L77.9426569,1.24129991 C80.3678696,1.26461926 82.54542,2.63115156 83.6417176,4.73132745 L91.1032696,1.35927992 C94.4071784,-0.133832701 98.2939524,1.36469433 99.7404168,4.68929045 L101.036076,7.66727098 L101.480456,5.98720006 C102.405289,2.49068523 106.00637,0.42154689 109.492897,1.38334743 L116.190654,3.23193737 C117.334966,1.99748314 118.952109,1.21022499 120.751167,1.15262803 L145.097516,0.373178061 C148.594069,0.261235674 151.552046,2.93676327 151.790402,6.4269786 L152.432302,15.8262282 C152.58022,17.9921648 151.647302,19.9916872 150.084658,21.2833554 L150.397492,27.644325 C151.930368,28.8386967 152.905907,30.7012743 152.905907,32.7750984 L152.905907,42.4952979 C152.905907,46.0851488 149.995758,48.9952979 146.405907,48.9952979 L122.059558,48.9952979 C118.549581,48.9952979 115.673583,46.2086867 115.5628,42.7005759 L115.494512,40.5404159 L114.537187,44.031252 C113.872579,46.4543028 111.871005,48.2773266 109.396574,48.7132977 L99.7680747,50.4097476 C96.9792765,50.9011073 94.2132007,49.5306198 92.9010927,47.0602867 C92.0907359,47.6529928 91.1269191,48.0675802 90.0536855,48.2323091 L80.1959359,49.745359 C76.9090944,50.249851 73.7715358,48.1922522 72.9243131,44.9766569 L72.1235066,41.9372323 L70.6790608,41.8707515 L69.4406448,45.2125089 C68.386358,48.0574099 65.5041916,49.7945539 62.4962407,49.3980513 L52.4092412,48.0684013 C51.9792685,48.0117231 51.5644587,47.9142568 51.1682813,47.7803188 C49.9668443,49.0290857 48.2874661,49.7747479 46.4829112,49.7747479 L36.8085616,49.7747479 C34.6840866,49.7747479 32.7451843,48.7432679 31.5466519,47.0916095 C30.3409604,48.2725855 28.6893404,48.9715862 26.91369,48.9489183 L16.1389405,48.8113684 C13.3162633,48.7753342 10.839526,46.9215314 10.0093489,44.223456 L0.289149346,12.6328073 C-0.764767922,9.20757621 1.15244878,5.57554012 4.57511801,4.51333243 L15.2123175,1.21213257 C18.1224907,0.308975396 21.1722633,1.55356807 22.6834974,4.02410511 C23.8883776,2.66647751 25.6409603,1.83704942 27.546862,1.83704942 L36.3500616,1.83704942 C38.323889,1.83704942 40.129192,2.72586535 41.3345229,4.16453987 L41.4218681,3.94837925 C42.8450647,0.599387284 46.8210142,-0.975925599 50.2001003,0.637136038 Z M450.753233,0.637136038 L457.309437,3.76735731 C458.492077,2.18151114 460.382828,1.14929945 462.523344,1.14929945 L472.564493,1.14929945 C473.473267,1.14929945 474.349882,1.33780885 475.149867,1.68469871 C475.949594,1.33785194 476.82624,1.14929945 477.735543,1.14929945 L487.776693,1.14929945 C488.685467,1.14929945 489.562082,1.33780885 490.362066,1.68469871 C491.161794,1.33785194 492.038439,1.14929945 492.947742,1.14929945 L502.988892,1.14929945 C506.584156,1.14929945 509.496543,4.06790242 509.488877,7.66315869 L509.443027,29.1668078 C509.441403,29.9287752 509.306936,30.6714512 509.055097,31.3667436 C509.740312,32.8701592 510.084942,34.5387981 510.084942,36.3055482 C510.084942,39.4174701 508.979868,42.2575858 506.876041,44.4949885 C504.680677,46.8297406 501.765698,48.078298 498.541442,48.078298 C495.652204,48.078298 493.010802,47.0953303 490.903669,45.2348288 C488.814967,47.0925058 486.194199,48.078298 483.329243,48.078298 C480.440005,48.078298 477.798602,47.0953303 475.69147,45.2348288 C473.602767,47.0925058 470.982,48.078298 468.117043,48.078298 C464.883314,48.078298 461.960043,46.8469523 459.748826,44.5320836 C457.699148,42.3863272 456.567552,39.7053827 456.486523,36.7816028 L453.105295,45.6015891 C452.1416,48.1152581 449.728114,49.7747479 447.036044,49.7747479 L437.361695,49.7747479 C435.23722,49.7747479 433.298317,48.7432679 432.099785,47.0916095 C430.894094,48.2725855 429.242474,48.9715862 427.466823,48.9489183 L416.692074,48.8113684 C413.869396,48.7753342 411.392659,46.9215314 410.56247,44.2234182 L408.779854,38.4296806 C406.636373,41.6739979 403.85024,44.3224829 400.474129,46.3224616 C396.661921,48.5807804 392.507472,49.7288979 388.128797,49.7288979 C383.707268,49.7288979 379.518196,48.558835 375.68335,46.257927 C373.997427,45.2463732 372.456475,44.0775909 371.066672,42.7576157 C370.928557,46.2285404 368.071588,48.9952979 364.571898,48.9952979 L355.297259,48.9948042 L355.098152,48.9914593 L354.98647,48.9877992 C353.128591,48.8972021 351.386226,48.0216025 350.199629,46.5117738 L349.005853,44.9928122 C348.04344,47.25295 345.834592,48.8678941 343.21759,48.9465165 L332.53454,49.2674665 C328.899555,49.3766721 325.882128,46.4824508 325.83979,42.8460925 L325.426485,7.40359726 C325.384288,3.70264767 328.435959,0.7129114 332.135307,0.831697815 L342.130607,1.1526478 C344.048315,1.21422558 345.840844,2.11991918 347.028115,3.62716334 L348.335711,5.28716185 C349.265277,2.90646781 351.560917,1.19819844 354.278679,1.15030836 L364.686628,0.966908365 C368.202787,0.904949616 371.103683,3.64338482 371.291483,7.10792187 C372.656983,5.8678755 374.164946,4.77208145 375.809297,3.82613801 C379.637614,1.62382624 383.811808,0.507399479 388.220497,0.507399479 C392.618189,0.507399479 396.766404,1.6342165 400.547232,3.85701068 C401.438178,4.38080871 402.288472,4.9499584 403.096963,5.56367496 C403.691451,5.10726394 404.374306,4.74731547 405.128251,4.51333243 L415.765451,1.21213257 C418.675624,0.308975396 421.725396,1.55356807 423.236631,4.02410511 C424.441511,2.66647751 426.194093,1.83704942 428.099995,1.83704942 L436.903195,1.83704942 C438.877022,1.83704942 440.682325,2.72586535 441.887656,4.16453987 L441.975001,3.94837925 C443.398198,0.599387284 447.374147,-0.975925599 450.753233,0.637136038 Z M254.906125,0.686691761 L264.901425,3.66694163 C265.193664,3.75407714 265.476755,3.86064176 265.749301,3.9851709 C266.021959,3.86059193 266.305061,3.75404087 266.597179,3.66694163 L276.592478,0.686691761 C278.435908,0.137045194 280.342548,0.443799078 281.870632,1.38850647 L282.180751,1.31013863 C282.597617,1.21567989 283.02756,1.16161533 283.465591,1.15115282 L312.259389,0.463402846 C315.707044,0.381054406 318.618887,3.0055505 318.893899,6.44320554 L319.627499,15.6132051 C319.925485,19.33803 317.029048,22.5465421 313.293253,22.6299304 L309.400221,22.7168284 L309.46946,42.3807108 C309.481727,45.8646309 306.744998,48.7386958 303.26465,48.8968934 L294.186351,49.3095434 C290.493417,49.477404 287.404166,46.5356986 287.391241,42.838975 L287.324291,23.6914734 C287.232672,28.1985356 286.488774,32.2547758 285.068342,35.8508072 C283.421778,40.0193227 280.946568,43.3698464 277.673489,45.7804247 C274.276312,48.2823993 270.250463,49.5454979 265.795152,49.5454979 C261.258345,49.5454979 257.174341,48.2468096 253.7512,45.6737105 C251.740611,44.162395 250.034694,42.3058133 248.641658,40.1318259 C246.696933,42.6111433 244.327461,44.6843366 241.562186,46.3224616 C237.749978,48.5807804 233.595528,49.7288979 229.216854,49.7288979 C224.795325,49.7288979 220.606253,48.558835 216.771407,46.257927 C213.034194,44.0155996 210.009348,41.000679 207.764148,37.278906 C205.460379,33.4600461 204.285154,29.3206714 204.285154,24.9805987 C204.285154,20.598137 205.467298,16.450199 207.788801,12.6646851 C210.053987,8.97100338 213.114828,6.00210692 216.897353,3.82613801 C220.725671,1.62382624 224.899865,0.507399479 229.308554,0.507399479 C233.706245,0.507399479 237.854461,1.6342165 241.635288,3.85701068 C243.28102,4.82455631 244.786163,5.94575613 246.144417,7.21454631 C246.377869,6.38992721 246.632181,5.58061967 246.907417,4.78666858 C248.046888,1.49973445 251.572322,-0.307332201 254.906125,0.686691761 Z M178.114106,0.644949473 C181.616921,0.644949473 184.825779,1.47423441 187.626807,3.14036299 C190.447414,4.81813797 192.663573,7.18098743 194.182842,10.1230644 C195.632286,12.9299244 196.351705,16.0743439 196.351705,19.4785989 C196.351705,22.4889434 195.618063,25.4258353 194.193214,28.2346135 C195.976995,29.224204 197.260357,31.0334813 197.503202,33.1959614 L198.466052,41.7699111 C198.898223,45.6182848 195.890617,48.988494 192.018059,48.9952879 L165.883549,49.0411528 C162.512041,49.0470474 159.695684,46.4741244 159.397609,43.1158119 L158.709859,35.3671622 C158.479901,32.7762996 159.81661,30.2978108 162.107855,29.0666943 C163.470435,28.3345618 164.96304,27.3808357 166.574755,26.2082831 L164.115813,25.7984594 C160.851767,25.2544518 158.517398,22.3450972 158.693631,19.0407243 C158.872524,15.6864786 159.815526,12.568462 161.506694,9.7803191 C163.224457,6.94833284 165.580865,4.68529507 168.492577,3.06767711 C171.396588,1.45433733 174.637666,0.644949473 178.114106,0.644949473 Z" id="WAVE2OUTNOW!!!" fill="#FFFFFF" fill-rule="nonzero"></path>
                <path d="M48.6923061,3.79570483 L59.8338556,9.11430459 C61.2459328,9.78838259 61.9027844,11.4345501 61.3426535,12.895576 L52.555213,35.8142979 L65.601468,6.43191411 C66.0869786,5.33840848 67.1758177,4.6379344 68.3722051,4.64943813 L77.9090047,4.74113812 C79.1945333,4.75349897 80.3292915,5.58357263 80.7304013,6.80498475 L81.7527172,9.9192836 C82.0536405,9.4704295 82.4794361,9.09740588 83.0078452,8.85860564 L92.5446448,4.54870583 C94.0695257,3.85957693 95.8634215,4.55120479 96.5310204,6.08563377 L101.844513,18.2983205 L104.864096,6.88217665 C105.290942,5.26840058 106.952979,4.31341365 108.562146,4.7573216 L117.869695,7.32492148 L117.97315,7.35647324 C118.116299,5.87760934 119.338709,4.69964118 120.863162,4.65083572 L145.209511,3.87138575 C146.823305,3.81972003 148.188525,5.05457892 148.298536,6.66544754 L148.940436,16.0646971 C149.048165,17.6421587 147.918696,19.0066239 146.398259,19.2354284 C146.46238,19.4561854 146.501958,19.6878044 146.513736,19.927286 L146.926386,28.3178357 C146.952192,28.8425631 146.841576,29.3423913 146.625719,29.7829564 L146.796677,29.8002238 C148.266044,29.9912561 149.405907,31.2479989 149.405907,32.7750984 L149.405907,42.4952979 C149.405907,44.1521522 148.062761,45.4952979 146.405907,45.4952979 L122.059558,45.4952979 C120.439569,45.4952979 119.112185,44.2091697 119.061053,42.5899876 L118.259213,17.2252979 L111.161852,43.105446 C110.85511,44.2237771 109.931307,45.0651727 108.789262,45.2663901 L99.1607624,46.9628401 C97.8034801,47.2019803 96.4578593,46.4855949 95.8984546,45.2260436 L86.108213,23.1832979 L91.9178008,40.8715333 C92.4961459,42.6326415 91.3548792,44.4916033 89.5226945,44.7728223 L79.6649449,46.2858722 C78.1479411,46.5187147 76.6998372,45.5690537 76.3088113,44.0849328 L74.8529161,38.5591486 L68.2857067,38.2568921 L66.1587571,43.9962799 C65.6721632,45.3093112 64.3419325,46.1110699 62.9536475,45.9280687 L52.8666479,44.5984187 C51.3761866,44.4019488 50.3417817,43.1716482 50.2615016,41.7959779 L49.284104,44.3486746 C48.8393216,45.5088295 47.725405,46.2747479 46.4829112,46.2747479 L36.8085616,46.2747479 C35.4875633,46.2747479 34.322021,45.4106675 33.9380731,44.1466974 L31.7176615,36.8370239 L29.8815412,43.2725349 C29.5100357,44.5746433 28.3123258,45.4664881 26.9583673,45.4492035 L16.1836177,45.3116535 C14.8808436,45.2950224 13.7377341,44.4394211 13.3545755,43.1941555 L3.63437588,11.6035069 C3.14795252,10.022631 4.03282177,8.34630661 5.61251526,7.85605691 L16.2497148,4.55485705 C17.8721659,4.05133773 19.5886287,4.99419507 20.0339848,6.63356611 L22.4631725,15.5754899 L24.6525705,7.5476972 C25.0085297,6.24251341 26.1940088,5.33704942 27.546862,5.33704942 L36.3500616,5.33704942 C37.7333945,5.33704942 38.937382,6.28293581 39.2648124,7.62695933 L41.4101216,16.432943 L44.5176598,5.67080709 C45.031641,3.89076915 47.020288,2.99753982 48.6923061,3.79570483 Z M449.245439,3.79570483 L459.566213,8.72329793 L459.52614,7.77880823 C459.452421,6.07272467 460.815668,4.64929945 462.523344,4.64929945 L472.564493,4.64929945 C473.666277,4.64929945 474.629108,5.24317852 475.150727,6.12803169 C475.66986,5.24523972 476.630601,4.64929945 477.735543,4.64929945 L487.776693,4.64929945 C488.878476,4.64929945 489.841307,5.24317852 490.362926,6.12803169 C490.882059,5.24523972 491.842801,4.64929945 492.947742,4.64929945 L502.988892,4.64929945 C504.648245,4.64929945 505.992423,5.99634698 505.988885,7.65569603 L505.943035,29.1593451 C505.941194,30.0230746 505.572927,30.8065304 504.980323,31.3551672 C506.050946,32.7190844 506.584942,34.4080715 506.584942,36.3055482 C506.584942,38.5275554 505.818628,40.5102396 504.326224,42.0973994 C502.792838,43.7281435 500.800685,44.578298 498.541442,44.578298 C496.262825,44.578298 494.254067,43.7371305 492.704111,42.1145202 C491.878119,41.2498104 491.267277,40.2762542 490.883872,39.2183207 C490.50915,40.2760149 489.916573,41.2438961 489.114025,42.0973994 C487.580639,43.7281435 485.588486,44.578298 483.329243,44.578298 C481.050626,44.578298 479.041868,43.7371305 477.491912,42.1145202 C476.66592,41.2498104 476.055078,40.2762542 475.671673,39.2183207 C475.29695,40.2760149 474.704374,41.2438961 473.901826,42.0973994 C472.368439,43.7281435 470.376286,44.578298 468.117043,44.578298 C465.838426,44.578298 463.829668,43.7371305 462.279712,42.1145202 C460.772677,40.5368425 459.981844,38.5968302 459.981844,36.4430982 C459.981844,34.9458989 460.402178,33.5320487 461.219658,32.2686695 L461.364804,32.0537106 C460.852984,31.5423206 460.522819,30.8448066 460.48899,30.0619073 L459.964213,17.9322979 L449.837237,44.3486746 C449.392455,45.5088295 448.278538,46.2747479 447.036044,46.2747479 L437.361695,46.2747479 C436.040696,46.2747479 434.875154,45.4106675 434.491206,44.1466974 L432.270795,36.8370239 L430.434674,43.2725349 C430.063169,44.5746433 428.865459,45.4664881 427.5115,45.4492035 L416.736751,45.3116535 C415.433977,45.2950224 414.290867,44.4394211 413.907709,43.1941555 L409.180031,27.8285849 C408.805082,30.5385557 407.895891,33.1171242 406.459374,35.5420709 C404.536696,38.7876915 401.93589,41.388498 398.690269,43.3111754 C395.417435,45.2499736 391.878939,46.2288979 388.128797,46.2288979 C384.342446,46.2288979 380.775624,45.2316255 377.484085,43.2567018 C374.236926,41.3084063 371.622823,38.7031349 369.672997,35.4709903 C368.811056,34.0421883 368.134747,32.5676575 367.646169,31.0519121 L367.571834,42.514931 C367.561041,44.1640879 366.22109,45.4952979 364.571898,45.4952979 L355.356048,45.4952979 L355.156941,45.4919531 C354.336393,45.4519401 353.524932,45.0787248 352.951474,44.349056 L345.800125,35.2496693 L346.020951,42.3562726 C346.072448,44.0135333 344.7698,45.3983045 343.112487,45.448095 L332.429437,45.769045 C330.751752,45.8194475 329.359093,44.4836531 329.339553,42.8053244 L328.926694,7.36327595 C328.907014,5.65505589 330.315524,4.27506829 332.02298,4.32989486 L342.018279,4.65084484 C342.903376,4.67926536 343.730697,5.09727779 344.278668,5.79292894 L351.599788,15.0871176 L351.394368,7.73306566 C351.347768,6.06477453 352.67166,4.6791692 354.340343,4.6497651 L364.748293,4.46636511 C366.433266,4.43667394 367.812112,5.80033345 367.801084,7.48553255 L367.726469,18.6511362 C368.209995,17.2205074 368.863141,15.8335551 369.684375,14.4944253 C371.643606,11.2996431 374.278557,8.74453904 377.554559,6.85995759 C380.852039,4.96301985 384.424452,4.00739948 388.220497,4.00739948 C391.99463,4.00739948 395.530416,4.96762559 398.773386,6.87420651 C400.80664,8.06958106 402.585549,9.53011948 404.101555,11.2477368 C403.837331,9.77852099 404.7041,8.30964088 406.165648,7.85605691 L416.802848,4.55485705 C418.425299,4.05133773 420.141762,4.99419507 420.587118,6.63356611 L423.016306,15.5754899 L425.205704,7.5476972 C425.561663,6.24251341 426.747142,5.33704942 428.099995,5.33704942 L436.903195,5.33704942 C438.286528,5.33704942 439.490515,6.28293581 439.817946,7.62695933 L441.963255,16.432943 L445.070793,5.67080709 C445.584774,3.89076915 447.573421,2.99753982 449.245439,3.79570483 Z M281.242917,5.82095592 C281.777523,5.12751033 282.605428,4.67269636 283.549166,4.65015485 L312.342964,3.96240488 C313.93419,3.92439791 315.278117,5.1357038 315.405046,6.72231381 L316.138646,15.8923134 C316.276178,17.6114634 314.939361,19.0923151 313.215148,19.130802 L305.888148,19.2943511 L305.969482,42.3930346 C305.975144,44.0009978 304.712038,45.3274893 303.105723,45.4005036 L294.027424,45.8131535 C292.322993,45.8906277 290.897185,44.5329175 290.891219,42.8267374 L290.810226,19.6627733 L284.334796,19.8184327 C284.141851,19.8230707 283.952573,19.8093478 283.768679,19.7788273 C283.812415,20.7454975 283.833951,21.7310863 283.833951,22.7339488 C283.833951,27.1885785 283.167668,31.1356751 281.813091,34.5649832 C280.406552,38.1258424 278.333821,40.9473124 275.597942,42.9622507 C272.806825,45.0178703 269.507104,46.0454979 265.795152,46.0454979 C262.013193,46.0454979 258.665889,44.989447 255.854203,42.8759653 C253.113227,40.8156344 251.045675,37.9738887 249.657839,34.4153342 C249.422656,33.8123011 249.208482,33.1945526 249.015213,32.5621524 C248.611968,33.5781516 248.121859,34.5723934 247.54743,35.5420709 C245.624753,38.7876915 243.023946,41.388498 239.778326,43.3111754 C236.505492,45.2499736 232.966995,46.2288979 229.216854,46.2288979 C225.430502,46.2288979 221.863681,45.2316255 218.572142,43.2567018 C215.324982,41.3084063 212.71088,38.7031349 210.761053,35.4709903 C208.785553,32.1962865 207.785154,28.6813734 207.785154,24.9805987 C207.785154,21.2449967 208.788117,17.7301098 210.772432,14.4944253 C212.731663,11.2996431 215.366614,8.74453904 218.642615,6.85995759 C221.940096,4.96301985 225.512508,4.00739948 229.308554,4.00739948 C233.082687,4.00739948 236.618473,4.96762559 239.861442,6.87420651 C243.074692,8.76331478 245.652717,11.3146701 247.561732,14.4963618 C247.744856,14.801569 247.919371,15.1093168 248.085262,15.419557 C248.492461,12.0168981 249.201578,8.85450907 250.214344,5.93306984 C250.740253,4.41602331 252.367377,3.58199255 253.906055,4.04077284 L263.901355,7.02102271 C264.746123,7.27290311 265.396315,7.86321743 265.749302,8.59892809 L265.83599,8.43181757 C266.20347,7.77440241 266.817463,7.2535277 267.597249,7.02102271 L277.592549,4.04077284 C279.09289,3.59342344 280.677323,4.37526476 281.242917,5.82095592 Z M178.114106,4.14494947 C180.99016,4.14494947 183.583552,4.80770517 185.837525,6.14843067 C188.094893,7.49117513 189.853839,9.36803931 191.073005,11.7289639 C192.26336,14.0340965 192.851705,16.6302852 192.851705,19.4785989 C192.851705,22.7023442 191.811367,25.832731 189.791467,28.817088 C189.286205,29.5636009 188.73318,30.2975491 188.132646,31.0191224 L190.941301,30.9231 C192.506975,30.8695727 193.850237,32.0297513 194.025065,33.5865544 L194.987915,42.160504 C195.187379,43.9366765 193.799253,45.4921576 192.011918,45.4952933 L165.877419,45.541148 C164.321336,45.5438733 163.021477,44.3563694 162.883904,42.8063774 L162.196154,35.0577278 C162.090019,33.861945 162.706962,32.7180271 163.764459,32.1498195 C165.65881,31.1319594 167.741216,29.7532629 170.003524,28.0130265 C171.889164,26.5625337 173.509943,25.0831794 174.868166,23.577807 L174.677461,23.6501701 C174.225802,23.8041076 173.728924,23.8523665 173.219309,23.7674306 L164.691209,22.3460807 C163.184727,22.0950003 162.107325,20.7522212 162.188664,19.227126 C162.336919,16.4473388 163.108299,13.8886143 164.499228,11.5954622 C165.901324,9.2838981 167.812043,7.44960751 170.192327,6.12722757 C172.573305,4.80446211 175.230199,4.14494947 178.114106,4.14494947 Z M475.525213,26.0022979 L475.518636,29.1593451 C475.516794,30.0233411 475.148301,30.8070139 474.555376,31.355675 C475.082346,32.0249035 475.478702,32.773848 475.745874,33.5873369 C475.928412,33.1326026 476.15782,32.6921816 476.431858,32.2686695 L476.577004,32.0537106 C476.065184,31.5423206 475.735019,30.8448066 475.70119,30.0619073 L475.525213,26.0022979 Z M229.079304,19.4524991 C227.972689,19.4524991 227.001451,19.702818 226.113882,20.2071187 C225.222642,20.7135049 224.54996,21.371564 224.054007,22.2146843 C223.564929,23.046116 223.321954,23.9645619 223.321954,25.0264487 C223.321954,26.0868406 223.571713,27.0222132 224.079223,27.887965 C224.602341,28.7803425 225.285653,29.468643 226.162083,29.9883863 C227.00838,30.4902601 227.93114,30.7379483 228.987604,30.7379483 C230.035424,30.7379483 231.001356,30.4864037 231.932275,29.9692265 C232.856252,29.455906 233.577885,28.7643406 234.133435,27.8589998 C234.665522,26.9918953 234.928353,26.0379151 234.928353,24.9347487 C234.928353,23.8916568 234.680233,22.9898349 234.177152,22.1674916 C233.657037,21.3173035 232.974598,20.6689863 232.090197,20.1865857 C231.192547,19.6969587 230.204523,19.4524991 229.079304,19.4524991 Z M387.991247,19.4524991 C386.884632,19.4524991 385.913394,19.702818 385.025825,20.2071187 C384.134586,20.7135049 383.461903,21.371564 382.96595,22.2146843 C382.476872,23.046116 382.233897,23.9645619 382.233897,25.0264487 C382.233897,26.0868406 382.483656,27.0222132 382.991166,27.887965 C383.514284,28.7803425 384.197597,29.468643 385.074027,29.9883863 C385.920324,30.4902601 386.843084,30.7379483 387.899547,30.7379483 C388.947368,30.7379483 389.913299,30.4864037 390.844218,29.9692265 C391.768195,29.455906 392.489828,28.7643406 393.045378,27.8589998 C393.577465,26.9918953 393.840296,26.0379151 393.840296,24.9347487 C393.840296,23.8916568 393.592176,22.9898349 393.089096,22.1674916 C392.56898,21.3173035 391.886541,20.6689863 391.00214,20.1865857 C390.104491,19.6969587 389.116466,19.4524991 387.991247,19.4524991 Z M265.749302,11.3089816 L265.558259,11.9731567 C265.123868,13.5361324 264.769146,15.1917582 264.494861,16.9403274 C264.150609,19.1349305 263.980902,21.0087796 263.980902,22.5505488 C263.980902,25.5049624 264.324627,27.8052738 264.964227,29.4288749 C265.192345,30.0079421 265.420111,30.3548487 265.600952,30.5078683 C265.652676,30.5516347 265.660711,30.5545483 265.749302,30.5545483 C265.83149,30.5545483 266.04133,30.3723194 266.472156,29.3567989 C267.151678,27.7550691 267.517702,25.4804942 267.517702,22.5505488 C267.517702,21.0087796 267.347995,19.1349305 267.003743,16.9403274 C266.690274,14.9419626 266.271745,13.0649932 265.749302,11.3089816 Z" id="WAVE2OUTNOW!!!" fill="#000000" fill-rule="nonzero"></path>
                <g id="WAVE2OUTNOW!!!-2" transform="translate(6.501713, 6.495298)">
                    <mask id="mask-2" fill="white">
                        <use xlink:href="#path-1"></use>
                    </mask>
                    <use id="WAVE2OUTNOW!!!" fill="#FFAA6F" fill-rule="nonzero" xlink:href="#path-1"></use>
                    <rect id="Rectangle" fill="#FFC67B" mask="url(#mask-2)" transform="translate(248.500000, 16.500000) scale(1, -1) translate(-248.500000, -16.500000) " x="-3" y="13" width="503" height="7"></rect>
                    <rect id="Rectangle" fill="#FCF117" mask="url(#mask-2)" x="-3" y="29" width="503" height="4"></rect>
                    <rect id="Rectangle" fill="#FCF117" mask="url(#mask-2)" x="-3" y="0" width="503" height="13"></rect>
                    <rect id="Rectangle" fill="#79FFF1" mask="url(#mask-2)" x="157" y="0" width="31" height="13"></rect>
                    <rect id="Rectangle" fill="#1CE9EF" mask="url(#mask-2)" x="156.6245" y="13" width="31" height="23"></rect>
                    <rect id="Rectangle" fill="#FFFFFF" mask="url(#mask-2)" x="-3" y="3" width="503" height="4"></rect>
                    <rect id="Rectangle-Copy" fill="#79FFF1" mask="url(#mask-2)" x="156.6245" y="29" width="31" height="4"></rect>
                </g>
            </g>
        </g>
    </g>
</svg>